SplineFontDB: 3.0
FontName: FjallaOne
FullName: FjallaOne
FamilyName: FjallaOne
Weight: Book
Copyright: Copyright (c) 2012, Sorkin Type Co (www.sorkintype.com)\nwith Reserved Font Name "Fjalla" and Fjalla "One"
Version: 1.000; ttfautohint (v0.92.18-e454-dirty) -l 13 -r 13 -G 200 -x 8 -w "D" -c
ItalicAngle: 0
UnderlinePosition: -103
UnderlineWidth: 102
Ascent: 1638
Descent: 410
sfntRevision: 0x00010000
LayerCount: 2
Layer: 0 1 "Back"  1
Layer: 1 1 "Fore"  0
XUID: [1021 631 1661839179 12878885]
FSType: 4
OS2Version: 3
OS2_WeightWidthSlopeOnly: 0
OS2_UseTypoMetrics: 1
CreationTime: 1351328580
ModificationTime: 1351310769
PfmFamily: 17
TTFWeight: 400
TTFWidth: 5
LineGap: 0
VLineGap: 0
Panose: 2 0 5 6 4 0 0 2 0 4
OS2TypoAscent: 2115
OS2TypoAOffset: 0
OS2TypoDescent: -445
OS2TypoDOffset: 0
OS2TypoLinegap: 0
OS2WinAscent: 2115
OS2WinAOffset: 0
OS2WinDescent: 445
OS2WinDOffset: 0
HheadAscent: 2115
HheadAOffset: 0
HheadDescent: -445
HheadDOffset: 0
OS2SubXSize: 1434
OS2SubYSize: 1331
OS2SubXOff: 0
OS2SubYOff: 287
OS2SupXSize: 1434
OS2SupYSize: 1331
OS2SupXOff: 0
OS2SupYOff: 977
OS2StrikeYSize: 102
OS2StrikeYPos: 512
OS2Vendor: 'STC '
OS2CodePages: 00000001.00000000
OS2UnicodeRanges: 8000002f.5000004a.00000000.00000000
DEI: 91125
TtTable: prep
MPPEM
PUSHW_1
 200
GT
IF
PUSHB_2
 1
 1
INSTCTRL
EIF
PUSHW_2
 2048
 2048
MUL
DUP
PUSHB_1
 1
SWAP
WCVTP
DUP
PUSHB_1
 3
SWAP
WCVTF
PUSHB_1
 20
RCVT
DUP
DUP
MPPEM
PUSHW_1
 8
LTEQ
MPPEM
PUSHB_1
 6
GTEQ
AND
IF
PUSHB_1
 52
ELSE
PUSHB_1
 40
EIF
ADD
FLOOR
DUP
ROLL
NEQ
IF
PUSHB_1
 2
CINDEX
SUB
PUSHB_1
 1
RCVT
MUL
SWAP
DIV
PUSHB_1
 2
SWAP
WCVTP
PUSHB_4
 10
 10
 5
 4
CALL
PUSHB_4
 11
 16
 5
 4
CALL
PUSHB_4
 17
 22
 5
 4
CALL
EIF
PUSHB_3
 4
 40
 8
RCVT
GT
WCVTP
PUSHB_4
 11
 16
 6
 4
CALL
PUSHB_2
 6
 1
WCVTP
PUSHB_2
 36
 1
GETINFO
LTEQ
IF
PUSHB_1
 64
GETINFO
IF
PUSHB_2
 6
 1
WCVTP
PUSHB_2
 38
 1
GETINFO
LTEQ
IF
PUSHW_1
 1024
GETINFO
IF
PUSHB_2
 6
 3
WCVTP
EIF
EIF
EIF
EIF
PUSHW_1
 511
SCANCTRL
PUSHB_1
 4
SCANTYPE
PUSHB_2
 5
 0
WCVTP
EndTTInstrs

StartChar: .notdef
Encoding: 65536 -1 0
Width: 1303
Flags: W
LayerCount: 2
Fore
SplineSet
99 1889 m 1,0,-1
 1204 1889 l 1,1,-1
 1204 0 l 1,2,-1
 99 0 l 1,3,-1
 99 1889 l 1,0,-1
510 388 m 1,4,-1
 596 585 l 1,5,-1
 651 739 l 1,6,-1
 706 585 l 1,7,-1
 792 388 l 1,8,-1
 1014 388 l 1,9,-1
 751 918 l 1,10,-1
 1014 1440 l 1,11,-1
 780 1440 l 1,12,-1
 696 1241 l 1,13,-1
 650 1106 l 1,14,-1
 605 1241 l 1,15,-1
 522 1440 l 1,16,-1
 288 1440 l 1,17,-1
 550 919 l 1,18,-1
 288 388 l 1,19,-1
 510 388 l 1,4,-1
EndSplineSet
EndChar

StartChar: A
Encoding: 65 65 4
Width: 948
Flags: W
LayerCount: 2
Fore
SplineSet
329 1677 m 1,0,-1
 618 1677 l 1,1,-1
 934 0 l 1,2,-1
 676 0 l 1,3,-1
 630 300 l 1,4,-1
 317 300 l 1,5,-1
 272 0 l 1,6,-1
 14 0 l 1,7,-1
 329 1677 l 1,0,-1
600 492 m 1,8,-1
 479 1332 l 1,9,-1
 468 1332 l 1,10,-1
 347 492 l 1,11,-1
 600 492 l 1,8,-1
EndSplineSet
EndChar

StartChar: D
Encoding: 68 68 5
Width: 1041
Flags: W
LayerCount: 2
Fore
SplineSet
140 1677 m 1,0,-1
 406 1677 l 2,1,2
 466 1677 466 1677 529.5 1673.5 c 128,-1,3
 593 1670 593 1670 654 1652.5 c 128,-1,4
 715 1635 715 1635 768.5 1598 c 128,-1,5
 822 1561 822 1561 863 1495 c 128,-1,6
 904 1429 904 1429 927.5 1328.5 c 128,-1,7
 951 1228 951 1228 951 1082 c 2,8,-1
 951 595 l 2,9,10
 951 449 951 449 927.5 348.5 c 128,-1,11
 904 248 904 248 863 182 c 128,-1,12
 822 116 822 116 768.5 79 c 128,-1,13
 715 42 715 42 654 24.5 c 128,-1,14
 593 7 593 7 529.5 3.5 c 128,-1,15
 466 0 466 0 406 0 c 2,16,-1
 140 0 l 1,17,-1
 140 1677 l 1,0,-1
451 193 m 2,18,19
 521 193 521 193 566 210.5 c 128,-1,20
 611 228 611 228 637 273 c 128,-1,21
 663 318 663 318 673 395 c 128,-1,22
 683 472 683 472 683 590 c 2,23,-1
 683 1087 l 2,24,25
 683 1205 683 1205 673 1282 c 128,-1,26
 663 1359 663 1359 637 1404 c 128,-1,27
 611 1449 611 1449 566 1466.5 c 128,-1,28
 521 1484 521 1484 451 1484 c 2,29,-1
 396 1484 l 1,30,-1
 396 193 l 1,31,-1
 451 193 l 2,18,19
EndSplineSet
EndChar

StartChar: H
Encoding: 72 72 6
Width: 1096
Flags: W
LayerCount: 2
Fore
SplineSet
140 1677 m 1,0,-1
 396 1677 l 1,1,-1
 396 975 l 1,2,-1
 700 975 l 1,3,-1
 700 1677 l 1,4,-1
 956 1677 l 1,5,-1
 956 0 l 1,6,-1
 700 0 l 1,7,-1
 700 775 l 1,8,-1
 396 775 l 1,9,-1
 396 0 l 1,10,-1
 140 0 l 1,11,-1
 140 1677 l 1,0,-1
EndSplineSet
EndChar

StartChar: E
Encoding: 69 69 7
Width: 812
Flags: W
LayerCount: 2
Fore
SplineSet
140 1677 m 1,0,-1
 786 1677 l 1,1,-1
 786 1477 l 1,2,-1
 396 1477 l 1,3,-1
 396 975 l 1,4,-1
 702 975 l 1,5,-1
 702 775 l 1,6,-1
 396 775 l 1,7,-1
 396 200 l 1,8,-1
 786 200 l 1,9,-1
 786 0 l 1,10,-1
 140 0 l 1,11,-1
 140 1677 l 1,0,-1
EndSplineSet
EndChar

StartChar: S
Encoding: 83 83 8
Width: 927
Flags: W
LayerCount: 2
Fore
SplineSet
64 339 m 0,0,1
 64 393 64 393 70.5 439.5 c 128,-1,2
 77 486 77 486 90 539 c 1,3,-1
 289 539 l 1,4,-1
 289 464 l 2,5,6
 289 327 289 327 330.5 255.5 c 128,-1,7
 372 184 372 184 458 184 c 0,8,9
 531 184 531 184 569 220 c 128,-1,10
 607 256 607 256 607 328 c 0,11,12
 607 356 607 356 601.5 385 c 128,-1,13
 596 414 596 414 582.5 446 c 128,-1,14
 569 478 569 478 546 515 c 128,-1,15
 523 552 523 552 488 597 c 2,16,-1
 221 930 l 2,17,18
 150 1020 150 1020 111 1110.5 c 128,-1,19
 72 1201 72 1201 72 1312 c 0,20,21
 72 1396 72 1396 99 1465.5 c 128,-1,22
 126 1535 126 1535 177 1585.5 c 128,-1,23
 228 1636 228 1636 301 1664 c 128,-1,24
 374 1692 374 1692 466 1692 c 0,25,26
 578 1692 578 1692 653 1660.5 c 128,-1,27
 728 1629 728 1629 773 1578.5 c 128,-1,28
 818 1528 818 1528 837 1464.5 c 128,-1,29
 856 1401 856 1401 856 1337 c 0,30,31
 856 1283 856 1283 848 1237 c 128,-1,32
 840 1191 840 1191 829 1137 c 1,33,-1
 631 1137 l 1,34,-1
 631 1217 l 2,35,36
 631 1350 631 1350 588.5 1421 c 128,-1,37
 546 1492 546 1492 466 1492 c 0,38,39
 394 1492 394 1492 357 1452.5 c 128,-1,40
 320 1413 320 1413 320 1347 c 0,41,42
 320 1290 320 1290 343 1242.5 c 128,-1,43
 366 1195 366 1195 404 1147 c 2,44,-1
 702 772 l 2,45,46
 743 719 743 719 774.5 670 c 128,-1,47
 806 621 806 621 827 571.5 c 128,-1,48
 848 522 848 522 859 470.5 c 128,-1,49
 870 419 870 419 870 362 c 0,50,51
 870 275 870 275 841 205 c 128,-1,52
 812 135 812 135 758 86 c 128,-1,53
 704 37 704 37 628.5 10.5 c 128,-1,54
 553 -16 553 -16 460 -16 c 0,55,56
 345 -16 345 -16 269 14.5 c 128,-1,57
 193 45 193 45 147.5 95 c 128,-1,58
 102 145 102 145 83 208.5 c 128,-1,59
 64 272 64 272 64 339 c 0,0,1
EndSplineSet
EndChar

StartChar: I
Encoding: 73 73 9
Width: 536
Flags: W
LayerCount: 2
Fore
SplineSet
140 1677 m 1,0,-1
 396 1677 l 1,1,-1
 396 0 l 1,2,-1
 140 0 l 1,3,-1
 140 1677 l 1,0,-1
EndSplineSet
EndChar

StartChar: O
Encoding: 79 79 10
Width: 1050
Flags: W
LayerCount: 2
Fore
SplineSet
527 -15 m 0,0,1
 486 -15 486 -15 438.5 -8.5 c 128,-1,2
 391 -2 391 -2 344.5 18.5 c 128,-1,3
 298 39 298 39 255 76.5 c 128,-1,4
 212 114 212 114 178.5 176.5 c 128,-1,5
 145 239 145 239 125.5 329.5 c 128,-1,6
 106 420 106 420 106 546 c 2,7,-1
 106 1140 l 2,8,9
 106 1267 106 1267 126 1357 c 128,-1,10
 146 1447 146 1447 179.5 1508 c 128,-1,11
 213 1569 213 1569 256.5 1605.5 c 128,-1,12
 300 1642 300 1642 347 1661.5 c 128,-1,13
 394 1681 394 1681 440.5 1686.5 c 128,-1,14
 487 1692 487 1692 527 1692 c 0,15,16
 565 1692 565 1692 610.5 1687 c 128,-1,17
 656 1682 656 1682 702.5 1663.5 c 128,-1,18
 749 1645 749 1645 792.5 1609 c 128,-1,19
 836 1573 836 1573 869.5 1511.5 c 128,-1,20
 903 1450 903 1450 923.5 1359 c 128,-1,21
 944 1268 944 1268 944 1140 c 2,22,-1
 944 546 l 2,23,24
 944 422 944 422 923.5 332 c 128,-1,25
 903 242 903 242 868.5 179.5 c 128,-1,26
 834 117 834 117 790.5 79 c 128,-1,27
 747 41 747 41 700.5 20 c 128,-1,28
 654 -1 654 -1 609 -8 c 128,-1,29
 564 -15 564 -15 527 -15 c 0,0,1
527 185 m 0,30,31
 565 185 565 185 593 198 c 128,-1,32
 621 211 621 211 639.5 242 c 128,-1,33
 658 273 658 273 667 325 c 128,-1,34
 676 377 676 377 676 455 c 2,35,-1
 676 1210 l 2,36,37
 676 1291 676 1291 667 1345 c 128,-1,38
 658 1399 658 1399 639.5 1432 c 128,-1,39
 621 1465 621 1465 593 1478.5 c 128,-1,40
 565 1492 565 1492 527 1492 c 0,41,42
 488 1492 488 1492 459 1478.5 c 128,-1,43
 430 1465 430 1465 411.5 1432 c 128,-1,44
 393 1399 393 1399 383.5 1345 c 128,-1,45
 374 1291 374 1291 374 1210 c 2,46,-1
 374 455 l 2,47,48
 374 377 374 377 383.5 325 c 128,-1,49
 393 273 393 273 411.5 242 c 128,-1,50
 430 211 430 211 459 198 c 128,-1,51
 488 185 488 185 527 185 c 0,30,31
EndSplineSet
EndChar

StartChar: N
Encoding: 78 78 11
Width: 1102
Flags: W
LayerCount: 2
Fore
SplineSet
140 1677 m 1,0,-1
 343 1677 l 1,1,-1
 755 575 l 1,2,-1
 761 575 l 1,3,4
 758 614 758 614 753.5 659 c 128,-1,5
 749 704 749 704 745 761.5 c 128,-1,6
 741 819 741 819 738 893.5 c 128,-1,7
 735 968 735 968 735 1066 c 2,8,-1
 735 1677 l 1,9,-1
 962 1677 l 1,10,-1
 962 0 l 1,11,-1
 757 0 l 1,12,-1
 347 1073 l 1,13,-1
 339 1073 l 1,14,15
 342 1029 342 1029 346.5 980.5 c 128,-1,16
 351 932 351 932 355 866 c 128,-1,17
 359 800 359 800 362 710 c 128,-1,18
 365 620 365 620 365 493 c 2,19,-1
 365 0 l 1,20,-1
 140 0 l 1,21,-1
 140 1677 l 1,0,-1
EndSplineSet
EndChar

StartChar: o
Encoding: 111 111 12
Width: 939
Flags: W
LayerCount: 2
Fore
SplineSet
471 -15 m 0,0,1
 428 -15 428 -15 383 -8 c 128,-1,2
 338 -1 338 -1 296 20.5 c 128,-1,3
 254 42 254 42 217 81.5 c 128,-1,4
 180 121 180 121 153 186 c 128,-1,5
 126 251 126 251 110 345.5 c 128,-1,6
 94 440 94 440 94 572 c 2,7,-1
 94 781 l 2,8,9
 94 910 94 910 110.5 1002.5 c 128,-1,10
 127 1095 127 1095 154.5 1158 c 128,-1,11
 182 1221 182 1221 219.5 1258.5 c 128,-1,12
 257 1296 257 1296 299 1316 c 128,-1,13
 341 1336 341 1336 385.5 1342 c 128,-1,14
 430 1348 430 1348 472 1348 c 0,15,16
 513 1348 513 1348 556.5 1342.5 c 128,-1,17
 600 1337 600 1337 641.5 1317.5 c 128,-1,18
 683 1298 683 1298 720 1261 c 128,-1,19
 757 1224 757 1224 785 1161 c 128,-1,20
 813 1098 813 1098 829 1005 c 128,-1,21
 845 912 845 912 845 781 c 2,22,-1
 845 572 l 2,23,24
 845 443 845 443 828.5 349 c 128,-1,25
 812 255 812 255 783.5 189.5 c 128,-1,26
 755 124 755 124 717.5 84 c 128,-1,27
 680 44 680 44 638.5 22 c 128,-1,28
 597 0 597 0 553.5 -7.5 c 128,-1,29
 510 -15 510 -15 471 -15 c 0,0,1
473 167 m 0,30,31
 507 167 507 167 530 184 c 128,-1,32
 553 201 553 201 567 240 c 128,-1,33
 581 279 581 279 587 342.5 c 128,-1,34
 593 406 593 406 593 499 c 2,35,-1
 593 831 l 2,36,37
 593 924 593 924 587 988 c 128,-1,38
 581 1052 581 1052 567 1091.5 c 128,-1,39
 553 1131 553 1131 530 1148.5 c 128,-1,40
 507 1166 507 1166 473 1166 c 0,41,42
 438 1166 438 1166 413.5 1148.5 c 128,-1,43
 389 1131 389 1131 374 1091.5 c 128,-1,44
 359 1052 359 1052 352.5 988 c 128,-1,45
 346 924 346 924 346 831 c 2,46,-1
 346 499 l 2,47,48
 346 406 346 406 352.5 342.5 c 128,-1,49
 359 279 359 279 374 240 c 128,-1,50
 389 201 389 201 413.5 184 c 128,-1,51
 438 167 438 167 473 167 c 0,30,31
EndSplineSet
EndChar

StartChar: d
Encoding: 100 100 13
Width: 975
Flags: W
LayerCount: 2
Fore
SplineSet
387 -16 m 0,0,1
 364 -16 364 -16 333.5 -11.5 c 128,-1,2
 303 -7 303 -7 270.5 8.5 c 128,-1,3
 238 24 238 24 206 55.5 c 128,-1,4
 174 87 174 87 149.5 140.5 c 128,-1,5
 125 194 125 194 109.5 273.5 c 128,-1,6
 94 353 94 353 94 466 c 2,7,-1
 94 888 l 2,8,9
 94 1000 94 1000 110.5 1077.5 c 128,-1,10
 127 1155 127 1155 153.5 1206 c 128,-1,11
 180 1257 180 1257 213.5 1285.5 c 128,-1,12
 247 1314 247 1314 280 1327.5 c 128,-1,13
 313 1341 313 1341 343 1344 c 128,-1,14
 373 1347 373 1347 393 1347 c 0,15,16
 430 1347 430 1347 462.5 1337 c 128,-1,17
 495 1327 495 1327 521.5 1311.5 c 128,-1,18
 548 1296 548 1296 569 1276 c 128,-1,19
 590 1256 590 1256 604 1236 c 1,20,-1
 605 1237 l 1,21,-1
 597 1405 l 1,22,-1
 597 1760 l 1,23,-1
 847 1760 l 1,24,-1
 847 0 l 1,25,-1
 651 0 l 1,26,-1
 630 123 l 1,27,28
 613 97 613 97 591 72 c 128,-1,29
 569 47 569 47 539.5 27.5 c 128,-1,30
 510 8 510 8 472.5 -4 c 128,-1,31
 435 -16 435 -16 387 -16 c 0,0,1
472 184 m 0,32,33
 497 184 497 184 516.5 192 c 128,-1,34
 536 200 536 200 551 213.5 c 128,-1,35
 566 227 566 227 577.5 244 c 128,-1,36
 589 261 589 261 597 280 c 1,37,-1
 597 1051 l 1,38,39
 578 1083 578 1083 547 1107 c 128,-1,40
 516 1131 516 1131 471 1131 c 0,41,42
 444 1131 444 1131 421 1121 c 128,-1,43
 398 1111 398 1111 381.5 1084 c 128,-1,44
 365 1057 365 1057 355.5 1010 c 128,-1,45
 346 963 346 963 346 888 c 2,46,-1
 346 427 l 2,47,48
 346 352 346 352 355.5 305 c 128,-1,49
 365 258 365 258 381.5 231 c 128,-1,50
 398 204 398 204 421.5 194 c 128,-1,51
 445 184 445 184 472 184 c 0,32,33
EndSplineSet
EndChar

StartChar: s
Encoding: 115 115 14
Width: 802
Flags: W
LayerCount: 2
Fore
SplineSet
64 279 m 0,0,1
 64 322 64 322 72.5 363 c 128,-1,2
 81 404 81 404 89 428 c 1,3,-1
 265 428 l 1,4,5
 265 355 265 355 274.5 305 c 128,-1,6
 284 255 284 255 302 224.5 c 128,-1,7
 320 194 320 194 347 180.5 c 128,-1,8
 374 167 374 167 409 167 c 0,9,10
 458 167 458 167 486 196.5 c 128,-1,11
 514 226 514 226 514 267 c 0,12,13
 514 310 514 310 490.5 349 c 128,-1,14
 467 388 467 388 427 437 c 2,15,-1
 251 648 l 2,16,17
 215 691 215 691 182 737 c 128,-1,18
 149 783 149 783 123.5 831.5 c 128,-1,19
 98 880 98 880 83 933 c 128,-1,20
 68 986 68 986 68 1044 c 0,21,22
 68 1122 68 1122 95.5 1179 c 128,-1,23
 123 1236 123 1236 169 1273.5 c 128,-1,24
 215 1311 215 1311 275.5 1329.5 c 128,-1,25
 336 1348 336 1348 403 1348 c 0,26,27
 477 1348 477 1348 537 1330.5 c 128,-1,28
 597 1313 597 1313 639 1278.5 c 128,-1,29
 681 1244 681 1244 704 1191.5 c 128,-1,30
 727 1139 727 1139 727 1070 c 0,31,32
 727 1025 727 1025 718.5 981.5 c 128,-1,33
 710 938 710 938 702 906 c 1,34,-1
 529 906 l 1,35,36
 527 1038 527 1038 497.5 1102 c 128,-1,37
 468 1166 468 1166 399 1166 c 0,38,39
 370 1166 370 1166 350.5 1156 c 128,-1,40
 331 1146 331 1146 319.5 1130.5 c 128,-1,41
 308 1115 308 1115 303 1095 c 128,-1,42
 298 1075 298 1075 298 1054 c 0,43,44
 298 1031 298 1031 304 1010.5 c 128,-1,45
 310 990 310 990 321.5 970 c 128,-1,46
 333 950 333 950 348.5 929.5 c 128,-1,47
 364 909 364 909 383 886 c 2,48,-1
 581 652 l 2,49,50
 603 625 603 625 630.5 588.5 c 128,-1,51
 658 552 658 552 683 506.5 c 128,-1,52
 708 461 708 461 725 408 c 128,-1,53
 742 355 742 355 742 297 c 0,54,55
 742 226 742 226 719 168.5 c 128,-1,56
 696 111 696 111 651.5 70.5 c 128,-1,57
 607 30 607 30 542.5 7.5 c 128,-1,58
 478 -15 478 -15 394 -15 c 0,59,60
 325 -15 325 -15 265 0 c 128,-1,61
 205 15 205 15 160.5 49.5 c 128,-1,62
 116 84 116 84 90 140 c 128,-1,63
 64 196 64 196 64 279 c 0,0,1
EndSplineSet
EndChar

StartChar: e
Encoding: 101 101 15
Width: 905
Flags: W
LayerCount: 2
Fore
SplineSet
458 -15 m 0,0,1
 370 -15 370 -15 302.5 17 c 128,-1,2
 235 49 235 49 188.5 116.5 c 128,-1,3
 142 184 142 184 118 290 c 128,-1,4
 94 396 94 396 94 545 c 2,5,-1
 94 797 l 2,6,7
 94 924 94 924 113.5 1014.5 c 128,-1,8
 133 1105 133 1105 165 1166 c 128,-1,9
 197 1227 197 1227 238 1263 c 128,-1,10
 279 1299 279 1299 323 1318 c 128,-1,11
 367 1337 367 1337 410.5 1342.5 c 128,-1,12
 454 1348 454 1348 490 1348 c 0,13,14
 557 1348 557 1348 618 1328 c 128,-1,15
 679 1308 679 1308 725 1260 c 128,-1,16
 771 1212 771 1212 798 1132 c 128,-1,17
 825 1052 825 1052 825 931 c 0,18,19
 825 891 825 891 822.5 849.5 c 128,-1,20
 820 808 820 808 816 767.5 c 128,-1,21
 812 727 812 727 805.5 689.5 c 128,-1,22
 799 652 799 652 792 620 c 1,23,-1
 346 620 l 1,24,-1
 346 485 l 2,25,26
 346 398 346 398 352.5 337.5 c 128,-1,27
 359 277 359 277 375.5 239 c 128,-1,28
 392 201 392 201 420 184 c 128,-1,29
 448 167 448 167 491 167 c 0,30,31
 514 167 514 167 536 176 c 128,-1,32
 558 185 558 185 575 206.5 c 128,-1,33
 592 228 592 228 602.5 263 c 128,-1,34
 613 298 613 298 613 351 c 2,35,-1
 613 409 l 1,36,-1
 819 409 l 1,37,-1
 819 348 l 2,38,39
 819 159 819 159 726 72 c 128,-1,40
 633 -15 633 -15 458 -15 c 0,0,1
591 785 m 1,41,42
 592 795 592 795 593 812.5 c 128,-1,43
 594 830 594 830 594.5 849 c 128,-1,44
 595 868 595 868 595 886.5 c 128,-1,45
 595 905 595 905 595 918 c 0,46,47
 595 1050 595 1050 566 1107.5 c 128,-1,48
 537 1165 537 1165 475 1166 c 0,49,50
 442 1166 442 1166 417.5 1151 c 128,-1,51
 393 1136 393 1136 377.5 1100.5 c 128,-1,52
 362 1065 362 1065 354 1007 c 128,-1,53
 346 949 346 949 346 863 c 2,54,-1
 346 785 l 1,55,-1
 591 785 l 1,41,42
EndSplineSet
EndChar

StartChar: period
Encoding: 46 46 16
Width: 486
Flags: W
LayerCount: 2
Fore
SplineSet
85 174 m 0,0,1
 85 277 85 277 126.5 322 c 128,-1,2
 168 367 168 367 240 367 c 0,3,4
 314 367 314 367 354.5 319 c 128,-1,5
 395 271 395 271 395 174 c 0,6,7
 395 84 395 84 354 35 c 128,-1,8
 313 -14 313 -14 239 -14 c 0,9,10
 169 -14 169 -14 127 34 c 128,-1,11
 85 82 85 82 85 174 c 0,0,1
EndSplineSet
EndChar

StartChar: h
Encoding: 104 104 17
Width: 1002
Flags: W
LayerCount: 2
Fore
SplineSet
127 1760 m 1,0,-1
 377 1760 l 1,1,-1
 377 1447 l 1,2,-1
 364 1218 l 1,3,4
 420 1292 420 1292 488.5 1320 c 128,-1,5
 557 1348 557 1348 626 1348 c 0,6,7
 745 1348 745 1348 810 1266.5 c 128,-1,8
 875 1185 875 1185 875 1021 c 2,9,-1
 875 0 l 1,10,-1
 625 0 l 1,11,-1
 625 980 l 2,12,13
 625 1068 625 1068 597.5 1102.5 c 128,-1,14
 570 1137 570 1137 516 1137 c 0,15,16
 478 1137 478 1137 442 1115.5 c 128,-1,17
 406 1094 406 1094 377 1056 c 1,18,-1
 377 0 l 1,19,-1
 127 0 l 1,20,-1
 127 1760 l 1,0,-1
EndSplineSet
EndChar

StartChar: exclam
Encoding: 33 33 18
Width: 673
Flags: W
LayerCount: 2
Fore
SplineSet
201 1780 m 1,0,-1
 471 1780 l 1,1,-1
 441 545 l 1,2,-1
 236 545 l 1,3,-1
 201 1780 l 1,0,-1
184 174 m 0,4,5
 184 277 184 277 225.5 322 c 128,-1,6
 267 367 267 367 339 367 c 0,7,8
 413 367 413 367 453.5 319 c 128,-1,9
 494 271 494 271 494 174 c 0,10,11
 494 84 494 84 453 35 c 128,-1,12
 412 -14 412 -14 338 -14 c 0,13,14
 268 -14 268 -14 226 34 c 128,-1,15
 184 82 184 82 184 174 c 0,4,5
EndSplineSet
EndChar

StartChar: q
Encoding: 113 113 19
Width: 974
Flags: W
LayerCount: 2
Fore
SplineSet
387 -16 m 0,0,1
 364 -16 364 -16 333.5 -11.5 c 128,-1,2
 303 -7 303 -7 270.5 8.5 c 128,-1,3
 238 24 238 24 206 55.5 c 128,-1,4
 174 87 174 87 149.5 140.5 c 128,-1,5
 125 194 125 194 109.5 273.5 c 128,-1,6
 94 353 94 353 94 466 c 2,7,-1
 94 869 l 2,8,9
 94 982 94 982 109 1061.5 c 128,-1,10
 124 1141 124 1141 148.5 1194 c 128,-1,11
 173 1247 173 1247 204 1277.5 c 128,-1,12
 235 1308 235 1308 266.5 1323.5 c 128,-1,13
 298 1339 298 1339 327 1343 c 128,-1,14
 356 1347 356 1347 377 1347 c 0,15,16
 425 1347 425 1347 464 1333 c 128,-1,17
 503 1319 503 1319 534 1297.5 c 128,-1,18
 565 1276 565 1276 588 1248.5 c 128,-1,19
 611 1221 611 1221 628 1194 c 1,20,-1
 651 1332 l 1,21,-1
 847 1332 l 1,22,-1
 847 -432 l 1,23,-1
 597 -432 l 1,24,-1
 597 -77 l 1,25,-1
 604 87 l 1,26,27
 570 45 570 45 518 14.5 c 128,-1,28
 466 -16 466 -16 387 -16 c 0,0,1
472 184 m 0,29,30
 497 184 497 184 516.5 192 c 128,-1,31
 536 200 536 200 551 213.5 c 128,-1,32
 566 227 566 227 577.5 244 c 128,-1,33
 589 261 589 261 597 280 c 1,34,-1
 597 1051 l 1,35,36
 578 1083 578 1083 547 1107 c 128,-1,37
 516 1131 516 1131 471 1131 c 0,38,39
 444 1131 444 1131 421 1121 c 128,-1,40
 398 1111 398 1111 381.5 1084 c 128,-1,41
 365 1057 365 1057 355.5 1010 c 128,-1,42
 346 963 346 963 346 888 c 2,43,-1
 346 427 l 2,44,45
 346 352 346 352 355.5 305 c 128,-1,46
 365 258 365 258 381.5 231 c 128,-1,47
 398 204 398 204 421.5 194 c 128,-1,48
 445 184 445 184 472 184 c 0,29,30
EndSplineSet
EndChar

StartChar: b
Encoding: 98 98 20
Width: 975
Flags: W
LayerCount: 2
Fore
SplineSet
128 1760 m 1,0,-1
 378 1760 l 1,1,-1
 378 1405 l 1,2,-1
 370 1229 l 1,3,-1
 371 1228 l 1,4,5
 388 1251 388 1251 410.5 1272.5 c 128,-1,6
 433 1294 433 1294 461 1310.5 c 128,-1,7
 489 1327 489 1327 523 1337 c 128,-1,8
 557 1347 557 1347 598 1347 c 0,9,10
 619 1347 619 1347 648 1343 c 128,-1,11
 677 1339 677 1339 708.5 1323.5 c 128,-1,12
 740 1308 740 1308 771 1277.5 c 128,-1,13
 802 1247 802 1247 826.5 1194 c 128,-1,14
 851 1141 851 1141 866 1061.5 c 128,-1,15
 881 982 881 982 881 869 c 2,16,-1
 881 466 l 2,17,18
 881 353 881 353 865.5 273.5 c 128,-1,19
 850 194 850 194 825.5 140.5 c 128,-1,20
 801 87 801 87 769 55.5 c 128,-1,21
 737 24 737 24 704.5 8.5 c 128,-1,22
 672 -7 672 -7 641.5 -11.5 c 128,-1,23
 611 -16 611 -16 588 -16 c 0,24,25
 540 -16 540 -16 502 -4 c 128,-1,26
 464 8 464 8 435 27.5 c 128,-1,27
 406 47 406 47 383.5 72 c 128,-1,28
 361 97 361 97 345 123 c 1,29,-1
 324 0 l 1,30,-1
 128 0 l 1,31,-1
 128 1760 l 1,0,-1
378 288 m 1,32,33
 386 269 386 269 397.5 252 c 128,-1,34
 409 235 409 235 424 221.5 c 128,-1,35
 439 208 439 208 458.5 200 c 128,-1,36
 478 192 478 192 503 192 c 0,37,38
 530 192 530 192 553.5 202 c 128,-1,39
 577 212 577 212 593.5 239 c 128,-1,40
 610 266 610 266 619.5 313 c 128,-1,41
 629 360 629 360 629 435 c 2,42,-1
 629 896 l 2,43,44
 629 971 629 971 619.5 1018 c 128,-1,45
 610 1065 610 1065 593.5 1092 c 128,-1,46
 577 1119 577 1119 554 1129 c 128,-1,47
 531 1139 531 1139 504 1139 c 0,48,49
 458 1139 458 1139 427.5 1115 c 128,-1,50
 397 1091 397 1091 378 1059 c 1,51,-1
 378 288 l 1,32,33
EndSplineSet
EndChar

StartChar: p
Encoding: 112 112 21
Width: 975
Flags: W
LayerCount: 2
Fore
SplineSet
377 -76 m 1,0,-1
 377 -431 l 1,1,-1
 127 -431 l 1,2,-1
 127 1332 l 1,3,-1
 323 1332 l 1,4,-1
 346 1192 l 1,5,6
 363 1219 363 1219 386 1247 c 128,-1,7
 409 1275 409 1275 440 1297 c 128,-1,8
 471 1319 471 1319 510 1333 c 128,-1,9
 549 1347 549 1347 598 1347 c 0,10,11
 619 1347 619 1347 648 1343 c 128,-1,12
 677 1339 677 1339 708.5 1323.5 c 128,-1,13
 740 1308 740 1308 771 1277.5 c 128,-1,14
 802 1247 802 1247 826.5 1194 c 128,-1,15
 851 1141 851 1141 866 1061.5 c 128,-1,16
 881 982 881 982 881 869 c 2,17,-1
 881 466 l 2,18,19
 881 353 881 353 865.5 273.5 c 128,-1,20
 850 194 850 194 825.5 140.5 c 128,-1,21
 801 87 801 87 769 55.5 c 128,-1,22
 737 24 737 24 704.5 8.5 c 128,-1,23
 672 -7 672 -7 641.5 -11.5 c 128,-1,24
 611 -16 611 -16 588 -16 c 0,25,26
 548 -16 548 -16 515.5 -7.5 c 128,-1,27
 483 1 483 1 456 15 c 128,-1,28
 429 29 429 29 407.5 48 c 128,-1,29
 386 67 386 67 369 88 c 1,30,-1
 377 -76 l 1,0,-1
377 290 m 1,31,32
 385 271 385 271 396.5 253 c 128,-1,33
 408 235 408 235 423 221.5 c 128,-1,34
 438 208 438 208 458 200 c 128,-1,35
 478 192 478 192 503 192 c 0,36,37
 530 192 530 192 553.5 202 c 128,-1,38
 577 212 577 212 593.5 239 c 128,-1,39
 610 266 610 266 619.5 313 c 128,-1,40
 629 360 629 360 629 435 c 2,41,-1
 629 896 l 2,42,43
 629 971 629 971 619.5 1018 c 128,-1,44
 610 1065 610 1065 593.5 1092 c 128,-1,45
 577 1119 577 1119 554 1129 c 128,-1,46
 531 1139 531 1139 504 1139 c 0,47,48
 457 1139 457 1139 426.5 1114.5 c 128,-1,49
 396 1090 396 1090 377 1057 c 1,50,-1
 377 290 l 1,31,32
EndSplineSet
EndChar

StartChar: k
Encoding: 107 107 22
Width: 940
Flags: W
LayerCount: 2
Fore
SplineSet
128 1760 m 1,0,-1
 378 1760 l 1,1,-1
 378 747 l 1,2,-1
 386 747 l 1,3,-1
 659 1332 l 1,4,-1
 900 1332 l 1,5,-1
 608 734 l 1,6,-1
 929 0 l 1,7,-1
 675 0 l 1,8,-1
 386 661 l 1,9,-1
 378 661 l 1,10,-1
 378 0 l 1,11,-1
 128 0 l 1,12,-1
 128 1760 l 1,0,-1
EndSplineSet
EndChar

StartChar: m
Encoding: 109 109 23
Width: 1499
Flags: W
LayerCount: 2
Fore
SplineSet
128 1332 m 1,0,-1
 320 1332 l 1,1,-1
 344 1190 l 1,2,-1
 344 1189 l 1,3,4
 373 1235 373 1235 407 1265.5 c 128,-1,5
 441 1296 441 1296 477 1314.5 c 128,-1,6
 513 1333 513 1333 551 1340.5 c 128,-1,7
 589 1348 589 1348 627 1348 c 0,8,9
 707 1348 707 1348 762.5 1310 c 128,-1,10
 818 1272 818 1272 847 1197 c 1,11,12
 876 1240 876 1240 909.5 1269 c 128,-1,13
 943 1298 943 1298 978.5 1315.5 c 128,-1,14
 1014 1333 1014 1333 1051 1340.5 c 128,-1,15
 1088 1348 1088 1348 1125 1348 c 0,16,17
 1243 1348 1243 1348 1308 1266.5 c 128,-1,18
 1373 1185 1373 1185 1373 1021 c 2,19,-1
 1373 0 l 1,20,-1
 1123 0 l 1,21,-1
 1123 980 l 2,22,23
 1123 1068 1123 1068 1095.5 1102.5 c 128,-1,24
 1068 1137 1068 1137 1007 1137 c 0,25,26
 972 1137 972 1137 937.5 1115.5 c 128,-1,27
 903 1094 903 1094 874 1056 c 1,28,29
 875 1047 875 1047 875 1038.5 c 128,-1,30
 875 1030 875 1030 875 1021 c 2,31,-1
 875 0 l 1,32,-1
 625 0 l 1,33,-1
 625 980 l 2,34,35
 625 1068 625 1068 597.5 1102.5 c 128,-1,36
 570 1137 570 1137 509 1137 c 0,37,38
 475 1137 475 1137 440.5 1116 c 128,-1,39
 406 1095 406 1095 378 1058 c 1,40,-1
 378 0 l 1,41,-1
 128 0 l 1,42,-1
 128 1332 l 1,0,-1
EndSplineSet
EndChar

StartChar: u
Encoding: 117 117 24
Width: 1001
Flags: W
LayerCount: 2
Fore
SplineSet
126 1332 m 1,0,-1
 376 1332 l 1,1,-1
 376 352 l 2,2,3
 376 264 376 264 403.5 229.5 c 128,-1,4
 431 195 431 195 485 195 c 0,5,6
 523 195 523 195 558.5 215.5 c 128,-1,7
 594 236 594 236 623 274 c 1,8,-1
 623 1332 l 1,9,-1
 873 1332 l 1,10,-1
 873 0 l 1,11,-1
 682 0 l 1,12,-1
 657 142 l 1,13,-1
 656 142 l 1,14,15
 627 97 627 97 593.5 66.5 c 128,-1,16
 560 36 560 36 524 17.5 c 128,-1,17
 488 -1 488 -1 450 -8.5 c 128,-1,18
 412 -16 412 -16 375 -16 c 0,19,20
 256 -16 256 -16 191 65.5 c 128,-1,21
 126 147 126 147 126 311 c 2,22,-1
 126 1332 l 1,0,-1
EndSplineSet
EndChar

StartChar: w
Encoding: 119 119 25
Width: 1315
Flags: W
LayerCount: 2
Fore
SplineSet
30 1332 m 1,0,-1
 268 1332 l 1,1,-1
 366 611 l 1,2,-1
 390 340 l 1,3,-1
 398 340 l 1,4,-1
 428 611 l 1,5,-1
 558 1332 l 1,6,-1
 769 1332 l 1,7,-1
 904 611 l 1,8,-1
 941 340 l 1,9,-1
 949 340 l 1,10,-1
 965 611 l 1,11,-1
 1051 1332 l 1,12,-1
 1285 1332 l 1,13,-1
 1064 0 l 1,14,-1
 834 0 l 1,15,-1
 692 741 l 1,16,-1
 660 945 l 1,17,-1
 652 945 l 1,18,-1
 624 741 l 1,19,-1
 495 0 l 1,20,-1
 254 0 l 1,21,-1
 30 1332 l 1,0,-1
EndSplineSet
EndChar

StartChar: v
Encoding: 118 118 26
Width: 855
Flags: W
LayerCount: 2
Fore
SplineSet
11 1332 m 1,0,-1
 260 1332 l 1,1,-1
 392 624 l 1,2,-1
 425 340 l 1,3,-1
 433 340 l 1,4,-1
 470 624 l 1,5,-1
 601 1332 l 1,6,-1
 843 1332 l 1,7,-1
 532 0 l 1,8,-1
 318 0 l 1,9,-1
 11 1332 l 1,0,-1
EndSplineSet
EndChar

StartChar: z
Encoding: 122 122 27
Width: 680
Flags: W
LayerCount: 2
Fore
SplineSet
14 122 m 1,0,-1
 391 1146 l 1,1,-1
 34 1146 l 1,2,-1
 34 1332 l 1,3,-1
 659 1332 l 1,4,-1
 659 1210 l 1,5,-1
 281 186 l 1,6,-1
 666 186 l 1,7,-1
 666 0 l 1,8,-1
 14 0 l 1,9,-1
 14 122 l 1,0,-1
EndSplineSet
EndChar

StartChar: x
Encoding: 120 120 28
Width: 883
Flags: W
LayerCount: 2
Fore
SplineSet
303 677 m 1,0,-1
 34 1332 l 1,1,-1
 290 1332 l 1,2,-1
 436 895 l 1,3,-1
 438 895 l 1,4,-1
 592 1332 l 1,5,-1
 832 1332 l 1,6,-1
 573 699 l 1,7,-1
 863 0 l 1,8,-1
 607 0 l 1,9,-1
 439 460 l 1,10,-1
 431 460 l 1,11,-1
 260 0 l 1,12,-1
 20 0 l 1,13,-1
 303 677 l 1,0,-1
EndSplineSet
EndChar

StartChar: c
Encoding: 99 99 29
Width: 854
Flags: W
LayerCount: 2
Fore
SplineSet
448 -15 m 0,0,1
 362 -15 362 -15 296 17 c 128,-1,2
 230 49 230 49 185 116.5 c 128,-1,3
 140 184 140 184 117 290 c 128,-1,4
 94 396 94 396 94 545 c 2,5,-1
 94 797 l 2,6,7
 94 924 94 924 113 1014.5 c 128,-1,8
 132 1105 132 1105 163 1166 c 128,-1,9
 194 1227 194 1227 234 1263 c 128,-1,10
 274 1299 274 1299 316.5 1318 c 128,-1,11
 359 1337 359 1337 401 1342.5 c 128,-1,12
 443 1348 443 1348 477 1348 c 0,13,14
 546 1348 546 1348 603.5 1330 c 128,-1,15
 661 1312 661 1312 702 1276 c 128,-1,16
 743 1240 743 1240 765.5 1185 c 128,-1,17
 788 1130 788 1130 788 1055 c 0,18,19
 788 1009 788 1009 783.5 975.5 c 128,-1,20
 779 942 779 942 771 910 c 1,21,-1
 581 910 l 1,22,-1
 581 952 l 2,23,24
 581 1052 581 1052 553 1109 c 128,-1,25
 525 1166 525 1166 469 1166 c 0,26,27
 439 1166 439 1166 416 1151 c 128,-1,28
 393 1136 393 1136 377.5 1100.5 c 128,-1,29
 362 1065 362 1065 354 1007 c 128,-1,30
 346 949 346 949 346 863 c 2,31,-1
 346 485 l 2,32,33
 346 398 346 398 352.5 337.5 c 128,-1,34
 359 277 359 277 374 239 c 128,-1,35
 389 201 389 201 413.5 184 c 128,-1,36
 438 167 438 167 475 167 c 0,37,38
 494 167 494 167 513 176 c 128,-1,39
 532 185 532 185 547 206.5 c 128,-1,40
 562 228 562 228 571.5 263 c 128,-1,41
 581 298 581 298 581 351 c 2,42,-1
 581 409 l 1,43,-1
 784 409 l 1,44,-1
 784 348 l 2,45,46
 784 159 784 159 700.5 72 c 128,-1,47
 617 -15 617 -15 448 -15 c 0,0,1
EndSplineSet
EndChar

StartChar: f
Encoding: 102 102 30
Width: 600
Flags: W
LayerCount: 2
Fore
SplineSet
147 1146 m 1,0,-1
 33 1146 l 1,1,-1
 33 1332 l 1,2,-1
 147 1332 l 1,3,-1
 147 1428 l 2,4,5
 147 1536 147 1536 170.5 1604 c 128,-1,6
 194 1672 194 1672 234.5 1710.5 c 128,-1,7
 275 1749 275 1749 329.5 1762.5 c 128,-1,8
 384 1776 384 1776 447 1776 c 0,9,10
 465 1776 465 1776 486.5 1774 c 128,-1,11
 508 1772 508 1772 530.5 1768 c 128,-1,12
 553 1764 553 1764 574.5 1758 c 128,-1,13
 596 1752 596 1752 613 1743 c 1,14,-1
 613 1571 l 1,15,16
 571 1582 571 1582 520 1582 c 0,17,18
 495 1582 495 1582 473 1574 c 128,-1,19
 451 1566 451 1566 434 1548 c 128,-1,20
 417 1530 417 1530 407 1500.5 c 128,-1,21
 397 1471 397 1471 397 1428 c 2,22,-1
 397 1332 l 1,23,-1
 596 1332 l 1,24,-1
 596 1146 l 1,25,-1
 397 1146 l 1,26,-1
 397 0 l 1,27,-1
 147 0 l 1,28,-1
 147 1146 l 1,0,-1
EndSplineSet
EndChar

StartChar: y
Encoding: 121 121 31
Width: 879
Flags: W
LayerCount: 2
Fore
SplineSet
79 -257 m 1,0,1
 136 -265 136 -265 183 -253.5 c 128,-1,2
 230 -242 230 -242 264.5 -211 c 128,-1,3
 299 -180 299 -180 319.5 -129.5 c 128,-1,4
 340 -79 340 -79 343 -8 c 1,5,-1
 20 1332 l 1,6,-1
 269 1332 l 1,7,-1
 413 595 l 1,8,-1
 454 340 l 1,9,-1
 462 340 l 1,10,-1
 491 595 l 1,11,-1
 607 1332 l 1,12,-1
 849 1332 l 1,13,-1
 568 -50 l 2,14,15
 549 -145 549 -145 520.5 -216.5 c 128,-1,16
 492 -288 492 -288 449.5 -335.5 c 128,-1,17
 407 -383 407 -383 348 -407 c 128,-1,18
 289 -431 289 -431 210 -431 c 0,19,20
 146 -431 146 -431 78 -406 c 1,21,-1
 79 -257 l 1,22,-1
 79 -257 l 1,0,1
EndSplineSet
EndChar

StartChar: t
Encoding: 116 116 32
Width: 654
Flags: W
LayerCount: 2
Fore
SplineSet
148 1146 m 1,0,-1
 32 1146 l 1,1,-1
 32 1332 l 1,2,-1
 169 1332 l 1,3,-1
 220 1677 l 1,4,-1
 398 1677 l 1,5,-1
 398 1332 l 1,6,-1
 626 1332 l 1,7,-1
 626 1146 l 1,8,-1
 398 1146 l 1,9,-1
 398 330 l 2,10,11
 398 286 398 286 406.5 260 c 128,-1,12
 415 234 415 234 430 219.5 c 128,-1,13
 445 205 445 205 464.5 200.5 c 128,-1,14
 484 196 484 196 506 196 c 0,15,16
 542 196 542 196 570.5 203.5 c 128,-1,17
 599 211 599 211 625 227 c 1,18,-1
 625 72 l 1,19,20
 581 20 581 20 525.5 2 c 128,-1,21
 470 -16 470 -16 417 -16 c 256,22,23
 364 -16 364 -16 315.5 -2.5 c 128,-1,24
 267 11 267 11 230 49.5 c 128,-1,25
 193 88 193 88 170.5 156 c 128,-1,26
 148 224 148 224 148 332 c 2,27,-1
 148 1146 l 1,0,-1
EndSplineSet
EndChar

StartChar: j
Encoding: 106 106 33
Width: 506
Flags: W
LayerCount: 2
Fore
SplineSet
244 1525 m 0,0,1
 174 1525 174 1525 133.5 1567.5 c 128,-1,2
 93 1610 93 1610 93 1688 c 0,3,4
 93 1775 93 1775 133.5 1810.5 c 128,-1,5
 174 1846 174 1846 245 1846 c 0,6,7
 319 1846 319 1846 361 1807.5 c 128,-1,8
 403 1769 403 1769 403 1688 c 0,9,10
 403 1612 403 1612 360.5 1568.5 c 128,-1,11
 318 1525 318 1525 244 1525 c 0,0,1
128 1332 m 1,12,-1
 378 1332 l 1,13,-1
 378 -82 l 2,14,15
 378 -190 378 -190 355.5 -258 c 128,-1,16
 333 -326 333 -326 296 -364.5 c 128,-1,17
 259 -403 259 -403 210 -416.5 c 128,-1,18
 161 -430 161 -430 109 -430 c 0,19,20
 79 -430 79 -430 48.5 -425 c 128,-1,21
 18 -420 18 -420 -12 -406 c 1,22,-1
 -12 -264 l 1,23,24
 -4 -265 -4 -265 4 -265.5 c 128,-1,25
 12 -266 12 -266 20 -266 c 0,26,27
 42 -266 42 -266 61.5 -258.5 c 128,-1,28
 81 -251 81 -251 96 -233 c 128,-1,29
 111 -215 111 -215 119.5 -185.5 c 128,-1,30
 128 -156 128 -156 128 -112 c 2,31,-1
 128 1332 l 1,12,-1
EndSplineSet
EndChar

StartChar: T
Encoding: 84 84 34
Width: 848
Flags: W
LayerCount: 2
Fore
SplineSet
296 1477 m 1,0,-1
 24 1477 l 1,1,-1
 24 1677 l 1,2,-1
 824 1677 l 1,3,-1
 824 1477 l 1,4,-1
 552 1477 l 1,5,-1
 552 0 l 1,6,-1
 296 0 l 1,7,-1
 296 1477 l 1,0,-1
EndSplineSet
EndChar

StartChar: V
Encoding: 86 86 35
Width: 936
Flags: W
LayerCount: 2
Fore
SplineSet
14 1677 m 1,0,-1
 276 1677 l 1,1,-1
 462 345 l 1,2,-1
 473 345 l 1,3,-1
 660 1677 l 1,4,-1
 922 1677 l 1,5,-1
 614 0 l 1,6,-1
 321 0 l 1,7,-1
 14 1677 l 1,0,-1
EndSplineSet
EndChar

StartChar: Z
Encoding: 90 90 36
Width: 847
Flags: W
LayerCount: 2
Fore
SplineSet
24 134 m 1,0,-1
 536 1477 l 1,1,-1
 109 1477 l 1,2,-1
 109 1677 l 1,3,-1
 823 1677 l 1,4,-1
 823 1543 l 1,5,-1
 310 200 l 1,6,-1
 823 200 l 1,7,-1
 823 0 l 1,8,-1
 24 0 l 1,9,-1
 24 134 l 1,0,-1
EndSplineSet
EndChar

StartChar: X
Encoding: 88 88 37
Width: 912
Flags: W
LayerCount: 2
Fore
SplineSet
333 845 m 1,0,-1
 24 1677 l 1,1,-1
 295 1677 l 1,2,-1
 455 1141 l 1,3,-1
 465 1141 l 1,4,-1
 623 1677 l 1,5,-1
 888 1677 l 1,6,-1
 578 844 l 1,7,-1
 888 0 l 1,8,-1
 627 0 l 1,9,-1
 463 540 l 1,10,-1
 447 540 l 1,11,-1
 279 0 l 1,12,-1
 24 0 l 1,13,-1
 333 845 l 1,0,-1
EndSplineSet
EndChar

StartChar: L
Encoding: 76 76 38
Width: 758
Flags: W
LayerCount: 2
Fore
SplineSet
140 1677 m 1,0,-1
 396 1677 l 1,1,-1
 396 200 l 1,2,-1
 746 200 l 1,3,-1
 746 0 l 1,4,-1
 140 0 l 1,5,-1
 140 1677 l 1,0,-1
EndSplineSet
EndChar

StartChar: J
Encoding: 74 74 39
Width: 813
Flags: W
LayerCount: 2
Fore
SplineSet
348 -16 m 0,0,1
 252 -16 252 -16 187.5 13.5 c 128,-1,2
 123 43 123 43 84 94 c 128,-1,3
 45 145 45 145 28.5 212.5 c 128,-1,4
 12 280 12 280 12 356 c 0,5,6
 12 409 12 409 19 475 c 128,-1,7
 26 541 26 541 40 608 c 1,8,-1
 245 608 l 1,9,-1
 245 410 l 2,10,11
 245 345 245 345 250.5 301.5 c 128,-1,12
 256 258 256 258 268.5 232 c 128,-1,13
 281 206 281 206 300.5 195 c 128,-1,14
 320 184 320 184 348 184 c 0,15,16
 371 184 371 184 389.5 193 c 128,-1,17
 408 202 408 202 420.5 224 c 128,-1,18
 433 246 433 246 440 283.5 c 128,-1,19
 447 321 447 321 447 378 c 2,20,-1
 447 1677 l 1,21,-1
 703 1677 l 1,22,-1
 703 406 l 2,23,24
 703 276 703 276 673 194 c 128,-1,25
 643 112 643 112 593.5 65.5 c 128,-1,26
 544 19 544 19 480 1.5 c 128,-1,27
 416 -16 416 -16 348 -16 c 0,0,1
EndSplineSet
EndChar

StartChar: W
Encoding: 87 87 40
Width: 1454
Flags: W
LayerCount: 2
Fore
SplineSet
32 1677 m 1,0,-1
 277 1677 l 1,1,-1
 391 664 l 1,2,-1
 404 427 l 1,3,-1
 429 427 l 1,4,-1
 452 664 l 1,5,-1
 635 1677 l 1,6,-1
 840 1677 l 1,7,-1
 1014 664 l 1,8,-1
 1034 427 l 1,9,-1
 1059 427 l 1,10,-1
 1071 664 l 1,11,-1
 1175 1677 l 1,12,-1
 1422 1677 l 1,13,-1
 1185 0 l 1,14,-1
 925 0 l 1,15,-1
 785 806 l 1,16,-1
 742 1157 l 1,17,-1
 722 1157 l 1,18,-1
 679 806 l 1,19,-1
 533 0 l 1,20,-1
 275 0 l 1,21,-1
 32 1677 l 1,0,-1
EndSplineSet
EndChar

StartChar: Y
Encoding: 89 89 41
Width: 940
Flags: W
LayerCount: 2
Fore
SplineSet
341 588 m 1,0,-1
 10 1677 l 1,1,-1
 268 1677 l 1,2,-1
 464 868 l 1,3,-1
 476 868 l 1,4,-1
 672 1677 l 1,5,-1
 930 1677 l 1,6,-1
 597 588 l 1,7,-1
 597 0 l 1,8,-1
 341 0 l 1,9,-1
 341 588 l 1,0,-1
EndSplineSet
EndChar

StartChar: Q
Encoding: 81 81 42
Width: 1050
Flags: W
LayerCount: 2
Fore
SplineSet
423 -5 m 1,0,1
 385 2 385 2 347 17.5 c 128,-1,2
 309 33 309 33 273.5 60.5 c 128,-1,3
 238 88 238 88 207.5 129 c 128,-1,4
 177 170 177 170 154.5 229 c 128,-1,5
 132 288 132 288 119 366 c 128,-1,6
 106 444 106 444 106 546 c 2,7,-1
 106 1140 l 2,8,9
 106 1267 106 1267 126 1357 c 128,-1,10
 146 1447 146 1447 179.5 1508 c 128,-1,11
 213 1569 213 1569 256.5 1605.5 c 128,-1,12
 300 1642 300 1642 347 1661.5 c 128,-1,13
 394 1681 394 1681 440.5 1686.5 c 128,-1,14
 487 1692 487 1692 527 1692 c 0,15,16
 565 1692 565 1692 610.5 1687 c 128,-1,17
 656 1682 656 1682 702.5 1663.5 c 128,-1,18
 749 1645 749 1645 792.5 1609 c 128,-1,19
 836 1573 836 1573 869.5 1511.5 c 128,-1,20
 903 1450 903 1450 923.5 1359 c 128,-1,21
 944 1268 944 1268 944 1140 c 2,22,-1
 944 546 l 2,23,24
 944 401 944 401 916.5 302.5 c 128,-1,25
 889 204 889 204 845 141 c 128,-1,26
 801 78 801 78 746.5 45 c 128,-1,27
 692 12 692 12 639 -1 c 1,28,-1
 639 -16 l 2,29,30
 639 -64 639 -64 650 -93 c 128,-1,31
 661 -122 661 -122 683.5 -138.5 c 128,-1,32
 706 -155 706 -155 739 -160.5 c 128,-1,33
 772 -166 772 -166 816 -166 c 0,34,35
 830 -166 830 -166 843.5 -166 c 128,-1,36
 857 -166 857 -166 869 -165 c 1,37,-1
 869 -302 l 1,38,39
 821 -324 821 -324 778.5 -331.5 c 128,-1,40
 736 -339 736 -339 688 -339 c 0,41,42
 667 -339 667 -339 639.5 -336.5 c 128,-1,43
 612 -334 612 -334 582.5 -325 c 128,-1,44
 553 -316 553 -316 524.5 -298.5 c 128,-1,45
 496 -281 496 -281 473.5 -251.5 c 128,-1,46
 451 -222 451 -222 437 -178 c 128,-1,47
 423 -134 423 -134 423 -71 c 2,48,-1
 423 -5 l 1,0,1
527 185 m 0,49,50
 565 185 565 185 593 198 c 128,-1,51
 621 211 621 211 639.5 242 c 128,-1,52
 658 273 658 273 667 325 c 128,-1,53
 676 377 676 377 676 455 c 2,54,-1
 676 1210 l 2,55,56
 676 1291 676 1291 667 1345 c 128,-1,57
 658 1399 658 1399 639.5 1432 c 128,-1,58
 621 1465 621 1465 593 1478.5 c 128,-1,59
 565 1492 565 1492 527 1492 c 0,60,61
 488 1492 488 1492 459 1478.5 c 128,-1,62
 430 1465 430 1465 411.5 1432 c 128,-1,63
 393 1399 393 1399 383.5 1345 c 128,-1,64
 374 1291 374 1291 374 1210 c 2,65,-1
 374 455 l 2,66,67
 374 377 374 377 383.5 325 c 128,-1,68
 393 273 393 273 411.5 242 c 128,-1,69
 430 211 430 211 459 198 c 128,-1,70
 488 185 488 185 527 185 c 0,49,50
EndSplineSet
EndChar

StartChar: M
Encoding: 77 77 43
Width: 1398
Flags: W
LayerCount: 2
Fore
SplineSet
140 1677 m 1,0,-1
 457 1677 l 1,1,-1
 627 999 l 1,2,3
 653 891 653 891 667.5 792.5 c 128,-1,4
 682 694 682 694 696 609 c 1,5,-1
 704 609 l 1,6,7
 718 694 718 694 732.5 792.5 c 128,-1,8
 747 891 747 891 773 999 c 2,9,-1
 941 1677 l 1,10,-1
 1258 1677 l 1,11,-1
 1258 0 l 1,12,-1
 1029 0 l 1,13,-1
 1029 555 l 2,14,15
 1029 682 1029 682 1031.5 799.5 c 128,-1,16
 1034 917 1034 917 1038 1016 c 128,-1,17
 1042 1115 1042 1115 1046.5 1191 c 128,-1,18
 1051 1267 1051 1267 1055 1311 c 1,19,-1
 1037 1311 l 1,20,-1
 781 216 l 1,21,-1
 619 216 l 1,22,-1
 361 1311 l 1,23,-1
 343 1311 l 1,24,25
 347 1267 347 1267 351.5 1191 c 128,-1,26
 356 1115 356 1115 360 1016 c 128,-1,27
 364 917 364 917 366.5 799.5 c 128,-1,28
 369 682 369 682 369 555 c 2,29,-1
 369 0 l 1,30,-1
 140 0 l 1,31,-1
 140 1677 l 1,0,-1
EndSplineSet
EndChar

StartChar: K
Encoding: 75 75 44
Width: 1001
Flags: W
LayerCount: 2
Fore
SplineSet
140 1677 m 1,0,-1
 396 1677 l 1,1,-1
 396 945 l 1,2,-1
 404 945 l 1,3,-1
 697 1677 l 1,4,-1
 952 1677 l 1,5,-1
 626 891 l 1,6,-1
 989 0 l 1,7,-1
 715 0 l 1,8,-1
 404 798 l 1,9,-1
 396 798 l 1,10,-1
 396 0 l 1,11,-1
 140 0 l 1,12,-1
 140 1677 l 1,0,-1
EndSplineSet
EndChar

StartChar: F
Encoding: 70 70 45
Width: 808
Flags: W
LayerCount: 2
Fore
SplineSet
140 1677 m 1,0,-1
 786 1677 l 1,1,-1
 786 1469 l 1,2,-1
 396 1469 l 1,3,-1
 396 975 l 1,4,-1
 702 975 l 1,5,-1
 702 775 l 1,6,-1
 396 775 l 1,7,-1
 396 0 l 1,8,-1
 140 0 l 1,9,-1
 140 1677 l 1,0,-1
EndSplineSet
EndChar

StartChar: P
Encoding: 80 80 46
Width: 985
Flags: W
LayerCount: 2
Fore
SplineSet
140 1677 m 1,0,-1
 396 1677 l 2,1,2
 445 1677 445 1677 502.5 1673 c 128,-1,3
 560 1669 560 1669 618 1652.5 c 128,-1,4
 676 1636 676 1636 730 1603 c 128,-1,5
 784 1570 784 1570 826 1512 c 128,-1,6
 868 1454 868 1454 893 1367.5 c 128,-1,7
 918 1281 918 1281 918 1158 c 2,8,-1
 918 1099 l 2,9,10
 918 965 918 965 895 869 c 128,-1,11
 872 773 872 773 833 707.5 c 128,-1,12
 794 642 794 642 743.5 603 c 128,-1,13
 693 564 693 564 637.5 543.5 c 128,-1,14
 582 523 582 523 526 516.5 c 128,-1,15
 470 510 470 510 421 510 c 2,16,-1
 396 510 l 1,17,-1
 396 0 l 1,18,-1
 140 0 l 1,19,-1
 140 1677 l 1,0,-1
409 697 m 2,20,21
 479 697 479 697 526 717 c 128,-1,22
 573 737 573 737 601.5 779.5 c 128,-1,23
 630 822 630 822 642 889.5 c 128,-1,24
 654 957 654 957 654 1052 c 2,25,-1
 654 1203 l 2,26,27
 654 1278 654 1278 643 1332.5 c 128,-1,28
 632 1387 632 1387 604 1422.5 c 128,-1,29
 576 1458 576 1458 529 1475.5 c 128,-1,30
 482 1493 482 1493 409 1493 c 2,31,-1
 396 1493 l 1,32,-1
 396 697 l 1,33,-1
 409 697 l 2,20,21
EndSplineSet
EndChar

StartChar: R
Encoding: 82 82 47
Width: 1050
Flags: W
LayerCount: 2
Fore
SplineSet
140 1677 m 1,0,-1
 418 1677 l 2,1,2
 467 1677 467 1677 524.5 1673 c 128,-1,3
 582 1669 582 1669 640 1654 c 128,-1,4
 698 1639 698 1639 752.5 1608.5 c 128,-1,5
 807 1578 807 1578 849 1525 c 128,-1,6
 891 1472 891 1472 916 1392 c 128,-1,7
 941 1312 941 1312 941 1198 c 2,8,-1
 941 1156 l 2,9,10
 941 964 941 964 882 844 c 128,-1,11
 823 724 823 724 711 671 c 1,12,-1
 990 0 l 1,13,-1
 717 0 l 1,14,-1
 484 627 l 1,15,-1
 396 627 l 1,16,-1
 396 0 l 1,17,-1
 140 0 l 1,18,-1
 140 1677 l 1,0,-1
430 811 m 2,19,20
 500 811 500 811 547.5 826 c 128,-1,21
 595 841 595 841 623.5 875.5 c 128,-1,22
 652 910 652 910 664 967.5 c 128,-1,23
 676 1025 676 1025 676 1109 c 2,24,-1
 676 1243 l 2,25,26
 676 1308 676 1308 665 1355 c 128,-1,27
 654 1402 654 1402 626 1433 c 128,-1,28
 598 1464 598 1464 550.5 1478.5 c 128,-1,29
 503 1493 503 1493 430 1493 c 2,30,-1
 396 1493 l 1,31,-1
 396 811 l 1,32,-1
 430 811 l 2,19,20
EndSplineSet
EndChar

StartChar: U
Encoding: 85 85 48
Width: 1084
Flags: W
LayerCount: 2
Fore
SplineSet
140 1677 m 1,0,-1
 396 1677 l 1,1,-1
 396 456 l 2,2,3
 396 378 396 378 404.5 326 c 128,-1,4
 413 274 413 274 431 242.5 c 128,-1,5
 449 211 449 211 476.5 198 c 128,-1,6
 504 185 504 185 542 185 c 256,7,8
 580 185 580 185 607.5 198 c 128,-1,9
 635 211 635 211 653 242.5 c 128,-1,10
 671 274 671 274 679.5 326 c 128,-1,11
 688 378 688 378 688 456 c 2,12,-1
 688 1677 l 1,13,-1
 944 1677 l 1,14,-1
 944 515 l 2,15,16
 944 392 944 392 924.5 304.5 c 128,-1,17
 905 217 905 217 872.5 158.5 c 128,-1,18
 840 100 840 100 798 65.5 c 128,-1,19
 756 31 756 31 711.5 13 c 128,-1,20
 667 -5 667 -5 623 -10 c 128,-1,21
 579 -15 579 -15 542 -15 c 256,22,23
 505 -15 505 -15 461 -10 c 128,-1,24
 417 -5 417 -5 372.5 13 c 128,-1,25
 328 31 328 31 286 65.5 c 128,-1,26
 244 100 244 100 211.5 158.5 c 128,-1,27
 179 217 179 217 159.5 304.5 c 128,-1,28
 140 392 140 392 140 515 c 2,29,-1
 140 1677 l 1,0,-1
EndSplineSet
EndChar

StartChar: B
Encoding: 66 66 49
Width: 1029
Flags: W
LayerCount: 2
Fore
SplineSet
140 1677 m 1,0,-1
 399 1677 l 2,1,2
 456 1677 456 1677 517.5 1673.5 c 128,-1,3
 579 1670 579 1670 637.5 1657 c 128,-1,4
 696 1644 696 1644 748.5 1619 c 128,-1,5
 801 1594 801 1594 840.5 1552 c 128,-1,6
 880 1510 880 1510 903 1447.5 c 128,-1,7
 926 1385 926 1385 926 1297 c 2,8,-1
 926 1216 l 2,9,10
 926 1149 926 1149 908.5 1094.5 c 128,-1,11
 891 1040 891 1040 862 998.5 c 128,-1,12
 833 957 833 957 796 928.5 c 128,-1,13
 759 900 759 900 720 886 c 1,14,-1
 720 878 l 1,15,16
 777 855 777 855 821 823.5 c 128,-1,17
 865 792 865 792 894 748.5 c 128,-1,18
 923 705 923 705 938 647 c 128,-1,19
 953 589 953 589 953 514 c 2,20,-1
 953 429 l 2,21,22
 953 338 953 338 932.5 270.5 c 128,-1,23
 912 203 912 203 876 155.5 c 128,-1,24
 840 108 840 108 789 77.5 c 128,-1,25
 738 47 738 47 678 30 c 128,-1,26
 618 13 618 13 549.5 6.5 c 128,-1,27
 481 0 481 0 409 0 c 2,28,-1
 140 0 l 1,29,-1
 140 1677 l 1,0,-1
441 960 m 2,30,31
 492 960 492 960 534 972 c 128,-1,32
 576 984 576 984 605 1010.5 c 128,-1,33
 634 1037 634 1037 650 1078 c 128,-1,34
 666 1119 666 1119 666 1178 c 2,35,-1
 666 1247 l 2,36,37
 666 1305 666 1305 654.5 1350.5 c 128,-1,38
 643 1396 643 1396 617 1427.5 c 128,-1,39
 591 1459 591 1459 547.5 1475 c 128,-1,40
 504 1491 504 1491 441 1491 c 2,41,-1
 396 1491 l 1,42,-1
 396 960 l 1,43,-1
 441 960 l 2,30,31
464 186 m 2,44,45
 515 186 515 186 557 198 c 128,-1,46
 599 210 599 210 628 236.5 c 128,-1,47
 657 263 657 263 673 304 c 128,-1,48
 689 345 689 345 689 404 c 2,49,-1
 689 536 l 2,50,51
 689 594 689 594 677.5 639.5 c 128,-1,52
 666 685 666 685 640 716.5 c 128,-1,53
 614 748 614 748 570.5 764 c 128,-1,54
 527 780 527 780 464 780 c 2,55,-1
 396 780 l 1,56,-1
 396 186 l 1,57,-1
 464 186 l 2,44,45
EndSplineSet
EndChar

StartChar: l
Encoding: 108 108 50
Width: 506
Flags: W
LayerCount: 2
Fore
SplineSet
128 1760 m 1,0,-1
 378 1760 l 1,1,-1
 378 0 l 1,2,-1
 128 0 l 1,3,-1
 128 1760 l 1,0,-1
EndSplineSet
EndChar

StartChar: g
Encoding: 103 103 51
Width: 974
Flags: W
LayerCount: 2
Fore
SplineSet
330 -91 m 1,0,1
 330 -177 330 -177 362.5 -213 c 128,-1,2
 395 -249 395 -249 463 -249 c 0,3,4
 491 -249 491 -249 517 -241 c 128,-1,5
 543 -233 543 -233 562.5 -211 c 128,-1,6
 582 -189 582 -189 593.5 -150.5 c 128,-1,7
 605 -112 605 -112 605 -51 c 2,8,-1
 605 159 l 1,9,10
 571 117 571 117 518.5 86.5 c 128,-1,11
 466 56 466 56 387 56 c 0,12,13
 364 56 364 56 333.5 60.5 c 128,-1,14
 303 65 303 65 270.5 80.5 c 128,-1,15
 238 96 238 96 206 127.5 c 128,-1,16
 174 159 174 159 149.5 212.5 c 128,-1,17
 125 266 125 266 109.5 345.5 c 128,-1,18
 94 425 94 425 94 538 c 2,19,-1
 94 888 l 2,20,21
 94 996 94 996 109.5 1072 c 128,-1,22
 125 1148 125 1148 149.5 1199 c 128,-1,23
 174 1250 174 1250 206 1279.5 c 128,-1,24
 238 1309 238 1309 271.5 1324 c 128,-1,25
 305 1339 305 1339 336.5 1343 c 128,-1,26
 368 1347 368 1347 393 1347 c 0,27,28
 443 1347 443 1347 481 1334 c 128,-1,29
 519 1321 519 1321 547 1300.5 c 128,-1,30
 575 1280 575 1280 595 1254 c 128,-1,31
 615 1228 615 1228 629 1202 c 1,32,-1
 651 1333 l 1,33,-1
 847 1333 l 1,34,-1
 847 54 l 2,35,36
 847 -57 847 -57 825 -147 c 128,-1,37
 803 -237 803 -237 756.5 -300 c 128,-1,38
 710 -363 710 -363 638 -397 c 128,-1,39
 566 -431 566 -431 466 -431 c 0,40,41
 398 -431 398 -431 339 -419.5 c 128,-1,42
 280 -408 280 -408 235.5 -378.5 c 128,-1,43
 191 -349 191 -349 165.5 -298 c 128,-1,44
 140 -247 140 -247 140 -168 c 0,45,46
 140 -154 140 -154 143 -134 c 128,-1,47
 146 -114 146 -114 152 -91 c 1,48,-1
 330 -91 l 1,0,1
472 256 m 0,49,50
 497 256 497 256 516.5 264 c 128,-1,51
 536 272 536 272 551 285.5 c 128,-1,52
 566 299 566 299 577.5 316 c 128,-1,53
 589 333 589 333 597 352 c 1,54,-1
 597 1051 l 1,55,56
 578 1083 578 1083 547 1107 c 128,-1,57
 516 1131 516 1131 471 1131 c 0,58,59
 444 1131 444 1131 421 1121 c 128,-1,60
 398 1111 398 1111 381.5 1084 c 128,-1,61
 365 1057 365 1057 355.5 1010 c 128,-1,62
 346 963 346 963 346 888 c 2,63,-1
 346 499 l 2,64,65
 346 424 346 424 355.5 377 c 128,-1,66
 365 330 365 330 381.5 303 c 128,-1,67
 398 276 398 276 421.5 266 c 128,-1,68
 445 256 445 256 472 256 c 0,49,50
EndSplineSet
EndChar

StartChar: dotlessi
Encoding: 305 305 52
Width: 506
Flags: W
LayerCount: 2
Fore
SplineSet
128 1332 m 1,0,-1
 378 1332 l 1,1,-1
 378 0 l 1,2,-1
 128 0 l 1,3,-1
 128 1332 l 1,0,-1
EndSplineSet
EndChar

StartChar: bracketleft
Encoding: 91 91 53
Width: 758
Flags: W
LayerCount: 2
Fore
SplineSet
133 1909 m 1,0,-1
 633 1909 l 1,1,-1
 633 1722 l 1,2,-1
 352 1722 l 1,3,-1
 352 -64 l 1,4,-1
 633 -64 l 1,5,-1
 633 -249 l 1,6,-1
 133 -249 l 1,7,-1
 133 1909 l 1,0,-1
EndSplineSet
EndChar

StartChar: dotlessj
Encoding: 567 567 54
Width: 506
Flags: W
LayerCount: 2
Fore
SplineSet
128 1332 m 1,0,-1
 378 1332 l 1,1,-1
 378 -82 l 2,2,3
 378 -190 378 -190 355.5 -258 c 128,-1,4
 333 -326 333 -326 296 -364.5 c 128,-1,5
 259 -403 259 -403 210 -416.5 c 128,-1,6
 161 -430 161 -430 109 -430 c 0,7,8
 79 -430 79 -430 48.5 -425 c 128,-1,9
 18 -420 18 -420 -12 -406 c 1,10,-1
 -12 -264 l 1,11,12
 -4 -265 -4 -265 4 -265.5 c 128,-1,13
 12 -266 12 -266 20 -266 c 0,14,15
 42 -266 42 -266 61.5 -258.5 c 128,-1,16
 81 -251 81 -251 96 -233 c 128,-1,17
 111 -215 111 -215 119.5 -185.5 c 128,-1,18
 128 -156 128 -156 128 -112 c 2,19,-1
 128 1332 l 1,0,-1
EndSplineSet
EndChar

StartChar: r
Encoding: 114 114 55
Width: 774
Flags: W
LayerCount: 2
Fore
SplineSet
128 1332 m 1,0,-1
 311 1332 l 1,1,-1
 333 1197 l 1,2,3
 374 1272 374 1272 428 1310 c 128,-1,4
 482 1348 482 1348 539 1348 c 0,5,6
 647 1348 647 1348 698.5 1283.5 c 128,-1,7
 750 1219 750 1219 750 1088 c 0,8,9
 750 1071 750 1071 747.5 1048.5 c 128,-1,10
 745 1026 745 1026 740.5 1001.5 c 128,-1,11
 736 977 736 977 729.5 952.5 c 128,-1,12
 723 928 723 928 716 907 c 1,13,-1
 542 907 l 1,14,-1
 542 992 l 2,15,16
 542 1032 542 1032 535.5 1058.5 c 128,-1,17
 529 1085 529 1085 517 1100.5 c 128,-1,18
 505 1116 505 1116 489 1122.5 c 128,-1,19
 473 1129 473 1129 455 1129 c 0,20,21
 432 1129 432 1129 412 1115 c 128,-1,22
 392 1101 392 1101 378 1076 c 1,23,-1
 378 0 l 1,24,-1
 128 0 l 1,25,-1
 128 1332 l 1,0,-1
EndSplineSet
EndChar

StartChar: C
Encoding: 67 67 56
Width: 919
Flags: W
LayerCount: 2
Fore
SplineSet
527 -15 m 0,0,1
 486 -15 486 -15 438.5 -8.5 c 128,-1,2
 391 -2 391 -2 344.5 18.5 c 128,-1,3
 298 39 298 39 255 76.5 c 128,-1,4
 212 114 212 114 178.5 176.5 c 128,-1,5
 145 239 145 239 125.5 329.5 c 128,-1,6
 106 420 106 420 106 546 c 2,7,-1
 106 1140 l 2,8,9
 106 1267 106 1267 126 1357 c 128,-1,10
 146 1447 146 1447 179.5 1508 c 128,-1,11
 213 1569 213 1569 256.5 1605.5 c 128,-1,12
 300 1642 300 1642 347 1661.5 c 128,-1,13
 394 1681 394 1681 440 1686.5 c 128,-1,14
 486 1692 486 1692 526 1692 c 0,15,16
 623 1692 623 1692 690 1664 c 128,-1,17
 757 1636 757 1636 798 1587.5 c 128,-1,18
 839 1539 839 1539 857 1474.5 c 128,-1,19
 875 1410 875 1410 875 1337 c 0,20,21
 875 1283 875 1283 867 1237 c 128,-1,22
 859 1191 859 1191 848 1137 c 1,23,-1
 650 1137 l 1,24,-1
 650 1217 l 2,25,26
 650 1355 650 1355 616.5 1423.5 c 128,-1,27
 583 1492 583 1492 519 1492 c 0,28,29
 484 1492 484 1492 457 1478.5 c 128,-1,30
 430 1465 430 1465 411.5 1432 c 128,-1,31
 393 1399 393 1399 383.5 1345 c 128,-1,32
 374 1291 374 1291 374 1210 c 2,33,-1
 374 455 l 2,34,35
 374 377 374 377 383.5 325 c 128,-1,36
 393 273 393 273 411.5 242 c 128,-1,37
 430 211 430 211 459 198 c 128,-1,38
 488 185 488 185 527 185 c 0,39,40
 554 185 554 185 577 196 c 128,-1,41
 600 207 600 207 616.5 230.5 c 128,-1,42
 633 254 633 254 642.5 290.5 c 128,-1,43
 652 327 652 327 652 377 c 2,44,-1
 652 537 l 1,45,-1
 877 537 l 1,46,-1
 877 381 l 2,47,48
 877 179 877 179 786.5 82.5 c 128,-1,49
 696 -14 696 -14 527 -15 c 0,0,1
EndSplineSet
EndChar

StartChar: G
Encoding: 71 71 57
Width: 1019
Flags: W
LayerCount: 2
Fore
SplineSet
484 -16 m 0,0,1
 454 -16 454 -16 414.5 -9.5 c 128,-1,2
 375 -3 375 -3 333 17.5 c 128,-1,3
 291 38 291 38 250 76 c 128,-1,4
 209 114 209 114 177 176.5 c 128,-1,5
 145 239 145 239 125.5 329.5 c 128,-1,6
 106 420 106 420 106 546 c 2,7,-1
 106 1140 l 2,8,9
 106 1267 106 1267 126.5 1357 c 128,-1,10
 147 1447 147 1447 181.5 1508 c 128,-1,11
 216 1569 216 1569 260.5 1605.5 c 128,-1,12
 305 1642 305 1642 352.5 1661.5 c 128,-1,13
 400 1681 400 1681 447.5 1686.5 c 128,-1,14
 495 1692 495 1692 536 1692 c 0,15,16
 639 1692 639 1692 709.5 1664 c 128,-1,17
 780 1636 780 1636 823.5 1587.5 c 128,-1,18
 867 1539 867 1539 886 1474.5 c 128,-1,19
 905 1410 905 1410 905 1337 c 0,20,21
 905 1283 905 1283 897 1237 c 128,-1,22
 889 1191 889 1191 878 1137 c 1,23,-1
 680 1137 l 1,24,-1
 680 1217 l 2,25,26
 680 1355 680 1355 644 1423.5 c 128,-1,27
 608 1492 608 1492 529 1492 c 0,28,29
 488 1492 488 1492 459 1478.5 c 128,-1,30
 430 1465 430 1465 411 1432 c 128,-1,31
 392 1399 392 1399 383 1345 c 128,-1,32
 374 1291 374 1291 374 1210 c 2,33,-1
 374 455 l 2,34,35
 374 377 374 377 383.5 325 c 128,-1,36
 393 273 393 273 412 241.5 c 128,-1,37
 431 210 431 210 460.5 197 c 128,-1,38
 490 184 490 184 531 184 c 0,39,40
 574 184 574 184 604.5 205.5 c 128,-1,41
 635 227 635 227 654.5 265.5 c 128,-1,42
 674 304 674 304 683.5 356 c 128,-1,43
 693 408 693 408 693 469 c 2,44,-1
 693 683 l 1,45,-1
 561 683 l 1,46,-1
 561 850 l 1,47,-1
 939 850 l 1,48,-1
 939 0 l 1,49,-1
 772 0 l 1,50,-1
 745 161 l 1,51,52
 727 126 727 126 700.5 94 c 128,-1,53
 674 62 674 62 640.5 37.5 c 128,-1,54
 607 13 607 13 567 -1.5 c 128,-1,55
 527 -16 527 -16 484 -16 c 0,0,1
EndSplineSet
EndChar

StartChar: Oslash
Encoding: 216 216 58
Width: 1019
Flags: W
LayerCount: 2
Fore
SplineSet
238 91 m 1,0,1
 207 123 207 123 181 167.5 c 128,-1,2
 155 212 155 212 136 273 c 128,-1,3
 117 334 117 334 106 412 c 128,-1,4
 95 490 95 490 95 589 c 2,5,-1
 95 1098 l 2,6,7
 95 1231 95 1231 115 1326.5 c 128,-1,8
 135 1422 135 1422 168 1488 c 128,-1,9
 201 1554 201 1554 244 1594.5 c 128,-1,10
 287 1635 287 1635 333.5 1656.5 c 128,-1,11
 380 1678 380 1678 426 1685 c 128,-1,12
 472 1692 472 1692 512 1692 c 0,13,14
 548 1692 548 1692 590.5 1686 c 128,-1,15
 633 1680 633 1680 677 1662 c 1,16,-1
 723 1826 l 1,17,-1
 847 1826 l 1,18,-1
 781 1591 l 1,19,20
 811 1560 811 1560 837.5 1516 c 128,-1,21
 864 1472 864 1472 883 1412 c 128,-1,22
 902 1352 902 1352 913 1274.5 c 128,-1,23
 924 1197 924 1197 924 1098 c 2,24,-1
 924 589 l 2,25,26
 924 458 924 458 903.5 362.5 c 128,-1,27
 883 267 883 267 849.5 199.5 c 128,-1,28
 816 132 816 132 773 90.5 c 128,-1,29
 730 49 730 49 684 25.5 c 128,-1,30
 638 2 638 2 593.5 -6.5 c 128,-1,31
 549 -15 549 -15 512 -15 c 0,32,33
 473 -15 473 -15 429.5 -8.5 c 128,-1,34
 386 -2 386 -2 342 18 c 1,35,-1
 291 -166 l 1,36,-1
 167 -166 l 1,37,-1
 238 91 l 1,0,1
616 1444 m 1,38,39
 598 1473 598 1473 572.5 1486.5 c 128,-1,40
 547 1500 547 1500 512 1500 c 0,41,42
 473 1500 473 1500 444.5 1484 c 128,-1,43
 416 1468 416 1468 397.5 1432 c 128,-1,44
 379 1396 379 1396 370 1339.5 c 128,-1,45
 361 1283 361 1283 361 1202 c 2,46,-1
 361 529 l 1,47,-1
 616 1444 l 1,38,39
404 237 m 1,48,49
 422 208 422 208 449 195.5 c 128,-1,50
 476 183 476 183 512 183 c 0,51,52
 550 183 550 183 577.5 198.5 c 128,-1,53
 605 214 605 214 623 248 c 128,-1,54
 641 282 641 282 650 336.5 c 128,-1,55
 659 391 659 391 659 469 c 2,56,-1
 659 1152 l 1,57,-1
 404 237 l 1,48,49
EndSplineSet
EndChar

StartChar: oslash
Encoding: 248 248 59
Width: 939
Flags: W
LayerCount: 2
Fore
SplineSet
197 105 m 1,0,1
 174 137 174 137 155 180.5 c 128,-1,2
 136 224 136 224 122.5 281 c 128,-1,3
 109 338 109 338 101.5 410 c 128,-1,4
 94 482 94 482 94 572 c 2,5,-1
 94 781 l 2,6,7
 94 910 94 910 110.5 1002.5 c 128,-1,8
 127 1095 127 1095 154.5 1158 c 128,-1,9
 182 1221 182 1221 219.5 1258.5 c 128,-1,10
 257 1296 257 1296 299 1316 c 128,-1,11
 341 1336 341 1336 385.5 1342 c 128,-1,12
 430 1348 430 1348 472 1348 c 0,13,14
 517 1348 517 1348 564 1341 c 128,-1,15
 611 1334 611 1334 656 1310 c 1,16,-1
 728 1498 l 1,17,-1
 844 1498 l 1,18,-1
 743 1233 l 1,19,20
 765 1202 765 1202 784 1160.5 c 128,-1,21
 803 1119 803 1119 816.5 1063.5 c 128,-1,22
 830 1008 830 1008 837.5 938 c 128,-1,23
 845 868 845 868 845 781 c 2,24,-1
 845 572 l 2,25,26
 845 443 845 443 828.5 349 c 128,-1,27
 812 255 812 255 783.5 189.5 c 128,-1,28
 755 124 755 124 717.5 84 c 128,-1,29
 680 44 680 44 638.5 22 c 128,-1,30
 597 0 597 0 553.5 -7.5 c 128,-1,31
 510 -15 510 -15 471 -15 c 0,32,33
 423 -15 423 -15 375.5 -7 c 128,-1,34
 328 1 328 1 283 27 c 1,35,-1
 210 -166 l 1,36,-1
 94 -166 l 1,37,-1
 197 105 l 1,0,1
579 1106 m 1,38,39
 562 1143 562 1143 536 1159.5 c 128,-1,40
 510 1176 510 1176 473 1176 c 0,41,42
 432 1176 432 1176 404 1158 c 128,-1,43
 376 1140 376 1140 359 1099.5 c 128,-1,44
 342 1059 342 1059 334 993 c 128,-1,45
 326 927 326 927 326 831 c 2,46,-1
 326 499 l 1,47,-1
 326 444 l 1,48,-1
 579 1106 l 1,38,39
360 228 m 1,49,50
 378 190 378 190 405.5 173.5 c 128,-1,51
 433 157 433 157 473 157 c 0,52,53
 512 157 512 157 538.5 174.5 c 128,-1,54
 565 192 565 192 581.5 232 c 128,-1,55
 598 272 598 272 605.5 337.5 c 128,-1,56
 613 403 613 403 613 499 c 2,57,-1
 613 831 l 2,58,59
 613 846 613 846 613 861 c 128,-1,60
 613 876 613 876 612 890 c 1,61,-1
 360 228 l 1,49,50
EndSplineSet
EndChar

StartChar: kgreenlandic
Encoding: 312 312 60
Width: 940
Flags: W
LayerCount: 2
Fore
SplineSet
128 1332 m 1,0,-1
 378 1332 l 1,1,-1
 378 707 l 1,2,-1
 386 707 l 1,3,-1
 659 1332 l 1,4,-1
 900 1332 l 1,5,-1
 608 694 l 1,6,-1
 929 0 l 1,7,-1
 675 0 l 1,8,-1
 386 621 l 1,9,-1
 378 621 l 1,10,-1
 378 0 l 1,11,-1
 128 0 l 1,12,-1
 128 1332 l 1,0,-1
EndSplineSet
EndChar

StartChar: thorn
Encoding: 254 254 61
Width: 975
Flags: W
LayerCount: 2
Fore
SplineSet
378 -57 m 1,0,-1
 378 -431 l 1,1,-1
 128 -431 l 1,2,-1
 128 1760 l 1,3,-1
 378 1760 l 1,4,-1
 378 1405 l 1,5,-1
 370 1229 l 1,6,-1
 371 1228 l 1,7,8
 388 1251 388 1251 410.5 1272.5 c 128,-1,9
 433 1294 433 1294 461 1310.5 c 128,-1,10
 489 1327 489 1327 523 1337 c 128,-1,11
 557 1347 557 1347 598 1347 c 0,12,13
 619 1347 619 1347 648 1343 c 128,-1,14
 677 1339 677 1339 708.5 1323.5 c 128,-1,15
 740 1308 740 1308 771 1277.5 c 128,-1,16
 802 1247 802 1247 826.5 1194 c 128,-1,17
 851 1141 851 1141 866 1061.5 c 128,-1,18
 881 982 881 982 881 869 c 2,19,-1
 881 466 l 2,20,21
 881 353 881 353 865.5 273.5 c 128,-1,22
 850 194 850 194 825.5 140.5 c 128,-1,23
 801 87 801 87 769 55.5 c 128,-1,24
 737 24 737 24 704.5 8.5 c 128,-1,25
 672 -7 672 -7 641.5 -11.5 c 128,-1,26
 611 -16 611 -16 588 -16 c 0,27,28
 550 -16 550 -16 515.5 -6 c 128,-1,29
 481 4 481 4 452.5 19.5 c 128,-1,30
 424 35 424 35 401.5 54.5 c 128,-1,31
 379 74 379 74 364 92 c 1,32,-1
 378 -57 l 1,0,-1
378 288 m 1,33,34
 386 269 386 269 397.5 252 c 128,-1,35
 409 235 409 235 424 221.5 c 128,-1,36
 439 208 439 208 458.5 200 c 128,-1,37
 478 192 478 192 503 192 c 0,38,39
 530 192 530 192 553.5 202 c 128,-1,40
 577 212 577 212 593.5 239 c 128,-1,41
 610 266 610 266 619.5 313 c 128,-1,42
 629 360 629 360 629 435 c 2,43,-1
 629 896 l 2,44,45
 629 971 629 971 619.5 1018 c 128,-1,46
 610 1065 610 1065 593.5 1092 c 128,-1,47
 577 1119 577 1119 554 1129 c 128,-1,48
 531 1139 531 1139 504 1139 c 0,49,50
 458 1139 458 1139 427.5 1115 c 128,-1,51
 397 1091 397 1091 378 1059 c 1,52,-1
 378 288 l 1,33,34
EndSplineSet
EndChar

StartChar: ae
Encoding: 230 230 62
Width: 1339
Flags: W
LayerCount: 2
Fore
SplineSet
52 305 m 0,0,1
 52 387 52 387 72 451 c 128,-1,2
 92 515 92 515 132 567 c 128,-1,3
 172 619 172 619 231 660.5 c 128,-1,4
 290 702 290 702 368 740 c 0,5,6
 406 758 406 758 449.5 777 c 128,-1,7
 493 796 493 796 530 810 c 1,8,-1
 530 971 l 2,9,10
 530 1008 530 1008 528 1043 c 128,-1,11
 526 1078 526 1078 516 1105 c 128,-1,12
 506 1132 506 1132 484.5 1148 c 128,-1,13
 463 1164 463 1164 423 1164 c 0,14,15
 396 1164 396 1164 371 1154 c 128,-1,16
 346 1144 346 1144 326.5 1121 c 128,-1,17
 307 1098 307 1098 295.5 1059.5 c 128,-1,18
 284 1021 284 1021 284 964 c 2,19,-1
 284 910 l 1,20,-1
 93 910 l 1,21,22
 84 948 84 948 79.5 979 c 128,-1,23
 75 1010 75 1010 75 1042 c 0,24,25
 75 1117 75 1117 101.5 1174 c 128,-1,26
 128 1231 128 1231 175 1269.5 c 128,-1,27
 222 1308 222 1308 287.5 1327.5 c 128,-1,28
 353 1347 353 1347 431 1347 c 0,29,30
 478 1347 478 1347 516.5 1338.5 c 128,-1,31
 555 1330 555 1330 586 1315 c 128,-1,32
 617 1300 617 1300 641.5 1280 c 128,-1,33
 666 1260 666 1260 684 1238 c 1,34,-1
 692 1238 l 1,35,36
 718 1269 718 1269 748.5 1290 c 128,-1,37
 779 1311 779 1311 811 1324 c 128,-1,38
 843 1337 843 1337 874.5 1342.5 c 128,-1,39
 906 1348 906 1348 935 1348 c 0,40,41
 996 1348 996 1348 1054 1328 c 128,-1,42
 1112 1308 1112 1308 1157 1260 c 128,-1,43
 1202 1212 1202 1212 1229.5 1132 c 128,-1,44
 1257 1052 1257 1052 1257 931 c 0,45,46
 1257 891 1257 891 1254.5 849.5 c 128,-1,47
 1252 808 1252 808 1248 767.5 c 128,-1,48
 1244 727 1244 727 1237.5 689.5 c 128,-1,49
 1231 652 1231 652 1224 620 c 1,50,-1
 780 620 l 1,51,-1
 780 485 l 2,52,53
 780 398 780 398 786.5 337.5 c 128,-1,54
 793 277 793 277 809.5 239 c 128,-1,55
 826 201 826 201 854 184 c 128,-1,56
 882 167 882 167 925 167 c 0,57,58
 948 167 948 167 970 176 c 128,-1,59
 992 185 992 185 1009 206.5 c 128,-1,60
 1026 228 1026 228 1036.5 263 c 128,-1,61
 1047 298 1047 298 1047 351 c 2,62,-1
 1047 409 l 1,63,-1
 1250 409 l 1,64,-1
 1250 348 l 2,65,66
 1250 159 1250 159 1165 71.5 c 128,-1,67
 1080 -16 1080 -16 917 -16 c 0,68,69
 823 -16 823 -16 753 26 c 128,-1,70
 683 68 683 68 641 147 c 1,71,-1
 633 147 l 1,72,73
 582 70 582 70 506.5 27 c 128,-1,74
 431 -16 431 -16 347 -16 c 0,75,76
 267 -16 267 -16 211 10 c 128,-1,77
 155 36 155 36 120 80 c 128,-1,78
 85 124 85 124 68.5 182 c 128,-1,79
 52 240 52 240 52 305 c 0,0,1
1025 785 m 1,80,81
 1026 795 1026 795 1027 812.5 c 128,-1,82
 1028 830 1028 830 1028.5 849 c 128,-1,83
 1029 868 1029 868 1029 886.5 c 128,-1,84
 1029 905 1029 905 1029 918 c 0,85,86
 1029 1050 1029 1050 1000 1107.5 c 128,-1,87
 971 1165 971 1165 909 1166 c 0,88,89
 876 1166 876 1166 851.5 1151 c 128,-1,90
 827 1136 827 1136 811.5 1100.5 c 128,-1,91
 796 1065 796 1065 788 1007 c 128,-1,92
 780 949 780 949 780 863 c 2,93,-1
 780 785 l 1,94,-1
 1025 785 l 1,80,81
295 343 m 0,95,96
 295 305 295 305 302.5 273.5 c 128,-1,97
 310 242 310 242 325.5 219 c 128,-1,98
 341 196 341 196 365.5 183.5 c 128,-1,99
 390 171 390 171 424 171 c 0,100,101
 455 171 455 171 482 187 c 128,-1,102
 509 203 509 203 530 227 c 1,103,-1
 530 647 l 1,104,105
 510 639 510 639 488.5 628 c 128,-1,106
 467 617 467 617 439 600 c 0,107,108
 412 584 412 584 386.5 560 c 128,-1,109
 361 536 361 536 340.5 504.5 c 128,-1,110
 320 473 320 473 307.5 432.5 c 128,-1,111
 295 392 295 392 295 343 c 0,95,96
EndSplineSet
EndChar

StartChar: oe
Encoding: 339 339 63
Width: 1404
Flags: W
LayerCount: 2
Fore
SplineSet
471 -15 m 0,0,1
 428 -15 428 -15 383 -8 c 128,-1,2
 338 -1 338 -1 296 20.5 c 128,-1,3
 254 42 254 42 217 81.5 c 128,-1,4
 180 121 180 121 153 186 c 128,-1,5
 126 251 126 251 110 345.5 c 128,-1,6
 94 440 94 440 94 572 c 2,7,-1
 94 781 l 2,8,9
 94 910 94 910 110.5 1002.5 c 128,-1,10
 127 1095 127 1095 154.5 1158 c 128,-1,11
 182 1221 182 1221 219.5 1258.5 c 128,-1,12
 257 1296 257 1296 299 1316 c 128,-1,13
 341 1336 341 1336 385.5 1342 c 128,-1,14
 430 1348 430 1348 472 1348 c 0,15,16
 502 1348 502 1348 535 1343.5 c 128,-1,17
 568 1339 568 1339 600.5 1327 c 128,-1,18
 633 1315 633 1315 664.5 1293.5 c 128,-1,19
 696 1272 696 1272 723 1238 c 1,20,-1
 731 1238 l 1,21,22
 762 1272 762 1272 795.5 1293.5 c 128,-1,23
 829 1315 829 1315 863 1327 c 128,-1,24
 897 1339 897 1339 929 1343.5 c 128,-1,25
 961 1348 961 1348 989 1348 c 0,26,27
 1056 1348 1056 1348 1116.5 1328 c 128,-1,28
 1177 1308 1177 1308 1223 1260 c 128,-1,29
 1269 1212 1269 1212 1295.5 1132 c 128,-1,30
 1322 1052 1322 1052 1322 931 c 0,31,32
 1322 891 1322 891 1319.5 849.5 c 128,-1,33
 1317 808 1317 808 1313 767.5 c 128,-1,34
 1309 727 1309 727 1302.5 689.5 c 128,-1,35
 1296 652 1296 652 1289 620 c 1,36,-1
 845 620 l 1,37,-1
 845 485 l 2,38,39
 845 398 845 398 851.5 337.5 c 128,-1,40
 858 277 858 277 874.5 239 c 128,-1,41
 891 201 891 201 919 184 c 128,-1,42
 947 167 947 167 990 167 c 0,43,44
 1013 167 1013 167 1035 176 c 128,-1,45
 1057 185 1057 185 1074 206.5 c 128,-1,46
 1091 228 1091 228 1101.5 263 c 128,-1,47
 1112 298 1112 298 1112 351 c 2,48,-1
 1112 409 l 1,49,-1
 1315 409 l 1,50,-1
 1315 348 l 2,51,52
 1315 159 1315 159 1231 72 c 128,-1,53
 1147 -15 1147 -15 967 -15 c 0,54,55
 892 -15 892 -15 829 15.5 c 128,-1,56
 766 46 766 46 723 95 c 1,57,-1
 715 95 l 1,58,59
 689 63 689 63 658.5 42 c 128,-1,60
 628 21 628 21 596.5 8 c 128,-1,61
 565 -5 565 -5 533 -10 c 128,-1,62
 501 -15 501 -15 471 -15 c 0,0,1
1090 785 m 1,63,64
 1091 795 1091 795 1092 812.5 c 128,-1,65
 1093 830 1093 830 1093.5 849 c 128,-1,66
 1094 868 1094 868 1094 886.5 c 128,-1,67
 1094 905 1094 905 1094 918 c 0,68,69
 1094 1050 1094 1050 1065 1107.5 c 128,-1,70
 1036 1165 1036 1165 974 1166 c 0,71,72
 941 1166 941 1166 916.5 1151 c 128,-1,73
 892 1136 892 1136 876.5 1100.5 c 128,-1,74
 861 1065 861 1065 853 1007 c 128,-1,75
 845 949 845 949 845 863 c 2,76,-1
 845 785 l 1,77,-1
 1090 785 l 1,63,64
473 167 m 0,78,79
 507 167 507 167 530 184 c 128,-1,80
 553 201 553 201 567 240 c 128,-1,81
 581 279 581 279 587 342.5 c 128,-1,82
 593 406 593 406 593 499 c 2,83,-1
 593 831 l 2,84,85
 593 924 593 924 587 988 c 128,-1,86
 581 1052 581 1052 567 1091.5 c 128,-1,87
 553 1131 553 1131 530 1148.5 c 128,-1,88
 507 1166 507 1166 473 1166 c 0,89,90
 438 1166 438 1166 413.5 1148.5 c 128,-1,91
 389 1131 389 1131 374 1091.5 c 128,-1,92
 359 1052 359 1052 352.5 988 c 128,-1,93
 346 924 346 924 346 831 c 2,94,-1
 346 499 l 2,95,96
 346 406 346 406 352.5 342.5 c 128,-1,97
 359 279 359 279 374 240 c 128,-1,98
 389 201 389 201 413.5 184 c 128,-1,99
 438 167 438 167 473 167 c 0,78,79
EndSplineSet
EndChar

StartChar: hbar
Encoding: 295 295 64
Width: 1001
Flags: W
LayerCount: 2
Fore
SplineSet
127 1463 m 1,0,-1
 4 1463 l 1,1,-1
 4 1630 l 1,2,-1
 127 1630 l 1,3,-1
 127 1760 l 1,4,-1
 377 1760 l 1,5,-1
 377 1630 l 1,6,-1
 596 1630 l 1,7,-1
 596 1463 l 1,8,-1
 377 1463 l 1,9,-1
 377 1447 l 1,10,-1
 364 1218 l 1,11,12
 420 1292 420 1292 488.5 1320 c 128,-1,13
 557 1348 557 1348 626 1348 c 0,14,15
 745 1348 745 1348 810 1266.5 c 128,-1,16
 875 1185 875 1185 875 1021 c 2,17,-1
 875 0 l 1,18,-1
 625 0 l 1,19,-1
 625 980 l 2,20,21
 625 1068 625 1068 597.5 1102.5 c 128,-1,22
 570 1137 570 1137 516 1137 c 0,23,24
 478 1137 478 1137 442 1115.5 c 128,-1,25
 406 1094 406 1094 377 1056 c 1,26,-1
 377 0 l 1,27,-1
 127 0 l 1,28,-1
 127 1463 l 1,0,-1
EndSplineSet
EndChar

StartChar: ldot
Encoding: 320 320 65
Width: 750
Flags: W
LayerCount: 2
Fore
SplineSet
128 1760 m 1,0,-1
 378 1760 l 1,1,-1
 378 0 l 1,2,-1
 128 0 l 1,3,-1
 128 1760 l 1,0,-1
608 692 m 0,4,5
 547 692 547 692 508.5 737 c 128,-1,6
 470 782 470 782 470 865 c 0,7,8
 470 911 470 911 480 943 c 128,-1,9
 490 975 490 975 508.5 995 c 128,-1,10
 527 1015 527 1015 552.5 1024 c 128,-1,11
 578 1033 578 1033 609 1033 c 0,12,13
 673 1033 673 1033 706.5 992.5 c 128,-1,14
 740 952 740 952 740 865 c 0,15,16
 740 784 740 784 706.5 738 c 128,-1,17
 673 692 673 692 608 692 c 0,4,5
EndSplineSet
EndChar

StartChar: lslash
Encoding: 322 322 66
Width: 591
Flags: W
LayerCount: 2
Fore
SplineSet
168 613 m 1,0,-1
 79 524 l 1,1,-1
 -38 642 l 1,2,-1
 168 848 l 1,3,-1
 168 1760 l 1,4,-1
 418 1760 l 1,5,-1
 418 1099 l 1,6,-1
 512 1194 l 1,7,-1
 629 1075 l 1,8,-1
 418 863 l 1,9,-1
 418 0 l 1,10,-1
 168 0 l 1,11,-1
 168 613 l 1,0,-1
EndSplineSet
EndChar

StartChar: Thorn
Encoding: 222 222 67
Width: 985
Flags: W
LayerCount: 2
Fore
SplineSet
140 1677 m 1,0,-1
 394 1677 l 1,1,-1
 394 1427 l 1,2,-1
 405 1427 l 2,3,4
 453 1427 453 1427 509.5 1423 c 128,-1,5
 566 1419 566 1419 623 1402.5 c 128,-1,6
 680 1386 680 1386 733 1353 c 128,-1,7
 786 1320 786 1320 827.5 1262 c 128,-1,8
 869 1204 869 1204 893.5 1117.5 c 128,-1,9
 918 1031 918 1031 918 908 c 2,10,-1
 918 849 l 2,11,12
 918 714 918 714 895 618.5 c 128,-1,13
 872 523 872 523 833 457.5 c 128,-1,14
 794 392 794 392 743.5 353 c 128,-1,15
 693 314 693 314 637.5 293.5 c 128,-1,16
 582 273 582 273 526 266.5 c 128,-1,17
 470 260 470 260 421 260 c 2,18,-1
 396 260 l 1,19,-1
 396 0 l 1,20,-1
 140 0 l 1,21,-1
 140 1677 l 1,0,-1
409 447 m 2,22,23
 479 447 479 447 526 467 c 128,-1,24
 573 487 573 487 601.5 529.5 c 128,-1,25
 630 572 630 572 642 639.5 c 128,-1,26
 654 707 654 707 654 802 c 2,27,-1
 654 953 l 2,28,29
 654 1028 654 1028 643 1082.5 c 128,-1,30
 632 1137 632 1137 604 1172.5 c 128,-1,31
 576 1208 576 1208 529 1225.5 c 128,-1,32
 482 1243 482 1243 409 1243 c 2,33,-1
 396 1243 l 1,34,-1
 396 447 l 1,35,-1
 409 447 l 2,22,23
EndSplineSet
EndChar

StartChar: OE
Encoding: 338 338 68
Width: 1347
Flags: W
LayerCount: 2
Fore
SplineSet
97 1058 m 2,0,1
 97 1206 97 1206 123 1309 c 128,-1,2
 149 1412 149 1412 192.5 1481 c 128,-1,3
 236 1550 236 1550 292 1589 c 128,-1,4
 348 1628 348 1628 407.5 1647.5 c 128,-1,5
 467 1667 467 1667 525.5 1672 c 128,-1,6
 584 1677 584 1677 633 1677 c 2,7,-1
 1280 1677 l 1,8,-1
 1280 1476 l 1,9,-1
 890 1476 l 1,10,-1
 890 977 l 1,11,-1
 1194 977 l 1,12,-1
 1194 757 l 1,13,-1
 890 757 l 1,14,-1
 890 201 l 1,15,-1
 1280 201 l 1,16,-1
 1280 0 l 1,17,-1
 633 0 l 2,18,19
 584 0 584 0 525.5 4.5 c 128,-1,20
 467 9 467 9 407.5 28.5 c 128,-1,21
 348 48 348 48 292 87.5 c 128,-1,22
 236 127 236 127 192.5 195.5 c 128,-1,23
 149 264 149 264 123 367.5 c 128,-1,24
 97 471 97 471 97 619 c 2,25,-1
 97 1058 l 2,0,1
636 184 m 1,26,-1
 636 1493 l 1,27,-1
 620 1493 l 2,28,29
 547 1493 547 1493 497.5 1469.5 c 128,-1,30
 448 1446 448 1446 418 1398 c 128,-1,31
 388 1350 388 1350 375 1276.5 c 128,-1,32
 362 1203 362 1203 362 1103 c 2,33,-1
 362 572 l 2,34,35
 362 469 362 469 376 395.5 c 128,-1,36
 390 322 390 322 421 275 c 128,-1,37
 452 228 452 228 501 206 c 128,-1,38
 550 184 550 184 620 184 c 2,39,-1
 636 184 l 1,26,-1
EndSplineSet
EndChar

StartChar: AE
Encoding: 198 198 69
Width: 1244
Flags: W
LayerCount: 2
Fore
SplineSet
434 1677 m 1,0,-1
 1223 1677 l 1,1,-1
 1223 1476 l 1,2,-1
 833 1476 l 1,3,-1
 833 977 l 1,4,-1
 1137 977 l 1,5,-1
 1137 757 l 1,6,-1
 833 757 l 1,7,-1
 833 201 l 1,8,-1
 1223 201 l 1,9,-1
 1223 0 l 1,10,-1
 579 0 l 1,11,-1
 579 300 l 1,12,-1
 327 300 l 1,13,-1
 264 0 l 1,14,-1
 6 0 l 1,15,-1
 434 1677 l 1,0,-1
579 483 m 1,16,-1
 579 1332 l 1,17,-1
 543 1332 l 1,18,-1
 365 483 l 1,19,-1
 579 483 l 1,16,-1
EndSplineSet
EndChar

StartChar: plus
Encoding: 43 43 71
Width: 817
Flags: W
LayerCount: 2
Fore
SplineSet
309 672 m 1,0,-1
 40 672 l 1,1,-1
 40 862 l 1,2,-1
 309 862 l 1,3,-1
 309 1167 l 1,4,-1
 506 1167 l 1,5,-1
 506 862 l 1,6,-1
 777 862 l 1,7,-1
 777 672 l 1,8,-1
 506 672 l 1,9,-1
 506 358 l 1,10,-1
 309 358 l 1,11,-1
 309 672 l 1,0,-1
EndSplineSet
EndChar

StartChar: divide
Encoding: 247 247 72
Width: 817
Flags: W
LayerCount: 2
Fore
SplineSet
409 1014 m 0,0,1
 349 1014 349 1014 312 1055 c 128,-1,2
 275 1096 275 1096 275 1172 c 0,3,4
 275 1256 275 1256 312 1290.5 c 128,-1,5
 349 1325 349 1325 410 1325 c 0,6,7
 472 1325 472 1325 504.5 1287.5 c 128,-1,8
 537 1250 537 1250 537 1172 c 0,9,10
 537 1098 537 1098 504.5 1056 c 128,-1,11
 472 1014 472 1014 409 1014 c 0,0,1
40 862 m 1,12,-1
 777 862 l 1,13,-1
 777 672 l 1,14,-1
 40 672 l 1,15,-1
 40 862 l 1,12,-1
274 367 m 0,16,17
 274 451 274 451 311 485.5 c 128,-1,18
 348 520 348 520 409 520 c 0,19,20
 471 520 471 520 503.5 482.5 c 128,-1,21
 536 445 536 445 536 367 c 0,22,23
 536 293 536 293 503.5 251 c 128,-1,24
 471 209 471 209 408 209 c 0,25,26
 348 209 348 209 311 250 c 128,-1,27
 274 291 274 291 274 367 c 0,16,17
EndSplineSet
EndChar

StartChar: plusminus
Encoding: 177 177 73
Width: 897
Flags: W
LayerCount: 2
Fore
SplineSet
349 836 m 1,0,-1
 80 836 l 1,1,-1
 80 1026 l 1,2,-1
 349 1026 l 1,3,-1
 349 1331 l 1,4,-1
 546 1331 l 1,5,-1
 546 1026 l 1,6,-1
 817 1026 l 1,7,-1
 817 836 l 1,8,-1
 546 836 l 1,9,-1
 546 522 l 1,10,-1
 349 522 l 1,11,-1
 349 836 l 1,0,-1
80 354 m 1,12,-1
 817 354 l 1,13,-1
 817 164 l 1,14,-1
 80 164 l 1,15,-1
 80 354 l 1,12,-1
EndSplineSet
EndChar

StartChar: hyphen
Encoding: 45 45 74
Width: 977
Flags: W
LayerCount: 2
Fore
SplineSet
120 863 m 1,0,-1
 857 863 l 1,1,-1
 857 666 l 1,2,-1
 120 666 l 1,3,-1
 120 863 l 1,0,-1
EndSplineSet
EndChar

StartChar: endash
Encoding: 8211 8211 75
Width: 1357
Flags: W
LayerCount: 2
Fore
SplineSet
120 863 m 1,0,-1
 1237 863 l 1,1,-1
 1237 666 l 1,2,-1
 120 666 l 1,3,-1
 120 863 l 1,0,-1
EndSplineSet
EndChar

StartChar: emdash
Encoding: 8212 8212 76
Width: 1621
Flags: W
LayerCount: 2
Fore
SplineSet
120 863 m 1,0,-1
 1501 863 l 1,1,-1
 1501 666 l 1,2,-1
 120 666 l 1,3,-1
 120 863 l 1,0,-1
EndSplineSet
EndChar

StartChar: comma
Encoding: 44 44 79
Width: 497
Flags: W
LayerCount: 2
Fore
SplineSet
149 340 m 1,0,-1
 403 340 l 1,1,-1
 258 -318 l 1,2,-1
 50 -318 l 1,3,-1
 149 340 l 1,0,-1
EndSplineSet
EndChar

StartChar: bullet
Encoding: 8226 8226 80
Width: 694
Flags: W
LayerCount: 2
Fore
SplineSet
342 517 m 0,0,1
 288 517 288 517 247.5 536 c 128,-1,2
 207 555 207 555 180.5 586.5 c 128,-1,3
 154 618 154 618 141 659 c 128,-1,4
 128 700 128 700 128 743 c 0,5,6
 128 789 128 789 140.5 832 c 128,-1,7
 153 875 153 875 179.5 908 c 128,-1,8
 206 941 206 941 246 960.5 c 128,-1,9
 286 980 286 980 342 980 c 256,10,11
 398 980 398 980 440 960.5 c 128,-1,12
 482 941 482 941 510 908.5 c 128,-1,13
 538 876 538 876 552 833 c 128,-1,14
 566 790 566 790 566 743 c 0,15,16
 566 702 566 702 552 661.5 c 128,-1,17
 538 621 538 621 510 589 c 128,-1,18
 482 557 482 557 440 537 c 128,-1,19
 398 517 398 517 342 517 c 0,0,1
EndSplineSet
EndChar

StartChar: one
Encoding: 49 49 82
Width: 812
Flags: W
LayerCount: 2
Fore
SplineSet
146 192 m 1,0,-1
 342 192 l 1,1,-1
 342 1336 l 1,2,-1
 132 1152 l 1,3,-1
 21 1280 l 1,4,-1
 405 1677 l 1,5,-1
 596 1677 l 1,6,-1
 595 1675 l 1,7,-1
 596 1676 l 1,8,-1
 596 192 l 1,9,-1
 791 192 l 1,10,-1
 791 0 l 1,11,-1
 146 0 l 1,12,-1
 146 192 l 1,0,-1
EndSplineSet
EndChar

StartChar: zero
Encoding: 48 48 83
Width: 1033
Flags: W
LayerCount: 2
Fore
SplineSet
102 1198 m 2,0,1
 102 1308 102 1308 122 1388 c 128,-1,2
 142 1468 142 1468 175.5 1522.5 c 128,-1,3
 209 1577 209 1577 252.5 1610.5 c 128,-1,4
 296 1644 296 1644 342 1662 c 128,-1,5
 388 1680 388 1680 434 1686 c 128,-1,6
 480 1692 480 1692 519 1692 c 0,7,8
 556 1692 556 1692 601 1686.5 c 128,-1,9
 646 1681 646 1681 691.5 1664 c 128,-1,10
 737 1647 737 1647 780.5 1614 c 128,-1,11
 824 1581 824 1581 857.5 1526 c 128,-1,12
 891 1471 891 1471 911 1390.5 c 128,-1,13
 931 1310 931 1310 931 1198 c 2,14,-1
 931 489 l 2,15,16
 931 379 931 379 910.5 299 c 128,-1,17
 890 219 890 219 856 163 c 128,-1,18
 822 107 822 107 779 72.5 c 128,-1,19
 736 38 736 38 690 18.5 c 128,-1,20
 644 -1 644 -1 599.5 -8 c 128,-1,21
 555 -15 555 -15 519 -15 c 0,22,23
 479 -15 479 -15 432.5 -8.5 c 128,-1,24
 386 -2 386 -2 339.5 17.5 c 128,-1,25
 293 37 293 37 250 71.5 c 128,-1,26
 207 106 207 106 174 162 c 128,-1,27
 141 218 141 218 121.5 298.5 c 128,-1,28
 102 379 102 379 102 489 c 2,29,-1
 102 1198 l 2,0,1
364 382 m 2,30,31
 364 278 364 278 402.5 231 c 128,-1,32
 441 184 441 184 519 184 c 0,33,34
 595 184 595 184 632.5 231 c 128,-1,35
 670 278 670 278 670 382 c 2,36,-1
 670 1290 l 2,37,38
 670 1400 670 1400 632.5 1450 c 128,-1,39
 595 1500 595 1500 519 1500 c 0,40,41
 441 1500 441 1500 402.5 1450 c 128,-1,42
 364 1400 364 1400 364 1290 c 2,43,-1
 364 382 l 2,30,31
EndSplineSet
EndChar

StartChar: eth
Encoding: 240 240 84
Width: 953
Flags: W
LayerCount: 2
Fore
SplineSet
482 -15 m 0,0,1
 438 -15 438 -15 392.5 -8.5 c 128,-1,2
 347 -2 347 -2 303.5 19 c 128,-1,3
 260 40 260 40 221.5 79.5 c 128,-1,4
 183 119 183 119 154 185 c 128,-1,5
 125 251 125 251 108 347.5 c 128,-1,6
 91 444 91 444 91 580 c 2,7,-1
 91 773 l 2,8,9
 91 906 91 906 109.5 1000.5 c 128,-1,10
 128 1095 128 1095 158.5 1159 c 128,-1,11
 189 1223 189 1223 227 1260.5 c 128,-1,12
 265 1298 265 1298 303.5 1317.5 c 128,-1,13
 342 1337 342 1337 378.5 1342.5 c 128,-1,14
 415 1348 415 1348 441 1348 c 0,15,16
 466 1348 466 1348 482.5 1346.5 c 128,-1,17
 499 1345 499 1345 510 1342.5 c 128,-1,18
 521 1340 521 1340 529 1336.5 c 128,-1,19
 537 1333 537 1333 546 1329 c 1,20,21
 505 1482 505 1482 420 1587 c 1,22,-1
 318 1467 l 1,23,-1
 192 1570 l 1,24,-1
 294 1695 l 1,25,26
 254 1718 254 1718 209.5 1730 c 128,-1,27
 165 1742 165 1742 117 1743 c 1,28,-1
 117 1905 l 1,29,30
 198 1905 198 1905 269.5 1885.5 c 128,-1,31
 341 1866 341 1866 405 1830 c 1,32,-1
 515 1964 l 1,33,-1
 646 1851 l 1,34,-1
 540 1727 l 1,35,36
 619 1649 619 1649 679.5 1543.5 c 128,-1,37
 740 1438 740 1438 780.5 1313.5 c 128,-1,38
 821 1189 821 1189 841.5 1050.5 c 128,-1,39
 862 912 862 912 862 767 c 2,40,-1
 862 580 l 2,41,42
 862 447 862 447 845 351 c 128,-1,43
 828 255 828 255 799 188.5 c 128,-1,44
 770 122 770 122 731.5 82 c 128,-1,45
 693 42 693 42 651 20.5 c 128,-1,46
 609 -1 609 -1 565 -8 c 128,-1,47
 521 -15 521 -15 482 -15 c 0,0,1
484 145 m 0,48,49
 521 145 521 145 543.5 162 c 128,-1,50
 566 179 566 179 578.5 218 c 128,-1,51
 591 257 591 257 595 320 c 128,-1,52
 599 383 599 383 599 475 c 2,53,-1
 599 857 l 2,54,55
 599 949 599 949 595 1012.5 c 128,-1,56
 591 1076 591 1076 578.5 1115.5 c 128,-1,57
 566 1155 566 1155 543.5 1172.5 c 128,-1,58
 521 1190 521 1190 484 1190 c 0,59,60
 446 1190 446 1190 422 1172.5 c 128,-1,61
 398 1155 398 1155 384.5 1115.5 c 128,-1,62
 371 1076 371 1076 366.5 1012.5 c 128,-1,63
 362 949 362 949 362 857 c 2,64,-1
 362 475 l 2,65,66
 362 383 362 383 366.5 320 c 128,-1,67
 371 257 371 257 384.5 218 c 128,-1,68
 398 179 398 179 422 162 c 128,-1,69
 446 145 446 145 484 145 c 0,48,49
EndSplineSet
EndChar

StartChar: paragraph
Encoding: 182 182 85
Width: 1080
Flags: W
LayerCount: 2
Fore
SplineSet
671 1677 m 1,0,-1
 927 1677 l 1,1,-1
 927 0 l 1,2,-1
 671 0 l 1,3,-1
 671 1677 l 1,0,-1
471 510 m 2,4,5
 438 510 438 510 397 514.5 c 128,-1,6
 356 519 356 519 314 537.5 c 128,-1,7
 272 556 272 556 232 593.5 c 128,-1,8
 192 631 192 631 161.5 696.5 c 128,-1,9
 131 762 131 762 112 860 c 128,-1,10
 93 958 93 958 93 1099 c 2,11,-1
 93 1158 l 2,12,13
 93 1281 93 1281 112 1367.5 c 128,-1,14
 131 1454 131 1454 161.5 1512 c 128,-1,15
 192 1570 192 1570 232 1603 c 128,-1,16
 272 1636 272 1636 314 1652.5 c 128,-1,17
 356 1669 356 1669 397 1673 c 128,-1,18
 438 1677 438 1677 471 1677 c 2,19,-1
 502 1677 l 1,20,-1
 502 510 l 1,21,-1
 471 510 l 2,4,5
EndSplineSet
EndChar

StartChar: section
Encoding: 167 167 86
Width: 1042
Flags: W
LayerCount: 2
Fore
SplineSet
159 -44 m 0,0,1
 159 10 159 10 165.5 56 c 128,-1,2
 172 102 172 102 186 156 c 1,3,-1
 364 156 l 1,4,-1
 364 50 l 2,5,6
 364 -9 364 -9 375.5 -52.5 c 128,-1,7
 387 -96 387 -96 407 -124 c 128,-1,8
 427 -152 427 -152 453 -165.5 c 128,-1,9
 479 -179 479 -179 509 -179 c 0,10,11
 542 -179 542 -179 567.5 -167 c 128,-1,12
 593 -155 593 -155 610.5 -134 c 128,-1,13
 628 -113 628 -113 636.5 -84.5 c 128,-1,14
 645 -56 645 -56 645 -24 c 0,15,16
 645 6 645 6 636 32.5 c 128,-1,17
 627 59 627 59 607.5 88.5 c 128,-1,18
 588 118 588 118 557.5 152 c 128,-1,19
 527 186 527 186 483 230 c 2,20,-1
 328 386 l 2,21,22
 280 434 280 434 243 477.5 c 128,-1,23
 206 521 206 521 181 565.5 c 128,-1,24
 156 610 156 610 143 659.5 c 128,-1,25
 130 709 130 709 130 769 c 0,26,27
 130 876 130 876 179 957.5 c 128,-1,28
 228 1039 228 1039 313 1089 c 1,29,30
 273 1133 273 1133 244 1175 c 128,-1,31
 215 1217 215 1217 196 1259.5 c 128,-1,32
 177 1302 177 1302 168 1346.5 c 128,-1,33
 159 1391 159 1391 159 1441 c 0,34,35
 159 1514 159 1514 184.5 1576 c 128,-1,36
 210 1638 210 1638 258 1682 c 128,-1,37
 306 1726 306 1726 375.5 1751 c 128,-1,38
 445 1776 445 1776 533 1776 c 0,39,40
 627 1776 627 1776 693.5 1748 c 128,-1,41
 760 1720 760 1720 802 1675 c 128,-1,42
 844 1630 844 1630 863.5 1573.5 c 128,-1,43
 883 1517 883 1517 883 1461 c 0,44,45
 883 1407 883 1407 876.5 1361 c 128,-1,46
 870 1315 870 1315 856 1261 c 1,47,-1
 678 1261 l 1,48,-1
 678 1367 l 2,49,50
 678 1426 678 1426 666.5 1469.5 c 128,-1,51
 655 1513 655 1513 635 1541 c 128,-1,52
 615 1569 615 1569 589 1582.5 c 128,-1,53
 563 1596 563 1596 533 1596 c 0,54,55
 500 1596 500 1596 474.5 1584 c 128,-1,56
 449 1572 449 1572 431.5 1551 c 128,-1,57
 414 1530 414 1530 405.5 1501.5 c 128,-1,58
 397 1473 397 1473 397 1441 c 0,59,60
 397 1411 397 1411 406 1384 c 128,-1,61
 415 1357 415 1357 434.5 1328 c 128,-1,62
 454 1299 454 1299 484.5 1265 c 128,-1,63
 515 1231 515 1231 559 1187 c 2,64,-1
 714 1031 l 2,65,66
 762 983 762 983 799 939.5 c 128,-1,67
 836 896 836 896 861 851.5 c 128,-1,68
 886 807 886 807 899 757.5 c 128,-1,69
 912 708 912 708 912 648 c 0,70,71
 912 541 912 541 862.5 459 c 128,-1,72
 813 377 813 377 728 327 c 1,73,74
 768 283 768 283 797 241.5 c 128,-1,75
 826 200 826 200 845 157.5 c 128,-1,76
 864 115 864 115 873.5 70.5 c 128,-1,77
 883 26 883 26 883 -24 c 0,78,79
 883 -98 883 -98 857.5 -159.5 c 128,-1,80
 832 -221 832 -221 784 -265 c 128,-1,81
 736 -309 736 -309 666.5 -334 c 128,-1,82
 597 -359 597 -359 509 -359 c 0,83,84
 415 -359 415 -359 348.5 -331 c 128,-1,85
 282 -303 282 -303 240 -258 c 128,-1,86
 198 -213 198 -213 178.5 -156.5 c 128,-1,87
 159 -100 159 -100 159 -44 c 0,0,1
608 448 m 1,88,89
 644 477 644 477 666.5 520.5 c 128,-1,90
 689 564 689 564 689 617 c 0,91,92
 689 646 689 646 681.5 673.5 c 128,-1,93
 674 701 674 701 658.5 728.5 c 128,-1,94
 643 756 643 756 618 785.5 c 128,-1,95
 593 815 593 815 558 849 c 2,96,-1
 433 968 l 1,97,98
 398 939 398 939 375.5 896 c 128,-1,99
 353 853 353 853 353 800 c 0,100,101
 353 771 353 771 360 743.5 c 128,-1,102
 367 716 367 716 383 688.5 c 128,-1,103
 399 661 399 661 424 631.5 c 128,-1,104
 449 602 449 602 484 568 c 2,105,-1
 608 448 l 1,88,89
EndSplineSet
EndChar

StartChar: equal
Encoding: 61 61 87
Width: 897
Flags: W
LayerCount: 2
Fore
SplineSet
80 1060 m 1,0,-1
 817 1060 l 1,1,-1
 817 870 l 1,2,-1
 80 870 l 1,3,-1
 80 1060 l 1,0,-1
80 664 m 1,4,-1
 817 664 l 1,5,-1
 817 474 l 1,6,-1
 80 474 l 1,7,-1
 80 664 l 1,4,-1
EndSplineSet
EndChar

StartChar: bar
Encoding: 124 124 88
Width: 697
Flags: W
LayerCount: 2
Fore
SplineSet
240 1832 m 1,0,-1
 457 1832 l 1,1,-1
 457 -317 l 1,2,-1
 240 -317 l 1,3,-1
 240 1832 l 1,0,-1
EndSplineSet
EndChar

StartChar: brokenbar
Encoding: 166 166 89
Width: 697
Flags: W
LayerCount: 2
Fore
SplineSet
240 1832 m 1,0,-1
 457 1832 l 1,1,-1
 457 914 l 1,2,-1
 240 914 l 1,3,-1
 240 1832 l 1,0,-1
240 664 m 1,4,-1
 457 664 l 1,5,-1
 457 -317 l 1,6,-1
 240 -317 l 1,7,-1
 240 664 l 1,4,-1
EndSplineSet
EndChar

StartChar: slash
Encoding: 47 47 90
Width: 537
Flags: W
LayerCount: 2
Fore
SplineSet
315 1832 m 1,0,-1
 532 1832 l 1,1,-1
 222 -317 l 1,2,-1
 5 -317 l 1,3,-1
 315 1832 l 1,0,-1
EndSplineSet
EndChar

StartChar: backslash
Encoding: 92 92 91
Width: 537
Flags: W
LayerCount: 2
Fore
SplineSet
5 1832 m 1,0,-1
 222 1832 l 1,1,-1
 532 -317 l 1,2,-1
 315 -317 l 1,3,-1
 5 1832 l 1,0,-1
EndSplineSet
EndChar

StartChar: numbersign
Encoding: 35 35 92
Width: 1087
Flags: W
LayerCount: 2
Fore
SplineSet
230 374 m 1,0,-1
 90 374 l 1,1,-1
 90 551 l 1,2,-1
 243 551 l 1,3,-1
 261 787 l 1,4,-1
 130 787 l 1,5,-1
 130 964 l 1,6,-1
 274 964 l 1,7,-1
 302 1331 l 1,8,-1
 479 1331 l 1,9,-1
 451 964 l 1,10,-1
 687 964 l 1,11,-1
 715 1331 l 1,12,-1
 892 1331 l 1,13,-1
 864 964 l 1,14,-1
 997 964 l 1,15,-1
 997 787 l 1,16,-1
 851 787 l 1,17,-1
 833 551 l 1,18,-1
 957 551 l 1,19,-1
 957 374 l 1,20,-1
 820 374 l 1,21,-1
 792 0 l 1,22,-1
 615 0 l 1,23,-1
 643 374 l 1,24,-1
 407 374 l 1,25,-1
 379 0 l 1,26,-1
 202 0 l 1,27,-1
 230 374 l 1,0,-1
656 551 m 1,28,-1
 674 787 l 1,29,-1
 438 787 l 1,30,-1
 420 551 l 1,31,-1
 656 551 l 1,28,-1
EndSplineSet
EndChar

StartChar: cent
Encoding: 162 162 93
Width: 880
Flags: W
LayerCount: 2
Fore
SplineSet
386 -8 m 1,0,1
 318 5 318 5 265.5 43.5 c 128,-1,2
 213 82 213 82 178 149.5 c 128,-1,3
 143 217 143 217 125 315 c 128,-1,4
 107 413 107 413 107 545 c 2,5,-1
 107 797 l 2,6,7
 107 945 107 945 132 1043 c 128,-1,8
 157 1141 157 1141 197 1202.5 c 128,-1,9
 237 1264 237 1264 286.5 1294.5 c 128,-1,10
 336 1325 336 1325 385 1337 c 1,11,-1
 385 1578 l 1,12,-1
 569 1578 l 1,13,-1
 569 1341 l 1,14,15
 675 1323 675 1323 738 1252.5 c 128,-1,16
 801 1182 801 1182 801 1055 c 0,17,18
 801 1009 801 1009 796.5 975.5 c 128,-1,19
 792 942 792 942 784 910 c 1,20,-1
 594 910 l 1,21,-1
 594 952 l 2,22,23
 594 1052 594 1052 566 1109 c 128,-1,24
 538 1166 538 1166 482 1166 c 0,25,26
 452 1166 452 1166 429 1151 c 128,-1,27
 406 1136 406 1136 390.5 1100.5 c 128,-1,28
 375 1065 375 1065 367 1007 c 128,-1,29
 359 949 359 949 359 863 c 2,30,-1
 359 485 l 2,31,32
 359 398 359 398 365.5 337.5 c 128,-1,33
 372 277 372 277 387 239 c 128,-1,34
 402 201 402 201 426.5 184 c 128,-1,35
 451 167 451 167 488 167 c 0,36,37
 507 167 507 167 526 176 c 128,-1,38
 545 185 545 185 560 206.5 c 128,-1,39
 575 228 575 228 584.5 263 c 128,-1,40
 594 298 594 298 594 351 c 2,41,-1
 594 409 l 1,42,-1
 797 409 l 1,43,-1
 797 348 l 2,44,45
 797 191 797 191 741 105.5 c 128,-1,46
 685 20 685 20 570 -4 c 1,47,-1
 570 -251 l 1,48,-1
 386 -251 l 1,49,-1
 386 -8 l 1,50,-1
 386 -8 l 1,0,1
EndSplineSet
EndChar

StartChar: dollar
Encoding: 36 36 94
Width: 986
Flags: W
LayerCount: 2
Fore
SplineSet
91 339 m 0,0,1
 91 393 91 393 97.5 439.5 c 128,-1,2
 104 486 104 486 117 539 c 1,3,-1
 316 539 l 1,4,-1
 316 464 l 2,5,6
 316 327 316 327 357.5 255.5 c 128,-1,7
 399 184 399 184 485 184 c 0,8,9
 631 184 631 184 631 328 c 0,10,11
 631 356 631 356 625.5 385 c 128,-1,12
 620 414 620 414 606.5 446 c 128,-1,13
 593 478 593 478 570 515 c 128,-1,14
 547 552 547 552 512 597 c 2,15,-1
 251 930 l 2,16,17
 180 1020 180 1020 141 1110.5 c 128,-1,18
 102 1201 102 1201 102 1312 c 0,19,20
 102 1386 102 1386 123 1449 c 128,-1,21
 144 1512 144 1512 184.5 1561 c 128,-1,22
 225 1610 225 1610 283 1642 c 128,-1,23
 341 1674 341 1674 415 1686 c 1,24,-1
 415 1910 l 1,25,-1
 599 1910 l 1,26,-1
 599 1683 l 1,27,28
 680 1669 680 1669 735 1634 c 128,-1,29
 790 1599 790 1599 823.5 1551.5 c 128,-1,30
 857 1504 857 1504 871.5 1448 c 128,-1,31
 886 1392 886 1392 886 1337 c 0,32,33
 886 1283 886 1283 878 1237 c 128,-1,34
 870 1191 870 1191 859 1137 c 1,35,-1
 661 1137 l 1,36,-1
 661 1217 l 2,37,38
 661 1350 661 1350 618.5 1421 c 128,-1,39
 576 1492 576 1492 496 1492 c 0,40,41
 424 1492 424 1492 387 1452.5 c 128,-1,42
 350 1413 350 1413 350 1347 c 0,43,44
 350 1290 350 1290 373 1242.5 c 128,-1,45
 396 1195 396 1195 434 1147 c 2,46,-1
 726 772 l 2,47,48
 767 719 767 719 798.5 670 c 128,-1,49
 830 621 830 621 851 571.5 c 128,-1,50
 872 522 872 522 883 470.5 c 128,-1,51
 894 419 894 419 894 362 c 0,52,53
 894 288 894 288 873.5 227 c 128,-1,54
 853 166 853 166 815 119 c 128,-1,55
 777 72 777 72 722.5 40.5 c 128,-1,56
 668 9 668 9 600 -5 c 1,57,-1
 600 -251 l 1,58,-1
 416 -251 l 1,59,-1
 416 -12 l 1,60,61
 322 -3 322 -3 259.5 30 c 128,-1,62
 197 63 197 63 159.5 111 c 128,-1,63
 122 159 122 159 106.5 218 c 128,-1,64
 91 277 91 277 91 339 c 0,0,1
EndSplineSet
EndChar

StartChar: bracketright
Encoding: 93 93 95
Width: 758
Flags: W
LayerCount: 2
Fore
SplineSet
406 -64 m 1,0,-1
 406 1722 l 1,1,-1
 125 1722 l 1,2,-1
 125 1909 l 1,3,-1
 625 1909 l 1,4,-1
 625 -249 l 1,5,-1
 125 -249 l 1,6,-1
 125 -64 l 1,7,-1
 406 -64 l 1,0,-1
EndSplineSet
EndChar

StartChar: parenright
Encoding: 41 41 96
Width: 758
Flags: W
LayerCount: 2
Fore
SplineSet
115 -81 m 1,0,1
 184 -81 184 -81 238 -35 c 128,-1,2
 292 11 292 11 329.5 106 c 128,-1,3
 367 201 367 201 386.5 346.5 c 128,-1,4
 406 492 406 492 406 692 c 2,5,-1
 406 975 l 2,6,7
 406 1352 406 1352 332 1546 c 128,-1,8
 258 1740 258 1740 115 1740 c 1,9,-1
 115 1909 l 1,10,11
 151 1909 151 1909 192 1905.5 c 128,-1,12
 233 1902 233 1902 276.5 1888 c 128,-1,13
 320 1874 320 1874 363 1846 c 128,-1,14
 406 1818 406 1818 445.5 1770.5 c 128,-1,15
 485 1723 485 1723 519.5 1651.5 c 128,-1,16
 554 1580 554 1580 579 1478 c 128,-1,17
 604 1376 604 1376 618.5 1240.5 c 128,-1,18
 633 1105 633 1105 633 930 c 2,19,-1
 633 739 l 2,20,21
 633 560 633 560 618.5 423 c 128,-1,22
 604 286 604 286 579 183 c 128,-1,23
 554 80 554 80 519.5 8 c 128,-1,24
 485 -64 485 -64 445.5 -112.5 c 128,-1,25
 406 -161 406 -161 363 -188.5 c 128,-1,26
 320 -216 320 -216 276.5 -229.5 c 128,-1,27
 233 -243 233 -243 192 -246.5 c 128,-1,28
 151 -250 151 -250 115 -250 c 1,29,-1
 115 -81 l 1,30,-1
 115 -81 l 1,0,1
EndSplineSet
EndChar

StartChar: parenleft
Encoding: 40 40 97
Width: 758
Flags: W
LayerCount: 2
Fore
SplineSet
643 -250 m 1,0,1
 607 -250 607 -250 566 -246.5 c 128,-1,2
 525 -243 525 -243 481.5 -229.5 c 128,-1,3
 438 -216 438 -216 395 -188.5 c 128,-1,4
 352 -161 352 -161 312.5 -112.5 c 128,-1,5
 273 -64 273 -64 238.5 8 c 128,-1,6
 204 80 204 80 179 183 c 128,-1,7
 154 286 154 286 139.5 423 c 128,-1,8
 125 560 125 560 125 739 c 2,9,-1
 125 930 l 2,10,11
 125 1105 125 1105 139.5 1240.5 c 128,-1,12
 154 1376 154 1376 179 1478 c 128,-1,13
 204 1580 204 1580 238.5 1651.5 c 128,-1,14
 273 1723 273 1723 312.5 1770.5 c 128,-1,15
 352 1818 352 1818 395 1846 c 128,-1,16
 438 1874 438 1874 481.5 1888 c 128,-1,17
 525 1902 525 1902 566 1905.5 c 128,-1,18
 607 1909 607 1909 643 1909 c 1,19,-1
 643 1740 l 1,20,21
 500 1740 500 1740 426 1546 c 128,-1,22
 352 1352 352 1352 352 975 c 2,23,-1
 352 692 l 2,24,25
 352 492 352 492 371.5 346.5 c 128,-1,26
 391 201 391 201 428.5 106 c 128,-1,27
 466 11 466 11 520 -35 c 128,-1,28
 574 -81 574 -81 643 -81 c 1,29,-1
 643 -250 l 1,0,1
EndSplineSet
EndChar

StartChar: yen
Encoding: 165 165 98
Width: 986
Flags: W
LayerCount: 2
Fore
SplineSet
131 389 m 1,0,-1
 364 389 l 1,1,-1
 364 538 l 1,2,-1
 131 538 l 1,3,-1
 131 714 l 1,4,-1
 364 714 l 1,5,-1
 33 1677 l 1,6,-1
 291 1677 l 1,7,-1
 487 974 l 1,8,-1
 499 974 l 1,9,-1
 695 1677 l 1,10,-1
 953 1677 l 1,11,-1
 620 714 l 1,12,-1
 852 714 l 1,13,-1
 852 538 l 1,14,-1
 620 538 l 1,15,-1
 620 389 l 1,16,-1
 852 389 l 1,17,-1
 852 213 l 1,18,-1
 620 213 l 1,19,-1
 620 0 l 1,20,-1
 364 0 l 1,21,-1
 364 213 l 1,22,-1
 131 213 l 1,23,-1
 131 389 l 1,0,-1
EndSplineSet
EndChar

StartChar: Euro
Encoding: 8364 8364 99
Width: 1018
Flags: W
LayerCount: 2
Fore
SplineSet
-1 713 m 1,0,-1
 151 713 l 1,1,-1
 151 861 l 1,2,-1
 -1 861 l 1,3,-1
 -1 1037 l 1,4,-1
 151 1037 l 1,5,-1
 151 1140 l 2,6,7
 151 1267 151 1267 171.5 1357 c 128,-1,8
 192 1447 192 1447 226.5 1508 c 128,-1,9
 261 1569 261 1569 305.5 1605.5 c 128,-1,10
 350 1642 350 1642 397.5 1661.5 c 128,-1,11
 445 1681 445 1681 492.5 1686.5 c 128,-1,12
 540 1692 540 1692 581 1692 c 0,13,14
 681 1692 681 1692 749.5 1666.5 c 128,-1,15
 818 1641 818 1641 860.5 1596 c 128,-1,16
 903 1551 903 1551 921.5 1490.5 c 128,-1,17
 940 1430 940 1430 940 1361 c 0,18,19
 940 1326 940 1326 937.5 1300.5 c 128,-1,20
 935 1275 935 1275 931.5 1254 c 128,-1,21
 928 1233 928 1233 923 1214 c 128,-1,22
 918 1195 918 1195 913 1173 c 1,23,-1
 715 1173 l 1,24,-1
 715 1237 l 2,25,26
 715 1374 715 1374 678.5 1433 c 128,-1,27
 642 1492 642 1492 574 1492 c 0,28,29
 536 1492 536 1492 506.5 1478.5 c 128,-1,30
 477 1465 477 1465 456.5 1432 c 128,-1,31
 436 1399 436 1399 425 1345 c 128,-1,32
 414 1291 414 1291 414 1210 c 2,33,-1
 414 1037 l 1,34,-1
 733 1037 l 1,35,-1
 704 861 l 1,36,-1
 414 861 l 1,37,-1
 414 713 l 1,38,-1
 678 713 l 1,39,-1
 647 537 l 1,40,-1
 414 537 l 1,41,-1
 414 455 l 2,42,43
 414 377 414 377 425 325 c 128,-1,44
 436 273 436 273 458.5 242 c 128,-1,45
 481 211 481 211 514.5 198 c 128,-1,46
 548 185 548 185 592 185 c 0,47,48
 626 185 626 185 654.5 195.5 c 128,-1,49
 683 206 683 206 703.5 228.5 c 128,-1,50
 724 251 724 251 735.5 285 c 128,-1,51
 747 319 747 319 747 367 c 2,52,-1
 747 431 l 1,53,-1
 962 431 l 1,54,-1
 962 371 l 2,55,56
 962 174 962 174 866 80 c 128,-1,57
 770 -14 770 -14 592 -15 c 0,58,59
 549 -15 549 -15 500 -8.5 c 128,-1,60
 451 -2 451 -2 402 18 c 128,-1,61
 353 38 353 38 308 75 c 128,-1,62
 263 112 263 112 228.5 173.5 c 128,-1,63
 194 235 194 235 173 324 c 128,-1,64
 152 413 152 413 151 537 c 1,65,-1
 -1 537 l 1,66,-1
 -1 713 l 1,0,-1
EndSplineSet
EndChar

StartChar: asciicircum
Encoding: 94 94 100
Width: 940
Flags: W
LayerCount: 2
Fore
SplineSet
350 1677 m 1,0,-1
 580 1677 l 1,1,-1
 910 269 l 1,2,-1
 693 269 l 1,3,-1
 533 1037 l 1,4,-1
 482 1363 l 1,5,-1
 457 1363 l 1,6,-1
 404 1037 l 1,7,-1
 247 269 l 1,8,-1
 30 269 l 1,9,-1
 350 1677 l 1,0,-1
EndSplineSet
EndChar

StartChar: quotesingle
Encoding: 39 39 101
Width: 645
Flags: W
LayerCount: 2
Fore
SplineSet
199 1824 m 1,0,-1
 446 1824 l 1,1,-1
 425 1147 l 1,2,-1
 224 1147 l 1,3,-1
 199 1824 l 1,0,-1
EndSplineSet
EndChar

StartChar: less
Encoding: 60 60 103
Width: 757
Flags: W
LayerCount: 2
Fore
SplineSet
40 838 m 1,0,-1
 677 1227 l 1,1,-1
 677 999 l 1,2,-1
 265 770 l 1,3,-1
 265 762 l 1,4,-1
 677 533 l 1,5,-1
 677 305 l 1,6,-1
 40 695 l 1,7,-1
 40 838 l 1,0,-1
EndSplineSet
EndChar

StartChar: greater
Encoding: 62 62 104
Width: 757
Flags: W
LayerCount: 2
Fore
SplineSet
40 533 m 1,0,-1
 452 762 l 1,1,-1
 452 770 l 1,2,-1
 40 999 l 1,3,-1
 40 1227 l 1,4,-1
 677 838 l 1,5,-1
 677 695 l 1,6,-1
 40 305 l 1,7,-1
 40 533 l 1,0,-1
EndSplineSet
EndChar

StartChar: underscore
Encoding: 95 95 105
Width: 1357
Flags: W
LayerCount: 2
Fore
SplineSet
1367 -167 m 1,0,-1
 1367 -326 l 1,1,-1
 -10 -326 l 1,2,-1
 -10 -167 l 1,3,-1
 1367 -167 l 1,0,-1
EndSplineSet
EndChar

StartChar: minus
Encoding: 8722 8722 106
Width: 977
Flags: W
LayerCount: 2
Fore
SplineSet
120 862 m 1,0,-1
 857 862 l 1,1,-1
 857 672 l 1,2,-1
 120 672 l 1,3,-1
 120 862 l 1,0,-1
EndSplineSet
EndChar

StartChar: Ldot
Encoding: 319 319 107
Width: 772
Flags: W
LayerCount: 2
Fore
SplineSet
662 584 m 0,0,1
 626 584 626 584 599.5 597.5 c 128,-1,2
 573 611 573 611 555.5 633.5 c 128,-1,3
 538 656 538 656 529.5 685 c 128,-1,4
 521 714 521 714 521 744 c 0,5,6
 521 777 521 777 529.5 807.5 c 128,-1,7
 538 838 538 838 555 861.5 c 128,-1,8
 572 885 572 885 599 899 c 128,-1,9
 626 913 626 913 662 913 c 0,10,11
 699 913 699 913 727 899 c 128,-1,12
 755 885 755 885 774 862 c 128,-1,13
 793 839 793 839 802 808 c 128,-1,14
 811 777 811 777 811 744 c 0,15,16
 811 715 811 715 802 686 c 128,-1,17
 793 657 793 657 774 634.5 c 128,-1,18
 755 612 755 612 727 598 c 128,-1,19
 699 584 699 584 662 584 c 0,0,1
140 1677 m 1,20,-1
 396 1677 l 1,21,-1
 396 200 l 1,22,-1
 746 200 l 1,23,-1
 746 0 l 1,24,-1
 140 0 l 1,25,-1
 140 1677 l 1,20,-1
EndSplineSet
EndChar

StartChar: Lslash
Encoding: 321 321 108
Width: 783
Flags: W
LayerCount: 2
Fore
SplineSet
159 544 m 1,0,-1
 56 466 l 1,1,-1
 -60 616 l 1,2,-1
 159 789 l 1,3,-1
 159 1677 l 1,4,-1
 413 1677 l 1,5,-1
 413 990 l 1,6,-1
 608 1145 l 1,7,-1
 737 982 l 1,8,-1
 413 736 l 1,9,-1
 413 201 l 1,10,-1
 763 201 l 1,11,-1
 763 0 l 1,12,-1
 159 0 l 1,13,-1
 159 544 l 1,0,-1
EndSplineSet
EndChar

StartChar: acute
Encoding: 180 180 109
Width: 0
Flags: W
LayerCount: 2
Fore
SplineSet
-124 1524 m 1,0,-1
 163 1928 l 1,1,-1
 331 1795 l 1,2,-1
 0 1421 l 1,3,-1
 -124 1524 l 1,0,-1
EndSplineSet
EndChar

StartChar: acute.cap
Encoding: 65537 -1 110
Width: 0
Flags: W
LayerCount: 2
Fore
SplineSet
-104 1846 m 1,0,-1
 194 2115 l 1,1,-1
 322 1952 l 1,2,-1
 0 1733 l 1,3,-1
 -104 1846 l 1,0,-1
EndSplineSet
EndChar

StartChar: grave
Encoding: 96 96 111
Width: 0
Flags: W
LayerCount: 2
Fore
SplineSet
-331 1795 m 1,0,-1
 -163 1928 l 1,1,-1
 124 1524 l 1,2,-1
 0 1421 l 1,3,-1
 -331 1795 l 1,0,-1
EndSplineSet
EndChar

StartChar: grave.cap
Encoding: 65538 -1 112
Width: 0
Flags: W
LayerCount: 2
Fore
SplineSet
-318 1952 m 1,0,-1
 -190 2115 l 1,1,-1
 108 1846 l 1,2,-1
 4 1733 l 1,3,-1
 -318 1952 l 1,0,-1
EndSplineSet
EndChar

StartChar: dieresis
Encoding: 168 168 113
Width: 0
Flags: W
LayerCount: 2
Fore
SplineSet
213 1517 m 0,0,1
 136 1517 136 1517 107 1558 c 128,-1,2
 78 1599 78 1599 78 1677 c 0,3,4
 78 1719 78 1719 84.5 1750.5 c 128,-1,5
 91 1782 91 1782 106.5 1803 c 128,-1,6
 122 1824 122 1824 148 1835 c 128,-1,7
 174 1846 174 1846 213 1846 c 0,8,9
 294 1846 294 1846 325.5 1804.5 c 128,-1,10
 357 1763 357 1763 357 1677 c 0,11,12
 357 1602 357 1602 325.5 1559.5 c 128,-1,13
 294 1517 294 1517 213 1517 c 0,0,1
-220 1517 m 0,14,15
 -297 1517 -297 1517 -326 1558 c 128,-1,16
 -355 1599 -355 1599 -355 1677 c 0,17,18
 -355 1719 -355 1719 -348.5 1750.5 c 128,-1,19
 -342 1782 -342 1782 -326.5 1803 c 128,-1,20
 -311 1824 -311 1824 -285 1835 c 128,-1,21
 -259 1846 -259 1846 -220 1846 c 0,22,23
 -139 1846 -139 1846 -107.5 1804.5 c 128,-1,24
 -76 1763 -76 1763 -76 1677 c 0,25,26
 -76 1602 -76 1602 -107.5 1559.5 c 128,-1,27
 -139 1517 -139 1517 -220 1517 c 0,14,15
EndSplineSet
EndChar

StartChar: dieresis.cap
Encoding: 65539 -1 114
Width: 0
Flags: W
LayerCount: 2
Fore
SplineSet
213 1790 m 0,0,1
 136 1790 136 1790 107 1827.5 c 128,-1,2
 78 1865 78 1865 78 1939 c 0,3,4
 78 1978 78 1978 84.5 2007.5 c 128,-1,5
 91 2037 91 2037 106.5 2056.5 c 128,-1,6
 122 2076 122 2076 148 2086 c 128,-1,7
 174 2096 174 2096 213 2096 c 0,8,9
 294 2096 294 2096 325.5 2058 c 128,-1,10
 357 2020 357 2020 357 1939 c 0,11,12
 357 1868 357 1868 325.5 1829 c 128,-1,13
 294 1790 294 1790 213 1790 c 0,0,1
-220 1790 m 0,14,15
 -297 1790 -297 1790 -326 1827.5 c 128,-1,16
 -355 1865 -355 1865 -355 1939 c 0,17,18
 -355 1978 -355 1978 -348.5 2007.5 c 128,-1,19
 -342 2037 -342 2037 -326.5 2056.5 c 128,-1,20
 -311 2076 -311 2076 -285 2086 c 128,-1,21
 -259 2096 -259 2096 -220 2096 c 0,22,23
 -139 2096 -139 2096 -107.5 2058 c 128,-1,24
 -76 2020 -76 2020 -76 1939 c 0,25,26
 -76 1868 -76 1868 -107.5 1829 c 128,-1,27
 -139 1790 -139 1790 -220 1790 c 0,14,15
EndSplineSet
EndChar

StartChar: mu
Encoding: 181 181 126
Width: 1016
Flags: W
LayerCount: 2
Fore
SplineSet
115 1332 m 1,0,-1
 374 1332 l 1,1,-1
 374 344 l 2,2,3
 374 256 374 256 402.5 221.5 c 128,-1,4
 431 187 431 187 490 187 c 0,5,6
 525 187 525 187 557 199 c 128,-1,7
 589 211 589 211 621 248 c 1,8,-1
 621 1332 l 1,9,-1
 884 1332 l 1,10,-1
 884 0 l 1,11,-1
 680 0 l 1,12,-1
 663 93 l 1,13,14
 648 71 648 71 627.5 51 c 128,-1,15
 607 31 607 31 582.5 16 c 128,-1,16
 558 1 558 1 531.5 -7.5 c 128,-1,17
 505 -16 505 -16 480 -16 c 0,18,19
 447 -16 447 -16 417 -5.5 c 128,-1,20
 387 5 387 5 355 42 c 1,21,-1
 348 43 l 1,22,-1
 354 -317 l 1,23,-1
 116 -317 l 1,24,-1
 115 1332 l 1,0,-1
EndSplineSet
EndChar

StartChar: logicalnot
Encoding: 172 172 127
Width: 971
Flags: W
LayerCount: 2
Fore
SplineSet
40 862 m 1,0,-1
 891 862 l 1,1,-1
 891 358 l 1,2,-1
 695 358 l 1,3,-1
 695 673 l 1,4,-1
 40 673 l 1,5,-1
 40 862 l 1,0,-1
EndSplineSet
EndChar

StartChar: n
Encoding: 110 110 153
Width: 1001
Flags: W
LayerCount: 2
Fore
SplineSet
128 1332 m 1,0,-1
 319 1332 l 1,1,-1
 344 1190 l 1,2,-1
 344 1189 l 1,3,4
 373 1235 373 1235 407 1265.5 c 128,-1,5
 441 1296 441 1296 477 1314.5 c 128,-1,6
 513 1333 513 1333 550.5 1340.5 c 128,-1,7
 588 1348 588 1348 626 1348 c 0,8,9
 745 1348 745 1348 810 1266.5 c 128,-1,10
 875 1185 875 1185 875 1021 c 2,11,-1
 875 0 l 1,12,-1
 625 0 l 1,13,-1
 625 980 l 2,14,15
 625 1068 625 1068 597.5 1102.5 c 128,-1,16
 570 1137 570 1137 516 1137 c 0,17,18
 478 1137 478 1137 442.5 1116 c 128,-1,19
 407 1095 407 1095 378 1058 c 1,20,-1
 378 0 l 1,21,-1
 128 0 l 1,22,-1
 128 1332 l 1,0,-1
EndSplineSet
EndChar

StartChar: i
Encoding: 105 105 154
Width: 506
Flags: W
LayerCount: 2
Fore
SplineSet
248 1525 m 0,0,1
 178 1525 178 1525 136 1567.5 c 128,-1,2
 94 1610 94 1610 94 1688 c 0,3,4
 94 1775 94 1775 136 1810.5 c 128,-1,5
 178 1846 178 1846 249 1846 c 0,6,7
 323 1846 323 1846 363.5 1807.5 c 128,-1,8
 404 1769 404 1769 404 1688 c 0,9,10
 404 1612 404 1612 363 1568.5 c 128,-1,11
 322 1525 322 1525 248 1525 c 0,0,1
128 1332 m 1,12,-1
 378 1332 l 1,13,-1
 378 0 l 1,14,-1
 128 0 l 1,15,-1
 128 1332 l 1,12,-1
EndSplineSet
EndChar

StartChar: degree
Encoding: 176 176 185
Width: 870
Flags: W
LayerCount: 2
Fore
SplineSet
430 1042 m 0,0,1
 346 1042 346 1042 284 1071.5 c 128,-1,2
 222 1101 222 1101 181 1149 c 128,-1,3
 140 1197 140 1197 120 1259.5 c 128,-1,4
 100 1322 100 1322 100 1388 c 0,5,6
 100 1457 100 1457 119.5 1521.5 c 128,-1,7
 139 1586 139 1586 179.5 1635.5 c 128,-1,8
 220 1685 220 1685 282 1715 c 128,-1,9
 344 1745 344 1745 430 1745 c 0,10,11
 515 1745 515 1745 579 1715.5 c 128,-1,12
 643 1686 643 1686 685.5 1637 c 128,-1,13
 728 1588 728 1588 749 1523 c 128,-1,14
 770 1458 770 1458 770 1388 c 0,15,16
 770 1325 770 1325 749 1263.5 c 128,-1,17
 728 1202 728 1202 685.5 1152.5 c 128,-1,18
 643 1103 643 1103 579 1072.5 c 128,-1,19
 515 1042 515 1042 430 1042 c 0,0,1
427 1230 m 0,20,21
 464 1230 464 1230 491 1243.5 c 128,-1,22
 518 1257 518 1257 536 1279 c 128,-1,23
 554 1301 554 1301 563 1329 c 128,-1,24
 572 1357 572 1357 572 1385 c 0,25,26
 572 1419 572 1419 563 1450.5 c 128,-1,27
 554 1482 554 1482 536 1506 c 128,-1,28
 518 1530 518 1530 491 1544 c 128,-1,29
 464 1558 464 1558 427 1558 c 0,30,31
 394 1558 394 1558 369.5 1543.5 c 128,-1,32
 345 1529 345 1529 329 1505 c 128,-1,33
 313 1481 313 1481 305.5 1450 c 128,-1,34
 298 1419 298 1419 298 1385 c 0,35,36
 298 1355 298 1355 306 1327.5 c 128,-1,37
 314 1300 314 1300 330 1278 c 128,-1,38
 346 1256 346 1256 370 1243 c 128,-1,39
 394 1230 394 1230 427 1230 c 0,20,21
EndSplineSet
EndChar

StartChar: ring
Encoding: 730 730 186
Width: 0
Flags: W
LayerCount: 2
Fore
SplineSet
0 1433 m 0,0,1
 -79 1433 -79 1433 -137.5 1458 c 128,-1,2
 -196 1483 -196 1483 -234.5 1525 c 128,-1,3
 -273 1567 -273 1567 -292 1620.5 c 128,-1,4
 -311 1674 -311 1674 -311 1731 c 0,5,6
 -311 1789 -311 1789 -292.5 1843.5 c 128,-1,7
 -274 1898 -274 1898 -236 1939 c 128,-1,8
 -198 1980 -198 1980 -139.5 2005 c 128,-1,9
 -81 2030 -81 2030 0 2030 c 256,10,11
 81 2030 81 2030 141.5 2005.5 c 128,-1,12
 202 1981 202 1981 241.5 1940 c 128,-1,13
 281 1899 281 1899 301 1845 c 128,-1,14
 321 1791 321 1791 321 1731 c 0,15,16
 321 1677 321 1677 301 1623.5 c 128,-1,17
 281 1570 281 1570 241.5 1528 c 128,-1,18
 202 1486 202 1486 141.5 1459.5 c 128,-1,19
 81 1433 81 1433 0 1433 c 0,0,1
-1 1592 m 0,20,21
 38 1592 38 1592 67.5 1604 c 128,-1,22
 97 1616 97 1616 116.5 1635 c 128,-1,23
 136 1654 136 1654 145.5 1678.5 c 128,-1,24
 155 1703 155 1703 155 1727 c 0,25,26
 155 1757 155 1757 145.5 1783 c 128,-1,27
 136 1809 136 1809 116.5 1829 c 128,-1,28
 97 1849 97 1849 67.5 1860.5 c 128,-1,29
 38 1872 38 1872 -1 1872 c 0,30,31
 -37 1872 -37 1872 -63 1860.5 c 128,-1,32
 -89 1849 -89 1849 -106 1829 c 128,-1,33
 -123 1809 -123 1809 -131 1782.5 c 128,-1,34
 -139 1756 -139 1756 -139 1727 c 0,35,36
 -139 1701 -139 1701 -130.5 1677 c 128,-1,37
 -122 1653 -122 1653 -105 1634 c 128,-1,38
 -88 1615 -88 1615 -62 1603.5 c 128,-1,39
 -36 1592 -36 1592 -1 1592 c 0,20,21
EndSplineSet
EndChar

StartChar: ring.cap
Encoding: 65540 -1 187
Width: 0
Flags: W
LayerCount: 2
Fore
SplineSet
0 1526 m 0,0,1
 -79 1526 -79 1526 -137.5 1551 c 128,-1,2
 -196 1576 -196 1576 -234.5 1618 c 128,-1,3
 -273 1660 -273 1660 -292 1713.5 c 128,-1,4
 -311 1767 -311 1767 -311 1824 c 0,5,6
 -311 1882 -311 1882 -292.5 1935 c 128,-1,7
 -274 1988 -274 1988 -236 2028 c 128,-1,8
 -198 2068 -198 2068 -139.5 2091.5 c 128,-1,9
 -81 2115 -81 2115 0 2115 c 256,10,11
 81 2115 81 2115 141.5 2092 c 128,-1,12
 202 2069 202 2069 241.5 2029 c 128,-1,13
 281 1989 281 1989 301 1936.5 c 128,-1,14
 321 1884 321 1884 321 1824 c 0,15,16
 321 1770 321 1770 301 1716.5 c 128,-1,17
 281 1663 281 1663 241.5 1621 c 128,-1,18
 202 1579 202 1579 141.5 1552.5 c 128,-1,19
 81 1526 81 1526 0 1526 c 0,0,1
-1 1685 m 0,20,21
 38 1685 38 1685 67.5 1697 c 128,-1,22
 97 1709 97 1709 116.5 1728 c 128,-1,23
 136 1747 136 1747 145.5 1771.5 c 128,-1,24
 155 1796 155 1796 155 1820 c 0,25,26
 155 1880 155 1880 116.5 1918.5 c 128,-1,27
 78 1957 78 1957 -1 1957 c 0,28,29
 -37 1957 -37 1957 -63 1946.5 c 128,-1,30
 -89 1936 -89 1936 -106 1917.5 c 128,-1,31
 -123 1899 -123 1899 -131 1874 c 128,-1,32
 -139 1849 -139 1849 -139 1820 c 0,33,34
 -139 1794 -139 1794 -130.5 1770 c 128,-1,35
 -122 1746 -122 1746 -105 1727 c 128,-1,36
 -88 1708 -88 1708 -62 1696.5 c 128,-1,37
 -36 1685 -36 1685 -1 1685 c 0,20,21
EndSplineSet
EndChar

StartChar: Aring
Encoding: 197 197 189
Width: 948
Flags: W
LayerCount: 2
Fore
SplineSet
308 1565 m 1,0,1
 234 1605 234 1605 198.5 1675 c 128,-1,2
 163 1745 163 1745 163 1824 c 0,3,4
 163 1882 163 1882 181.5 1935 c 128,-1,5
 200 1988 200 1988 238 2028 c 128,-1,6
 276 2068 276 2068 334.5 2091.5 c 128,-1,7
 393 2115 393 2115 474 2115 c 256,8,9
 555 2115 555 2115 615.5 2092 c 128,-1,10
 676 2069 676 2069 715.5 2029 c 128,-1,11
 755 1989 755 1989 775 1936.5 c 128,-1,12
 795 1884 795 1884 795 1824 c 0,13,14
 795 1786 795 1786 785.5 1748.5 c 128,-1,15
 776 1711 776 1711 756.5 1676.5 c 128,-1,16
 737 1642 737 1642 707.5 1613 c 128,-1,17
 678 1584 678 1584 639 1563 c 1,18,-1
 934 0 l 1,19,-1
 676 0 l 1,20,-1
 630 300 l 1,21,-1
 317 300 l 1,22,-1
 272 0 l 1,23,-1
 14 0 l 1,24,-1
 308 1565 l 1,0,1
473 1685 m 0,25,26
 512 1685 512 1685 541.5 1697 c 128,-1,27
 571 1709 571 1709 590.5 1728 c 128,-1,28
 610 1747 610 1747 619.5 1771.5 c 128,-1,29
 629 1796 629 1796 629 1820 c 0,30,31
 629 1880 629 1880 590.5 1918.5 c 128,-1,32
 552 1957 552 1957 473 1957 c 0,33,34
 437 1957 437 1957 411 1946.5 c 128,-1,35
 385 1936 385 1936 368 1917.5 c 128,-1,36
 351 1899 351 1899 343 1874 c 128,-1,37
 335 1849 335 1849 335 1820 c 0,38,39
 335 1794 335 1794 343.5 1770 c 128,-1,40
 352 1746 352 1746 369 1727 c 128,-1,41
 386 1708 386 1708 412 1696.5 c 128,-1,42
 438 1685 438 1685 473 1685 c 0,25,26
600 492 m 1,43,-1
 479 1332 l 1,44,-1
 468 1332 l 1,45,-1
 347 492 l 1,46,-1
 600 492 l 1,43,-1
EndSplineSet
EndChar

StartChar: asciitilde
Encoding: 126 126 190
Width: 1281
Flags: W
LayerCount: 2
Fore
SplineSet
124 438 m 1,0,1
 114 564 114 564 134.5 648.5 c 128,-1,2
 155 733 155 733 197 783 c 128,-1,3
 239 833 239 833 297 854 c 128,-1,4
 355 875 355 875 419 875 c 0,5,6
 485 875 485 875 534 852.5 c 128,-1,7
 583 830 583 830 621.5 796.5 c 128,-1,8
 660 763 660 763 690.5 723.5 c 128,-1,9
 721 684 721 684 748 650.5 c 128,-1,10
 775 617 775 617 802 594.5 c 128,-1,11
 829 572 829 572 862 572 c 0,12,13
 931 572 931 572 956 641.5 c 128,-1,14
 981 711 981 711 957 845 c 1,15,-1
 1148 845 l 1,16,17
 1170 731 1170 731 1155 645.5 c 128,-1,18
 1140 560 1140 560 1101 502.5 c 128,-1,19
 1062 445 1062 445 1005.5 416.5 c 128,-1,20
 949 388 949 388 886 388 c 0,21,22
 819 388 819 388 767 410 c 128,-1,23
 715 432 715 432 674.5 465.5 c 128,-1,24
 634 499 634 499 602 538 c 128,-1,25
 570 577 570 577 541 610.5 c 128,-1,26
 512 644 512 644 484.5 666 c 128,-1,27
 457 688 457 688 425 688 c 0,28,29
 387 688 387 688 361 669.5 c 128,-1,30
 335 651 335 651 320.5 618 c 128,-1,31
 306 585 306 585 302.5 539 c 128,-1,32
 299 493 299 493 308 438 c 1,33,-1
 124 438 l 1,34,-1
 124 438 l 1,0,1
EndSplineSet
EndChar

StartChar: tilde
Encoding: 732 732 191
Width: 0
Flags: W
LayerCount: 2
Fore
SplineSet
164 1493 m 0,0,1
 103 1493 103 1493 59.5 1512.5 c 128,-1,2
 16 1532 16 1532 -26 1569 c 0,3,4
 -50 1590 -50 1590 -66 1605.5 c 128,-1,5
 -82 1621 -82 1621 -95 1631.5 c 128,-1,6
 -108 1642 -108 1642 -120 1647.5 c 128,-1,7
 -132 1653 -132 1653 -147 1653 c 0,8,9
 -167 1653 -167 1653 -178 1636.5 c 128,-1,10
 -189 1620 -189 1620 -189 1591 c 2,11,-1
 -189 1521 l 1,12,-1
 -365 1521 l 1,13,14
 -365 1526 -365 1526 -366 1537.5 c 128,-1,15
 -367 1549 -367 1549 -367.5 1561 c 128,-1,16
 -368 1573 -368 1573 -368.5 1584 c 128,-1,17
 -369 1595 -369 1595 -369 1600 c 0,18,19
 -369 1668 -369 1668 -351 1714 c 128,-1,20
 -333 1760 -333 1760 -303 1788 c 128,-1,21
 -273 1816 -273 1816 -233.5 1828 c 128,-1,22
 -194 1840 -194 1840 -150 1840 c 0,23,24
 -92 1840 -92 1840 -52 1821 c 128,-1,25
 -12 1802 -12 1802 28 1765 c 0,26,27
 41 1753 41 1753 56 1738 c 128,-1,28
 71 1723 71 1723 87.5 1710 c 128,-1,29
 104 1697 104 1697 120.5 1688 c 128,-1,30
 137 1679 137 1679 152 1679 c 0,31,32
 174 1679 174 1679 188 1693 c 128,-1,33
 202 1707 202 1707 202 1736 c 2,34,-1
 202 1821 l 1,35,-1
 359 1821 l 1,36,37
 365 1786 365 1786 367.5 1761 c 128,-1,38
 370 1736 370 1736 370 1718 c 0,39,40
 370 1662 370 1662 353 1620 c 128,-1,41
 336 1578 336 1578 307.5 1549.5 c 128,-1,42
 279 1521 279 1521 241.5 1507 c 128,-1,43
 204 1493 204 1493 164 1493 c 0,0,1
EndSplineSet
EndChar

StartChar: tilde.cap
Encoding: 65541 -1 193
Width: 0
Flags: W
LayerCount: 2
Fore
SplineSet
164 1768 m 0,0,1
 103 1768 103 1768 59.5 1787.5 c 128,-1,2
 16 1807 16 1807 -26 1844 c 0,3,4
 -50 1865 -50 1865 -66 1880.5 c 128,-1,5
 -82 1896 -82 1896 -95 1906.5 c 128,-1,6
 -108 1917 -108 1917 -120 1922.5 c 128,-1,7
 -132 1928 -132 1928 -147 1928 c 0,8,9
 -167 1928 -167 1928 -178 1911.5 c 128,-1,10
 -189 1895 -189 1895 -189 1866 c 2,11,-1
 -189 1796 l 1,12,-1
 -365 1796 l 1,13,14
 -365 1801 -365 1801 -366 1812.5 c 128,-1,15
 -367 1824 -367 1824 -367.5 1836 c 128,-1,16
 -368 1848 -368 1848 -368.5 1859 c 128,-1,17
 -369 1870 -369 1870 -369 1875 c 0,18,19
 -369 1943 -369 1943 -351 1989 c 128,-1,20
 -333 2035 -333 2035 -303 2063 c 128,-1,21
 -273 2091 -273 2091 -233.5 2103 c 128,-1,22
 -194 2115 -194 2115 -150 2115 c 0,23,24
 -92 2115 -92 2115 -52 2096 c 128,-1,25
 -12 2077 -12 2077 28 2040 c 0,26,27
 41 2028 41 2028 56 2013 c 128,-1,28
 71 1998 71 1998 87.5 1985 c 128,-1,29
 104 1972 104 1972 120.5 1963 c 128,-1,30
 137 1954 137 1954 152 1954 c 0,31,32
 174 1954 174 1954 188 1968 c 128,-1,33
 202 1982 202 1982 202 2011 c 2,34,-1
 202 2096 l 1,35,-1
 359 2096 l 1,36,37
 365 2061 365 2061 367.5 2036 c 128,-1,38
 370 2011 370 2011 370 1993 c 0,39,40
 370 1937 370 1937 353 1895 c 128,-1,41
 336 1853 336 1853 307.5 1824.5 c 128,-1,42
 279 1796 279 1796 241.5 1782 c 128,-1,43
 204 1768 204 1768 164 1768 c 0,0,1
EndSplineSet
EndChar

StartChar: macron
Encoding: 175 175 195
Width: 0
Flags: W
LayerCount: 2
Fore
SplineSet
-308 1775 m 1,0,-1
 309 1775 l 1,1,-1
 309 1588 l 1,2,-1
 -308 1588 l 1,3,-1
 -308 1775 l 1,0,-1
EndSplineSet
EndChar

StartChar: macron.cap
Encoding: 65542 -1 196
Width: 0
Flags: W
LayerCount: 2
Fore
SplineSet
-308 2040 m 1,0,-1
 309 2040 l 1,1,-1
 309 1853 l 1,2,-1
 -308 1853 l 1,3,-1
 -308 2040 l 1,0,-1
EndSplineSet
EndChar

StartChar: cedilla
Encoding: 184 184 197
Width: 0
Flags: W
LayerCount: 2
Fore
SplineSet
118 13 m 1,0,-1
 112 -101 l 2,1,2
 108 -170 108 -170 94.5 -219.5 c 128,-1,3
 81 -269 81 -269 61.5 -303 c 128,-1,4
 42 -337 42 -337 19 -357.5 c 128,-1,5
 -4 -378 -4 -378 -28 -389 c 128,-1,6
 -52 -400 -52 -400 -73.5 -403.5 c 128,-1,7
 -95 -407 -95 -407 -110 -407 c 0,8,9
 -151 -407 -151 -407 -184.5 -400.5 c 128,-1,10
 -218 -394 -218 -394 -259 -378 c 1,11,-1
 -252 -231 l 1,12,13
 -244 -232 -244 -232 -236 -232 c 128,-1,14
 -228 -232 -228 -232 -220 -232 c 0,15,16
 -187 -232 -187 -232 -159.5 -225.5 c 128,-1,17
 -132 -219 -132 -219 -112.5 -199.5 c 128,-1,18
 -93 -180 -93 -180 -81.5 -145.5 c 128,-1,19
 -70 -111 -70 -111 -67 -54 c 2,20,-1
 -64 13 l 1,21,-1
 118 13 l 1,0,-1
EndSplineSet
EndChar

StartChar: ccedilla
Encoding: 231 231 198
Width: 854
Flags: W
LayerCount: 2
Fore
SplineSet
212 -231 m 1,0,1
 220 -232 220 -232 228 -232 c 128,-1,2
 236 -232 236 -232 244 -232 c 0,3,4
 277 -232 277 -232 304.5 -225.5 c 128,-1,5
 332 -219 332 -219 351.5 -199.5 c 128,-1,6
 371 -180 371 -180 382.5 -145.5 c 128,-1,7
 394 -111 394 -111 397 -54 c 2,8,-1
 399 -12 l 1,9,10
 324 -4 324 -4 267 32.5 c 128,-1,11
 210 69 210 69 171.5 137 c 128,-1,12
 133 205 133 205 113.5 306 c 128,-1,13
 94 407 94 407 94 545 c 2,14,-1
 94 797 l 2,15,16
 94 924 94 924 113 1014.5 c 128,-1,17
 132 1105 132 1105 163 1166 c 128,-1,18
 194 1227 194 1227 234 1263 c 128,-1,19
 274 1299 274 1299 316.5 1318 c 128,-1,20
 359 1337 359 1337 401 1342.5 c 128,-1,21
 443 1348 443 1348 477 1348 c 0,22,23
 546 1348 546 1348 603.5 1330 c 128,-1,24
 661 1312 661 1312 702 1276 c 128,-1,25
 743 1240 743 1240 765.5 1185 c 128,-1,26
 788 1130 788 1130 788 1055 c 0,27,28
 788 1009 788 1009 783.5 975.5 c 128,-1,29
 779 942 779 942 771 910 c 1,30,-1
 581 910 l 1,31,-1
 581 952 l 2,32,33
 581 1052 581 1052 553 1109 c 128,-1,34
 525 1166 525 1166 469 1166 c 0,35,36
 439 1166 439 1166 416 1151 c 128,-1,37
 393 1136 393 1136 377.5 1100.5 c 128,-1,38
 362 1065 362 1065 354 1007 c 128,-1,39
 346 949 346 949 346 863 c 2,40,-1
 346 485 l 2,41,42
 346 398 346 398 352.5 337.5 c 128,-1,43
 359 277 359 277 374 239 c 128,-1,44
 389 201 389 201 413.5 184 c 128,-1,45
 438 167 438 167 475 167 c 0,46,47
 494 167 494 167 513 176 c 128,-1,48
 532 185 532 185 547 206.5 c 128,-1,49
 562 228 562 228 571.5 263 c 128,-1,50
 581 298 581 298 581 351 c 2,51,-1
 581 409 l 1,52,-1
 784 409 l 1,53,-1
 784 348 l 2,54,55
 784 200 784 200 734 115.5 c 128,-1,56
 684 31 684 31 581 1 c 1,57,-1
 576 -101 l 2,58,59
 572 -170 572 -170 558.5 -219.5 c 128,-1,60
 545 -269 545 -269 525.5 -303 c 128,-1,61
 506 -337 506 -337 482.5 -357.5 c 128,-1,62
 459 -378 459 -378 436 -389 c 128,-1,63
 413 -400 413 -400 391 -403.5 c 128,-1,64
 369 -407 369 -407 354 -407 c 0,65,66
 313 -407 313 -407 279.5 -400.5 c 128,-1,67
 246 -394 246 -394 205 -378 c 1,68,-1
 212 -231 l 1,69,-1
 212 -231 l 1,0,1
EndSplineSet
EndChar

StartChar: Ccedilla
Encoding: 199 199 203
Width: 919
Flags: W
LayerCount: 2
Fore
SplineSet
258 -231 m 1,0,1
 266 -232 266 -232 274 -232 c 128,-1,2
 282 -232 282 -232 290 -232 c 0,3,4
 323 -232 323 -232 350.5 -225.5 c 128,-1,5
 378 -219 378 -219 397.5 -199.5 c 128,-1,6
 417 -180 417 -180 428.5 -145.5 c 128,-1,7
 440 -111 440 -111 443 -54 c 2,8,-1
 445 -9 l 1,9,10
 386 -1 386 -1 326 27 c 128,-1,11
 266 55 266 55 217 117 c 128,-1,12
 168 179 168 179 137 282.5 c 128,-1,13
 106 386 106 386 106 546 c 2,14,-1
 106 1140 l 2,15,16
 106 1267 106 1267 126 1357 c 128,-1,17
 146 1447 146 1447 179.5 1508 c 128,-1,18
 213 1569 213 1569 256.5 1605.5 c 128,-1,19
 300 1642 300 1642 347 1661.5 c 128,-1,20
 394 1681 394 1681 440 1686.5 c 128,-1,21
 486 1692 486 1692 526 1692 c 0,22,23
 623 1692 623 1692 690 1664 c 128,-1,24
 757 1636 757 1636 798 1587.5 c 128,-1,25
 839 1539 839 1539 857 1474.5 c 128,-1,26
 875 1410 875 1410 875 1337 c 0,27,28
 875 1283 875 1283 867 1237 c 128,-1,29
 859 1191 859 1191 848 1137 c 1,30,-1
 650 1137 l 1,31,-1
 650 1217 l 2,32,33
 650 1355 650 1355 616.5 1423.5 c 128,-1,34
 583 1492 583 1492 519 1492 c 0,35,36
 484 1492 484 1492 457 1478.5 c 128,-1,37
 430 1465 430 1465 411.5 1432 c 128,-1,38
 393 1399 393 1399 383.5 1345 c 128,-1,39
 374 1291 374 1291 374 1210 c 2,40,-1
 374 455 l 2,41,42
 374 377 374 377 383.5 325 c 128,-1,43
 393 273 393 273 411.5 242 c 128,-1,44
 430 211 430 211 459 198 c 128,-1,45
 488 185 488 185 527 185 c 0,46,47
 554 185 554 185 577 196 c 128,-1,48
 600 207 600 207 616.5 230.5 c 128,-1,49
 633 254 633 254 642.5 290.5 c 128,-1,50
 652 327 652 327 652 377 c 2,51,-1
 652 537 l 1,52,-1
 877 537 l 1,53,-1
 877 381 l 2,54,55
 877 210 877 210 813 115.5 c 128,-1,56
 749 21 749 21 627 -5 c 1,57,-1
 622 -101 l 2,58,59
 618 -170 618 -170 604.5 -219.5 c 128,-1,60
 591 -269 591 -269 571.5 -303 c 128,-1,61
 552 -337 552 -337 528.5 -357.5 c 128,-1,62
 505 -378 505 -378 482 -389 c 128,-1,63
 459 -400 459 -400 437 -403.5 c 128,-1,64
 415 -407 415 -407 400 -407 c 0,65,66
 359 -407 359 -407 325.5 -400.5 c 128,-1,67
 292 -394 292 -394 251 -378 c 1,68,-1
 258 -231 l 1,69,-1
 258 -231 l 1,0,1
EndSplineSet
EndChar

StartChar: circumflex
Encoding: 710 710 204
Width: 0
Flags: W
LayerCount: 2
Fore
SplineSet
52 1650 m 1,0,-1
 2 1817 l 1,1,-1
 -48 1650 l 1,2,-1
 -141 1444 l 1,3,-1
 -356 1444 l 1,4,-1
 -89 2009 l 1,5,-1
 83 2009 l 1,6,-1
 356 1444 l 1,7,-1
 140 1444 l 1,8,-1
 52 1650 l 1,0,-1
EndSplineSet
EndChar

StartChar: circumflex.cap
Encoding: 65543 -1 205
Width: 0
Flags: W
LayerCount: 2
Fore
SplineSet
42 1891 m 1,0,-1
 2 1955 l 1,1,-1
 -38 1891 l 1,2,-1
 -121 1765 l 1,3,-1
 -366 1765 l 1,4,-1
 -119 2115 l 1,5,-1
 113 2115 l 1,6,-1
 356 1765 l 1,7,-1
 110 1765 l 1,8,-1
 42 1891 l 1,0,-1
EndSplineSet
EndChar

StartChar: Eth
Encoding: 208 208 215
Width: 1017
Flags: W
LayerCount: 2
Fore
SplineSet
122 794 m 1,0,-1
 38 794 l 1,1,-1
 38 991 l 1,2,-1
 122 991 l 1,3,-1
 122 1677 l 1,4,-1
 397 1677 l 2,5,6
 445 1677 445 1677 502.5 1672.5 c 128,-1,7
 560 1668 560 1668 619 1649.5 c 128,-1,8
 678 1631 678 1631 733.5 1594 c 128,-1,9
 789 1557 789 1557 832 1493 c 128,-1,10
 875 1429 875 1429 901 1332.5 c 128,-1,11
 927 1236 927 1236 927 1098 c 2,12,-1
 927 589 l 2,13,14
 927 449 927 449 901 350.5 c 128,-1,15
 875 252 875 252 832 186.5 c 128,-1,16
 789 121 789 121 733.5 83.5 c 128,-1,17
 678 46 678 46 619 27.5 c 128,-1,18
 560 9 560 9 502.5 4.5 c 128,-1,19
 445 0 445 0 397 0 c 2,20,-1
 122 0 l 1,21,-1
 122 794 l 1,0,-1
409 174 m 2,22,23
 478 174 478 174 525.5 196 c 128,-1,24
 573 218 573 218 603 263 c 128,-1,25
 633 308 633 308 646.5 377.5 c 128,-1,26
 660 447 660 447 660 542 c 2,27,-1
 660 1143 l 2,28,29
 660 1232 660 1232 647.5 1299.5 c 128,-1,30
 635 1367 635 1367 606 1412 c 128,-1,31
 577 1457 577 1457 529 1480 c 128,-1,32
 481 1503 481 1503 409 1503 c 2,33,-1
 371 1503 l 1,34,-1
 371 991 l 1,35,-1
 535 991 l 1,36,-1
 535 794 l 1,37,-1
 371 794 l 1,38,-1
 371 174 l 1,39,-1
 409 174 l 2,22,23
EndSplineSet
EndChar

StartChar: caron
Encoding: 711 711 216
Width: 0
Flags: W
LayerCount: 2
Fore
SplineSet
-89 1444 m 1,0,-1
 -356 2009 l 1,1,-1
 -141 2009 l 1,2,-1
 -48 1803 l 1,3,-1
 2 1636 l 1,4,-1
 52 1803 l 1,5,-1
 140 2009 l 1,6,-1
 356 2009 l 1,7,-1
 83 1444 l 1,8,-1
 -89 1444 l 1,0,-1
EndSplineSet
EndChar

StartChar: caron.cap
Encoding: 65544 -1 217
Width: 0
Flags: W
LayerCount: 2
Fore
SplineSet
-109 1765 m 1,0,-1
 -356 2115 l 1,1,-1
 -121 2115 l 1,2,-1
 -38 1982 l 1,3,-1
 2 1917 l 1,4,-1
 42 1982 l 1,5,-1
 110 2115 l 1,6,-1
 346 2115 l 1,7,-1
 103 1765 l 1,8,-1
 -109 1765 l 1,0,-1
EndSplineSet
EndChar

StartChar: asterisk
Encoding: 42 42 225
Width: 1028
Flags: W
LayerCount: 2
Fore
SplineSet
160 965 m 1,0,-1
 395 1205 l 1,1,-1
 73 1264 l 1,2,-1
 144 1496 l 1,3,-1
 440 1339 l 1,4,-1
 394 1679 l 1,5,-1
 638 1679 l 1,6,-1
 584 1339 l 1,7,-1
 882 1491 l 1,8,-1
 954 1259 l 1,9,-1
 627 1205 l 1,10,-1
 859 959 l 1,11,-1
 661 817 l 1,12,-1
 511 1121 l 1,13,-1
 357 821 l 1,14,-1
 160 965 l 1,0,-1
EndSplineSet
EndChar

StartChar: quoteleft
Encoding: 8216 8216 226
Width: 604
Flags: W
LayerCount: 2
Fore
SplineSet
155 1365 m 1,0,-1
 304 1824 l 1,1,-1
 499 1824 l 1,2,-1
 421 1438 l 1,3,-1
 421 1147 l 1,4,-1
 155 1147 l 1,5,-1
 155 1365 l 1,0,-1
EndSplineSet
EndChar

StartChar: commaaccent
Encoding: 63171 63171 227
Width: 511
Flags: W
LayerCount: 2
Fore
SplineSet
392 -52 m 1,0,-1
 285 -444 l 1,1,-1
 92 -444 l 1,2,-1
 153 -52 l 1,3,-1
 392 -52 l 1,0,-1
EndSplineSet
EndChar

StartChar: percent
Encoding: 37 37 232
Width: 1857
Flags: W
LayerCount: 2
Fore
SplineSet
469 764 m 0,0,1
 432 764 432 764 394 770.5 c 128,-1,2
 356 777 356 777 320.5 793.5 c 128,-1,3
 285 810 285 810 254 840 c 128,-1,4
 223 870 223 870 200 917 c 128,-1,5
 177 964 177 964 163.5 1030.5 c 128,-1,6
 150 1097 150 1097 150 1187 c 2,7,-1
 150 1291 l 2,8,9
 150 1380 150 1380 164 1444.5 c 128,-1,10
 178 1509 178 1509 202 1554.5 c 128,-1,11
 226 1600 226 1600 257.5 1628.5 c 128,-1,12
 289 1657 289 1657 324.5 1673 c 128,-1,13
 360 1689 360 1689 397.5 1694.5 c 128,-1,14
 435 1700 435 1700 470 1700 c 0,15,16
 504 1700 504 1700 540.5 1694.5 c 128,-1,17
 577 1689 577 1689 612 1673.5 c 128,-1,18
 647 1658 647 1658 679 1630 c 128,-1,19
 711 1602 711 1602 734.5 1556.5 c 128,-1,20
 758 1511 758 1511 772 1446 c 128,-1,21
 786 1381 786 1381 786 1291 c 2,22,-1
 786 1187 l 2,23,24
 786 1098 786 1098 772 1032 c 128,-1,25
 758 966 758 966 733.5 919 c 128,-1,26
 709 872 709 872 677.5 842 c 128,-1,27
 646 812 646 812 610.5 794.5 c 128,-1,28
 575 777 575 777 538.5 770.5 c 128,-1,29
 502 764 502 764 469 764 c 0,0,1
1069 1679 m 1,30,-1
 1249 1679 l 1,31,-1
 794 0 l 1,32,-1
 614 0 l 1,33,-1
 1069 1679 l 1,30,-1
471 919 m 0,34,35
 533 919 533 919 558 972 c 128,-1,36
 583 1025 583 1025 583 1137 c 2,37,-1
 583 1325 l 2,38,39
 583 1438 583 1438 558 1491.5 c 128,-1,40
 533 1545 533 1545 471 1545 c 0,41,42
 406 1545 406 1545 379.5 1491.5 c 128,-1,43
 353 1438 353 1438 353 1325 c 2,44,-1
 353 1137 l 2,45,46
 353 1025 353 1025 379.5 972 c 128,-1,47
 406 919 406 919 471 919 c 0,34,35
1071 512 m 2,48,49
 1071 601 1071 601 1085 665.5 c 128,-1,50
 1099 730 1099 730 1123 775.5 c 128,-1,51
 1147 821 1147 821 1178.5 849.5 c 128,-1,52
 1210 878 1210 878 1245.5 894 c 128,-1,53
 1281 910 1281 910 1318.5 915.5 c 128,-1,54
 1356 921 1356 921 1391 921 c 0,55,56
 1425 921 1425 921 1461.5 915.5 c 128,-1,57
 1498 910 1498 910 1533 894.5 c 128,-1,58
 1568 879 1568 879 1600 851 c 128,-1,59
 1632 823 1632 823 1655.5 777.5 c 128,-1,60
 1679 732 1679 732 1693 667 c 128,-1,61
 1707 602 1707 602 1707 512 c 2,62,-1
 1707 408 l 2,63,64
 1707 319 1707 319 1693 253 c 128,-1,65
 1679 187 1679 187 1654.5 140 c 128,-1,66
 1630 93 1630 93 1598.5 63 c 128,-1,67
 1567 33 1567 33 1531.5 15.5 c 128,-1,68
 1496 -2 1496 -2 1459.5 -8.5 c 128,-1,69
 1423 -15 1423 -15 1390 -15 c 0,70,71
 1353 -15 1353 -15 1315 -8.5 c 128,-1,72
 1277 -2 1277 -2 1241.5 14.5 c 128,-1,73
 1206 31 1206 31 1175 61 c 128,-1,74
 1144 91 1144 91 1121 138 c 128,-1,75
 1098 185 1098 185 1084.5 251.5 c 128,-1,76
 1071 318 1071 318 1071 408 c 2,77,-1
 1071 512 l 2,48,49
1274 358 m 2,78,79
 1274 246 1274 246 1300.5 193 c 128,-1,80
 1327 140 1327 140 1392 140 c 0,81,82
 1454 140 1454 140 1479 193 c 128,-1,83
 1504 246 1504 246 1504 358 c 2,84,-1
 1504 546 l 2,85,86
 1504 659 1504 659 1479 712.5 c 128,-1,87
 1454 766 1454 766 1392 766 c 0,88,89
 1327 766 1327 766 1300.5 712.5 c 128,-1,90
 1274 659 1274 659 1274 546 c 2,91,-1
 1274 358 l 2,78,79
EndSplineSet
EndChar

StartChar: currency
Encoding: 164 164 233
Width: 1264
Flags: W
LayerCount: 2
Fore
SplineSet
110 499 m 1,0,-1
 289 655 l 1,1,2
 270 697 270 697 261.5 742 c 128,-1,3
 253 787 253 787 253 834 c 0,4,5
 253 885 253 885 262 934 c 128,-1,6
 271 983 271 983 291 1027 c 1,7,-1
 110 1186 l 1,8,-1
 247 1337 l 1,9,-1
 420 1179 l 1,10,11
 460 1203 460 1203 508.5 1216.5 c 128,-1,12
 557 1230 557 1230 617 1230 c 0,13,14
 683 1230 683 1230 736.5 1214.5 c 128,-1,15
 790 1199 790 1199 833 1170 c 1,16,-1
 1017 1337 l 1,17,-1
 1154 1186 l 1,18,-1
 960 1016 l 1,19,20
 995 932 995 932 995 834 c 0,21,22
 995 792 995 792 986.5 749.5 c 128,-1,23
 978 707 978 707 961 668 c 1,24,-1
 1154 499 l 1,25,-1
 1017 348 l 1,26,-1
 834 513 l 1,27,28
 791 484 791 484 737 467.5 c 128,-1,29
 683 451 683 451 617 451 c 0,30,31
 557 451 557 451 507.5 465 c 128,-1,32
 458 479 458 479 418 504 c 1,33,-1
 247 348 l 1,34,-1
 110 499 l 1,0,-1
617 672 m 0,35,36
 658 672 658 672 688.5 686 c 128,-1,37
 719 700 719 700 739 722.5 c 128,-1,38
 759 745 759 745 769 773.5 c 128,-1,39
 779 802 779 802 779 831 c 0,40,41
 779 867 779 867 769 899.5 c 128,-1,42
 759 932 759 932 739 956.5 c 128,-1,43
 719 981 719 981 688.5 995.5 c 128,-1,44
 658 1010 658 1010 617 1010 c 0,45,46
 581 1010 581 1010 554 995.5 c 128,-1,47
 527 981 527 981 510 956 c 128,-1,48
 493 931 493 931 484.5 899 c 128,-1,49
 476 867 476 867 476 831 c 0,50,51
 476 801 476 801 484.5 772.5 c 128,-1,52
 493 744 493 744 510.5 721.5 c 128,-1,53
 528 699 528 699 554.5 685.5 c 128,-1,54
 581 672 581 672 617 672 c 0,35,36
EndSplineSet
EndChar

StartChar: two
Encoding: 50 50 239
Width: 972
Flags: W
LayerCount: 2
Fore
SplineSet
96 150 m 1,0,-1
 469 862 l 2,1,2
 518 957 518 957 547.5 1027 c 128,-1,3
 577 1097 577 1097 592 1149.5 c 128,-1,4
 607 1202 607 1202 611.5 1240.5 c 128,-1,5
 616 1279 616 1279 616 1312 c 0,6,7
 616 1492 616 1492 470 1492 c 0,8,9
 390 1492 390 1492 347.5 1421 c 128,-1,10
 305 1350 305 1350 305 1217 c 2,11,-1
 305 1137 l 1,12,-1
 107 1137 l 1,13,14
 96 1191 96 1191 88 1237 c 128,-1,15
 80 1283 80 1283 80 1337 c 0,16,17
 80 1401 80 1401 102.5 1464.5 c 128,-1,18
 125 1528 125 1528 172.5 1578.5 c 128,-1,19
 220 1629 220 1629 293.5 1660.5 c 128,-1,20
 367 1692 367 1692 470 1692 c 0,21,22
 581 1692 581 1692 659.5 1666.5 c 128,-1,23
 738 1641 738 1641 788.5 1592 c 128,-1,24
 839 1543 839 1543 862.5 1472.5 c 128,-1,25
 886 1402 886 1402 886 1312 c 0,26,27
 886 1261 886 1261 877.5 1211.5 c 128,-1,28
 869 1162 869 1162 850 1105.5 c 128,-1,29
 831 1049 831 1049 800 982 c 128,-1,30
 769 915 769 915 724 829 c 2,31,-1
 390 200 l 1,32,-1
 884 200 l 1,33,-1
 884 0 l 1,34,-1
 96 0 l 1,35,-1
 96 150 l 1,0,-1
EndSplineSet
EndChar

StartChar: three
Encoding: 51 51 240
Width: 1015
Flags: W
LayerCount: 2
Fore
SplineSet
94 342 m 0,0,1
 94 384 94 384 100 435 c 128,-1,2
 106 486 106 486 119 540 c 1,3,-1
 319 540 l 1,4,-1
 319 461 l 2,5,6
 319 383 319 383 332 329.5 c 128,-1,7
 345 276 345 276 368.5 244 c 128,-1,8
 392 212 392 212 423.5 198 c 128,-1,9
 455 184 455 184 492 184 c 256,10,11
 529 184 529 184 558 194.5 c 128,-1,12
 587 205 587 205 607 228 c 128,-1,13
 627 251 627 251 638 288 c 128,-1,14
 649 325 649 325 649 378 c 2,15,-1
 649 557 l 2,16,17
 649 610 649 610 640 651.5 c 128,-1,18
 631 693 631 693 611 721 c 128,-1,19
 591 749 591 749 557 763.5 c 128,-1,20
 523 778 523 778 474 778 c 2,21,-1
 366 778 l 1,22,-1
 366 960 l 1,23,-1
 474 960 l 2,24,25
 506 960 506 960 533.5 970.5 c 128,-1,26
 561 981 561 981 581 1003.5 c 128,-1,27
 601 1026 601 1026 612.5 1062.5 c 128,-1,28
 624 1099 624 1099 624 1151 c 2,29,-1
 624 1313 l 2,30,31
 624 1406 624 1406 588.5 1449 c 128,-1,32
 553 1492 553 1492 481 1492 c 0,33,34
 401 1492 401 1492 358 1421 c 128,-1,35
 315 1350 315 1350 315 1217 c 2,36,-1
 315 1137 l 1,37,-1
 117 1137 l 1,38,39
 106 1185 106 1185 98 1234 c 128,-1,40
 90 1283 90 1283 90 1337 c 0,41,42
 90 1401 90 1401 113.5 1464.5 c 128,-1,43
 137 1528 137 1528 185.5 1578.5 c 128,-1,44
 234 1629 234 1629 307.5 1660.5 c 128,-1,45
 381 1692 381 1692 481 1692 c 0,46,47
 589 1692 589 1692 666 1667.5 c 128,-1,48
 743 1643 743 1643 792.5 1595.5 c 128,-1,49
 842 1548 842 1548 865 1479 c 128,-1,50
 888 1410 888 1410 888 1321 c 2,51,-1
 888 1218 l 2,52,53
 888 1147 888 1147 870 1091.5 c 128,-1,54
 852 1036 852 1036 822.5 994.5 c 128,-1,55
 793 953 793 953 755.5 924 c 128,-1,56
 718 895 718 895 680 877 c 1,57,-1
 680 869 l 1,58,59
 729 852 729 852 772 825 c 128,-1,60
 815 798 815 798 846 756 c 128,-1,61
 877 714 877 714 895 654 c 128,-1,62
 913 594 913 594 913 511 c 2,63,-1
 913 401 l 2,64,65
 913 285 913 285 879.5 205.5 c 128,-1,66
 846 126 846 126 788 77 c 128,-1,67
 730 28 730 28 653.5 6.5 c 128,-1,68
 577 -15 577 -15 492 -15 c 0,69,70
 298 -15 298 -15 196 78.5 c 128,-1,71
 94 172 94 172 94 342 c 0,0,1
EndSplineSet
EndChar

StartChar: four
Encoding: 52 52 241
Width: 1079
Flags: W
LayerCount: 2
Fore
SplineSet
75 434 m 1,0,-1
 568 1677 l 1,1,-1
 874 1677 l 1,2,-1
 874 500 l 1,3,-1
 1031 500 l 1,4,-1
 1031 300 l 1,5,-1
 874 300 l 1,6,-1
 874 0 l 1,7,-1
 636 0 l 1,8,-1
 636 300 l 1,9,-1
 75 300 l 1,10,-1
 75 434 l 1,0,-1
636 500 m 1,11,-1
 636 748 l 1,12,-1
 661 1311 l 1,13,-1
 630 1311 l 1,14,-1
 337 500 l 1,15,-1
 636 500 l 1,11,-1
EndSplineSet
EndChar

StartChar: five
Encoding: 53 53 242
Width: 1010
Flags: W
LayerCount: 2
Fore
SplineSet
120 345 m 0,0,1
 120 434 120 434 145 540 c 1,2,-1
 345 540 l 1,3,-1
 345 407 l 2,4,5
 345 288 345 288 380 235.5 c 128,-1,6
 415 183 415 183 495 183 c 0,7,8
 576 183 576 183 610 240.5 c 128,-1,9
 644 298 644 298 644 407 c 2,10,-1
 644 725 l 2,11,12
 644 788 644 788 633 827.5 c 128,-1,13
 622 867 622 867 603 889 c 128,-1,14
 584 911 584 911 558.5 919 c 128,-1,15
 533 927 533 927 504 927 c 0,16,17
 448 927 448 927 409 896 c 128,-1,18
 370 865 370 865 344 821 c 1,19,-1
 154 821 l 1,20,-1
 154 1677 l 1,21,-1
 881 1677 l 1,22,-1
 881 1453 l 1,23,-1
 368 1453 l 1,24,-1
 368 1038 l 1,25,26
 410 1085 410 1085 472.5 1112 c 128,-1,27
 535 1139 535 1139 604 1139 c 0,28,29
 762 1139 762 1139 835 1034 c 128,-1,30
 908 929 908 929 908 723 c 2,31,-1
 908 439 l 2,32,33
 908 310 908 310 874.5 222.5 c 128,-1,34
 841 135 841 135 785 82.5 c 128,-1,35
 729 30 729 30 657 7.5 c 128,-1,36
 585 -15 585 -15 507 -15 c 0,37,38
 412 -15 412 -15 340 10 c 128,-1,39
 268 35 268 35 219 82 c 128,-1,40
 170 129 170 129 145 195.5 c 128,-1,41
 120 262 120 262 120 345 c 0,0,1
EndSplineSet
EndChar

StartChar: six
Encoding: 54 54 243
Width: 1030
Flags: W
LayerCount: 2
Fore
SplineSet
102 1187 m 2,0,1
 102 1303 102 1303 122.5 1385.5 c 128,-1,2
 143 1468 143 1468 177 1524.5 c 128,-1,3
 211 1581 211 1581 255 1614 c 128,-1,4
 299 1647 299 1647 346 1664.5 c 128,-1,5
 393 1682 393 1682 439 1687 c 128,-1,6
 485 1692 485 1692 524 1692 c 0,7,8
 629 1692 629 1692 703 1662.5 c 128,-1,9
 777 1633 777 1633 824 1586 c 128,-1,10
 871 1539 871 1539 892.5 1480 c 128,-1,11
 914 1421 914 1421 914 1363 c 0,12,13
 914 1328 914 1328 907.5 1287 c 128,-1,14
 901 1246 901 1246 887 1205 c 1,15,-1
 689 1205 l 1,16,-1
 689 1242 l 2,17,18
 689 1321 689 1321 679.5 1371.5 c 128,-1,19
 670 1422 670 1422 650 1450.5 c 128,-1,20
 630 1479 630 1479 599 1489.5 c 128,-1,21
 568 1500 568 1500 524 1500 c 0,22,23
 484 1500 484 1500 454 1489 c 128,-1,24
 424 1478 424 1478 404 1452.5 c 128,-1,25
 384 1427 384 1427 374 1384.5 c 128,-1,26
 364 1342 364 1342 364 1279 c 2,27,-1
 364 951 l 1,28,29
 402 991 402 991 460 1019.5 c 128,-1,30
 518 1048 518 1048 598 1048 c 0,31,32
 655 1048 655 1048 714.5 1030 c 128,-1,33
 774 1012 774 1012 822.5 965.5 c 128,-1,34
 871 919 871 919 902 838.5 c 128,-1,35
 933 758 933 758 933 634 c 2,36,-1
 933 471 l 2,37,38
 933 337 933 337 904.5 244 c 128,-1,39
 876 151 876 151 824 93.5 c 128,-1,40
 772 36 772 36 697.5 10.5 c 128,-1,41
 623 -15 623 -15 532 -15 c 0,42,43
 428 -15 428 -15 348 12.5 c 128,-1,44
 268 40 268 40 213 101 c 128,-1,45
 158 162 158 162 130 259.5 c 128,-1,46
 102 357 102 357 102 498 c 2,47,-1
 102 1187 l 2,0,1
364 400 m 2,48,49
 364 285 364 285 403 234.5 c 128,-1,50
 442 184 442 184 529 184 c 0,51,52
 605 184 605 184 638 238 c 128,-1,53
 671 292 671 292 671 400 c 2,54,-1
 671 643 l 2,55,56
 671 703 671 703 661 744.5 c 128,-1,57
 651 786 651 786 632.5 811 c 128,-1,58
 614 836 614 836 586.5 847 c 128,-1,59
 559 858 559 858 525 858 c 0,60,61
 498 858 498 858 474 850 c 128,-1,62
 450 842 450 842 430 829 c 128,-1,63
 410 816 410 816 393 799.5 c 128,-1,64
 376 783 376 783 364 766 c 1,65,-1
 364 400 l 2,48,49
EndSplineSet
EndChar

StartChar: seven
Encoding: 55 55 244
Width: 830
Flags: W
LayerCount: 2
Fore
SplineSet
533 1454 m 1,0,-1
 36 1454 l 1,1,-1
 36 1678 l 1,2,-1
 808 1678 l 1,3,-1
 808 1544 l 1,4,-1
 343 0 l 1,5,-1
 64 0 l 1,6,-1
 533 1454 l 1,0,-1
EndSplineSet
EndChar

StartChar: eight
Encoding: 56 56 245
Width: 1022
Flags: W
LayerCount: 2
Fore
SplineSet
81 509 m 2,0,1
 81 583 81 583 97 640 c 128,-1,2
 113 697 113 697 141 740.5 c 128,-1,3
 169 784 169 784 207.5 815 c 128,-1,4
 246 846 246 846 291 868 c 1,5,-1
 291 876 l 1,6,7
 258 893 258 893 225 920 c 128,-1,8
 192 947 192 947 165 985.5 c 128,-1,9
 138 1024 138 1024 121.5 1076.5 c 128,-1,10
 105 1129 105 1129 105 1197 c 2,11,-1
 105 1315 l 2,12,13
 105 1397 105 1397 124.5 1457 c 128,-1,14
 144 1517 144 1517 176.5 1558.5 c 128,-1,15
 209 1600 209 1600 251.5 1626.5 c 128,-1,16
 294 1653 294 1653 339 1667.5 c 128,-1,17
 384 1682 384 1682 429 1687 c 128,-1,18
 474 1692 474 1692 512 1692 c 256,19,20
 550 1692 550 1692 595 1687 c 128,-1,21
 640 1682 640 1682 685.5 1667.5 c 128,-1,22
 731 1653 731 1653 773 1627 c 128,-1,23
 815 1601 815 1601 848 1559 c 128,-1,24
 881 1517 881 1517 900.5 1457.5 c 128,-1,25
 920 1398 920 1398 920 1316 c 2,26,-1
 920 1198 l 2,27,28
 920 1130 920 1130 903.5 1077.5 c 128,-1,29
 887 1025 887 1025 860 986.5 c 128,-1,30
 833 948 833 948 800 921 c 128,-1,31
 767 894 767 894 734 877 c 1,32,-1
 734 869 l 1,33,34
 779 847 779 847 817.5 816 c 128,-1,35
 856 785 856 785 884 741.5 c 128,-1,36
 912 698 912 698 928 641 c 128,-1,37
 944 584 944 584 944 510 c 2,38,-1
 944 407 l 2,39,40
 944 278 944 278 905 195.5 c 128,-1,41
 866 113 866 113 804 66.5 c 128,-1,42
 742 20 742 20 665 2.5 c 128,-1,43
 588 -15 588 -15 511 -15 c 0,44,45
 460 -15 460 -15 408 -8 c 128,-1,46
 356 -1 356 -1 308.5 17.5 c 128,-1,47
 261 36 261 36 219.5 66.5 c 128,-1,48
 178 97 178 97 147 143.5 c 128,-1,49
 116 190 116 190 98.5 255 c 128,-1,50
 81 320 81 320 81 406 c 2,51,-1
 81 509 l 2,0,1
524 959 m 2,52,53
 553 959 553 959 577.5 968 c 128,-1,54
 602 977 602 977 620 999.5 c 128,-1,55
 638 1022 638 1022 648.5 1060.5 c 128,-1,56
 659 1099 659 1099 659 1157 c 2,57,-1
 659 1280 l 2,58,59
 659 1385 659 1385 625.5 1438.5 c 128,-1,60
 592 1492 592 1492 512 1492 c 256,61,62
 432 1492 432 1492 399 1438 c 128,-1,63
 366 1384 366 1384 366 1279 c 2,64,-1
 366 1156 l 2,65,66
 366 1100 366 1100 375 1062.5 c 128,-1,67
 384 1025 384 1025 401.5 1002 c 128,-1,68
 419 979 419 979 443.5 969 c 128,-1,69
 468 959 468 959 500 959 c 2,70,-1
 524 959 l 2,52,53
345 393 m 2,71,72
 345 329 345 329 358.5 288.5 c 128,-1,73
 372 248 372 248 395 224.5 c 128,-1,74
 418 201 418 201 448 192.5 c 128,-1,75
 478 184 478 184 511 184 c 256,76,77
 544 184 544 184 574.5 193 c 128,-1,78
 605 202 605 202 628.5 225 c 128,-1,79
 652 248 652 248 666 289 c 128,-1,80
 680 330 680 330 680 394 c 2,81,-1
 680 572 l 2,82,83
 680 681 680 681 638 729 c 128,-1,84
 596 777 596 777 524 777 c 2,85,-1
 499 777 l 2,86,87
 427 777 427 777 386 727.5 c 128,-1,88
 345 678 345 678 345 571 c 2,89,-1
 345 393 l 2,71,72
EndSplineSet
EndChar

StartChar: question
Encoding: 63 63 247
Width: 1006
Flags: W
LayerCount: 2
Fore
SplineSet
383 747 m 2,0,1
 383 786 383 786 385 815.5 c 128,-1,2
 387 845 387 845 393.5 871 c 128,-1,3
 400 897 400 897 413 924 c 128,-1,4
 426 951 426 951 448 985 c 2,5,-1
 564 1168 l 2,6,7
 602 1228 602 1228 624 1293.5 c 128,-1,8
 646 1359 646 1359 646 1414 c 0,9,10
 646 1454 646 1454 635 1487 c 128,-1,11
 624 1520 624 1520 604 1544 c 128,-1,12
 584 1568 584 1568 555 1581 c 128,-1,13
 526 1594 526 1594 490 1594 c 0,14,15
 410 1594 410 1594 372.5 1523 c 128,-1,16
 335 1452 335 1452 335 1319 c 2,17,-1
 335 1239 l 1,18,-1
 133 1239 l 1,19,20
 122 1293 122 1293 114 1339 c 128,-1,21
 106 1385 106 1385 106 1439 c 0,22,23
 106 1513 106 1513 129 1578 c 128,-1,24
 152 1643 152 1643 200 1691 c 128,-1,25
 248 1739 248 1739 322.5 1766.5 c 128,-1,26
 397 1794 397 1794 500 1794 c 0,27,28
 602 1794 602 1794 679 1767 c 128,-1,29
 756 1740 756 1740 807 1690.5 c 128,-1,30
 858 1641 858 1641 883.5 1570.5 c 128,-1,31
 909 1500 909 1500 909 1414 c 0,32,33
 909 1365 909 1365 901 1320 c 128,-1,34
 893 1275 893 1275 876 1230 c 128,-1,35
 859 1185 859 1185 832 1138.5 c 128,-1,36
 805 1092 805 1092 767 1041 c 2,37,-1
 688 935 l 2,38,39
 660 897 660 897 643 869 c 128,-1,40
 626 841 626 841 616.5 814.5 c 128,-1,41
 607 788 607 788 604 758.5 c 128,-1,42
 601 729 601 729 601 688 c 2,43,-1
 601 547 l 1,44,-1
 382 547 l 1,45,-1
 383 747 l 2,0,1
351 174 m 0,46,47
 351 277 351 277 392.5 322 c 128,-1,48
 434 367 434 367 506 367 c 0,49,50
 580 367 580 367 620.5 319 c 128,-1,51
 661 271 661 271 661 174 c 0,52,53
 661 84 661 84 620 35 c 128,-1,54
 579 -14 579 -14 505 -14 c 0,55,56
 435 -14 435 -14 393 34 c 128,-1,57
 351 82 351 82 351 174 c 0,46,47
EndSplineSet
EndChar

StartChar: multiply
Encoding: 215 215 249
Width: 842
Flags: W
LayerCount: 2
Fore
SplineSet
60 536 m 1,0,-1
 292 768 l 1,1,-1
 60 1000 l 1,2,-1
 189 1129 l 1,3,-1
 421 897 l 1,4,-1
 653 1129 l 1,5,-1
 782 1000 l 1,6,-1
 550 768 l 1,7,-1
 782 536 l 1,8,-1
 653 407 l 1,9,-1
 421 639 l 1,10,-1
 189 407 l 1,11,-1
 60 536 l 1,0,-1
EndSplineSet
EndChar

StartChar: sterling
Encoding: 163 163 250
Width: 986
Flags: W
LayerCount: 2
Fore
SplineSet
92 150 m 1,0,1
 133 168 133 168 153.5 209.5 c 128,-1,2
 174 251 174 251 181.5 308 c 128,-1,3
 189 365 189 365 188.5 434.5 c 128,-1,4
 188 504 188 504 188 580 c 2,5,-1
 188 688 l 1,6,-1
 60 688 l 1,7,-1
 60 864 l 1,8,-1
 188 864 l 1,9,-1
 188 1202 l 2,10,11
 188 1446 188 1446 279 1569 c 128,-1,12
 370 1692 370 1692 570 1692 c 0,13,14
 664 1692 664 1692 730 1663 c 128,-1,15
 796 1634 796 1634 838 1586 c 128,-1,16
 880 1538 880 1538 899 1476 c 128,-1,17
 918 1414 918 1414 918 1347 c 0,18,19
 918 1299 918 1299 911 1245 c 128,-1,20
 904 1191 904 1191 892 1137 c 1,21,-1
 693 1137 l 1,22,-1
 693 1206 l 2,23,24
 693 1285 693 1285 684 1340 c 128,-1,25
 675 1395 675 1395 658 1428.5 c 128,-1,26
 641 1462 641 1462 617 1477 c 128,-1,27
 593 1492 593 1492 563 1492 c 0,28,29
 532 1492 532 1492 509 1478.5 c 128,-1,30
 486 1465 486 1465 471 1432 c 128,-1,31
 456 1399 456 1399 448.5 1343 c 128,-1,32
 441 1287 441 1287 441 1202 c 2,33,-1
 441 864 l 1,34,-1
 717 864 l 1,35,-1
 717 688 l 1,36,-1
 441 688 l 1,37,-1
 441 553 l 2,38,39
 441 435 441 435 423.5 349 c 128,-1,40
 406 263 406 263 363 200 c 1,41,-1
 894 200 l 1,42,-1
 894 0 l 1,43,-1
 92 0 l 1,44,-1
 92 150 l 1,0,1
EndSplineSet
EndChar

StartChar: braceleft
Encoding: 123 123 251
Width: 877
Flags: W
LayerCount: 2
Fore
SplineSet
276 536 m 2,0,1
 276 594 276 594 266 633 c 128,-1,2
 256 672 256 672 236.5 695.5 c 128,-1,3
 217 719 217 719 188 730 c 128,-1,4
 159 741 159 741 122 743 c 2,5,-1
 70 746 l 1,6,-1
 70 920 l 1,7,-1
 121 923 l 2,8,9
 158 925 158 925 187 936 c 128,-1,10
 216 947 216 947 235.5 970.5 c 128,-1,11
 255 994 255 994 265 1032.5 c 128,-1,12
 275 1071 275 1071 275 1129 c 2,13,-1
 275 1536 l 2,14,15
 275 1637 275 1637 301.5 1708 c 128,-1,16
 328 1779 328 1779 373 1824 c 128,-1,17
 418 1869 418 1869 477.5 1889.5 c 128,-1,18
 537 1910 537 1910 604 1910 c 0,19,20
 636 1910 636 1910 675 1903 c 128,-1,21
 714 1896 714 1896 752 1884 c 1,22,-1
 752 1735 l 1,23,-1
 715 1735 l 2,24,25
 654 1735 654 1735 612.5 1728 c 128,-1,26
 571 1721 571 1721 545.5 1705.5 c 128,-1,27
 520 1690 520 1690 509 1664 c 128,-1,28
 498 1638 498 1638 498 1600 c 2,29,-1
 498 1210 l 2,30,31
 498 1139 498 1139 490.5 1080.5 c 128,-1,32
 483 1022 483 1022 464.5 976.5 c 128,-1,33
 446 931 446 931 415 898.5 c 128,-1,34
 384 866 384 866 338 845 c 1,35,-1
 338 820 l 1,36,37
 383 799 383 799 414 766 c 128,-1,38
 445 733 445 733 463.5 687.5 c 128,-1,39
 482 642 482 642 490 584 c 128,-1,40
 498 526 498 526 498 455 c 2,41,-1
 498 61 l 2,42,43
 498 23 498 23 509 -3 c 128,-1,44
 520 -29 520 -29 545.5 -44.5 c 128,-1,45
 571 -60 571 -60 612.5 -67 c 128,-1,46
 654 -74 654 -74 715 -74 c 2,47,-1
 752 -74 l 1,48,-1
 752 -223 l 1,49,50
 714 -235 714 -235 675 -242 c 128,-1,51
 636 -249 636 -249 604 -249 c 0,52,53
 537 -249 537 -249 477.5 -228.5 c 128,-1,54
 418 -208 418 -208 373 -163 c 128,-1,55
 328 -118 328 -118 302 -47 c 128,-1,56
 276 24 276 24 276 125 c 2,57,-1
 276 536 l 2,0,1
EndSplineSet
EndChar

StartChar: braceright
Encoding: 125 125 252
Width: 877
Flags: W
LayerCount: 2
Fore
SplineSet
162 -74 m 2,0,1
 223 -74 223 -74 264.5 -67 c 128,-1,2
 306 -60 306 -60 331.5 -44.5 c 128,-1,3
 357 -29 357 -29 368 -3 c 128,-1,4
 379 23 379 23 379 61 c 2,5,-1
 379 455 l 2,6,7
 379 526 379 526 387 584 c 128,-1,8
 395 642 395 642 413.5 687.5 c 128,-1,9
 432 733 432 733 463 766 c 128,-1,10
 494 799 494 799 539 820 c 1,11,-1
 539 845 l 1,12,13
 492 866 492 866 461.5 898.5 c 128,-1,14
 431 931 431 931 412.5 976.5 c 128,-1,15
 394 1022 394 1022 386.5 1080.5 c 128,-1,16
 379 1139 379 1139 379 1210 c 2,17,-1
 379 1600 l 2,18,19
 379 1638 379 1638 368 1664 c 128,-1,20
 357 1690 357 1690 331.5 1705.5 c 128,-1,21
 306 1721 306 1721 264.5 1728 c 128,-1,22
 223 1735 223 1735 162 1735 c 2,23,-1
 125 1735 l 1,24,-1
 125 1884 l 1,25,26
 163 1896 163 1896 202 1903 c 128,-1,27
 241 1910 241 1910 273 1910 c 0,28,29
 340 1910 340 1910 399.5 1889.5 c 128,-1,30
 459 1869 459 1869 504 1824 c 128,-1,31
 549 1779 549 1779 575.5 1708 c 128,-1,32
 602 1637 602 1637 602 1536 c 2,33,-1
 602 1129 l 2,34,35
 602 1071 602 1071 612 1032.5 c 128,-1,36
 622 994 622 994 641.5 970.5 c 128,-1,37
 661 947 661 947 689.5 936 c 128,-1,38
 718 925 718 925 756 923 c 2,39,-1
 807 920 l 1,40,-1
 807 746 l 1,41,-1
 755 743 l 2,42,43
 717 741 717 741 688.5 730 c 128,-1,44
 660 719 660 719 640.5 695.5 c 128,-1,45
 621 672 621 672 611 633 c 128,-1,46
 601 594 601 594 601 536 c 2,47,-1
 601 125 l 2,48,49
 601 24 601 24 575 -47 c 128,-1,50
 549 -118 549 -118 504 -163 c 128,-1,51
 459 -208 459 -208 399.5 -228.5 c 128,-1,52
 340 -249 340 -249 273 -249 c 0,53,54
 241 -249 241 -249 202 -242 c 128,-1,55
 163 -235 163 -235 125 -223 c 1,56,-1
 125 -74 l 1,57,-1
 162 -74 l 2,0,1
EndSplineSet
EndChar

StartChar: twosuperior
Encoding: 178 178 253
Width: 846
Flags: W
LayerCount: 2
Fore
SplineSet
110 773 m 1,0,-1
 373 1160 l 1,1,2
 412 1215 412 1215 435 1258 c 128,-1,3
 458 1301 458 1301 469.5 1335 c 128,-1,4
 481 1369 481 1369 484.5 1396 c 128,-1,5
 488 1423 488 1423 488 1447 c 0,6,7
 488 1502 488 1502 465.5 1527 c 128,-1,8
 443 1552 443 1552 398 1552 c 0,9,10
 354 1552 354 1552 326.5 1514.5 c 128,-1,11
 299 1477 299 1477 299 1405 c 2,12,-1
 299 1353 l 1,13,-1
 117 1353 l 1,14,15
 114 1372 114 1372 111 1386.5 c 128,-1,16
 108 1401 108 1401 106.5 1413 c 128,-1,17
 105 1425 105 1425 104 1436.5 c 128,-1,18
 103 1448 103 1448 103 1462 c 0,19,20
 103 1517 103 1517 123.5 1563 c 128,-1,21
 144 1609 144 1609 183 1642 c 128,-1,22
 222 1675 222 1675 279 1693.5 c 128,-1,23
 336 1712 336 1712 409 1712 c 0,24,25
 458 1712 458 1712 513.5 1702.5 c 128,-1,26
 569 1693 569 1693 616 1664.5 c 128,-1,27
 663 1636 663 1636 694 1584 c 128,-1,28
 725 1532 725 1532 725 1447 c 0,29,30
 725 1410 725 1410 718.5 1374 c 128,-1,31
 712 1338 712 1338 695.5 1297.5 c 128,-1,32
 679 1257 679 1257 651.5 1209.5 c 128,-1,33
 624 1162 624 1162 581 1103 c 1,34,-1
 385 826 l 1,35,-1
 726 826 l 1,36,-1
 726 658 l 1,37,-1
 110 658 l 1,38,-1
 110 773 l 1,0,-1
EndSplineSet
EndChar

StartChar: threesuperior
Encoding: 179 179 254
Width: 843
Flags: W
LayerCount: 2
Fore
SplineSet
392 648 m 0,0,1
 308 648 308 648 248.5 669 c 128,-1,2
 189 690 189 690 151.5 723.5 c 128,-1,3
 114 757 114 757 97 800 c 128,-1,4
 80 843 80 843 80 888 c 0,5,6
 80 918 80 918 83 947 c 128,-1,7
 86 976 86 976 94 1017 c 1,8,-1
 278 1017 l 1,9,-1
 278 972 l 2,10,11
 278 926 278 926 287 894.5 c 128,-1,12
 296 863 296 863 311 843.5 c 128,-1,13
 326 824 326 824 347 815.5 c 128,-1,14
 368 807 368 807 392 807 c 0,15,16
 453 807 453 807 478 839.5 c 128,-1,17
 503 872 503 872 503 920 c 2,18,-1
 503 991 l 2,19,20
 503 1063 503 1063 469.5 1094.5 c 128,-1,21
 436 1126 436 1126 388 1126 c 2,22,-1
 309 1126 l 1,23,-1
 309 1257 l 1,24,-1
 388 1257 l 2,25,26
 410 1257 410 1257 429 1263.5 c 128,-1,27
 448 1270 448 1270 462 1284.5 c 128,-1,28
 476 1299 476 1299 484.5 1322.5 c 128,-1,29
 493 1346 493 1346 493 1379 c 2,30,-1
 493 1448 l 2,31,32
 493 1493 493 1493 470 1523 c 128,-1,33
 447 1553 447 1553 392 1553 c 0,34,35
 370 1553 370 1553 351 1545 c 128,-1,36
 332 1537 332 1537 318 1519 c 128,-1,37
 304 1501 304 1501 296 1471 c 128,-1,38
 288 1441 288 1441 288 1398 c 2,39,-1
 288 1353 l 1,40,-1
 108 1353 l 1,41,42
 100 1391 100 1391 97 1417.5 c 128,-1,43
 94 1444 94 1444 94 1472 c 0,44,45
 94 1517 94 1517 111.5 1560 c 128,-1,46
 129 1603 129 1603 166 1636.5 c 128,-1,47
 203 1670 203 1670 261 1691 c 128,-1,48
 319 1712 319 1712 400 1712 c 0,49,50
 452 1712 452 1712 507.5 1701.5 c 128,-1,51
 563 1691 563 1691 608.5 1663 c 128,-1,52
 654 1635 654 1635 683.5 1585.5 c 128,-1,53
 713 1536 713 1536 713 1458 c 2,54,-1
 713 1397 l 1,55,56
 705 1329 705 1329 675.5 1276 c 128,-1,57
 646 1223 646 1223 582 1196 c 1,58,-1
 582 1188 l 1,59,60
 649 1161 649 1161 686 1106.5 c 128,-1,61
 723 1052 723 1052 723 983 c 2,62,-1
 723 920 l 2,63,64
 723 835 723 835 691.5 782 c 128,-1,65
 660 729 660 729 611 699 c 128,-1,66
 562 669 562 669 504 658.5 c 128,-1,67
 446 648 446 648 392 648 c 0,0,1
EndSplineSet
EndChar

StartChar: onesuperior
Encoding: 185 185 255
Width: 752
Flags: W
LayerCount: 2
Fore
SplineSet
153 816 m 1,0,-1
 279 816 l 1,1,-1
 279 1410 l 1,2,-1
 148 1301 l 1,3,-1
 60 1429 l 1,4,-1
 323 1678 l 1,5,-1
 499 1678 l 1,6,-1
 499 816 l 1,7,-1
 632 816 l 1,8,-1
 632 658 l 1,9,-1
 153 658 l 1,10,-1
 153 816 l 1,0,-1
EndSplineSet
EndChar

StartChar: onequarter
Encoding: 188 188 256
Width: 1797
Flags: W
LayerCount: 2
Fore
SplineSet
1037 1678 m 1,0,-1
 1217 1678 l 1,1,-1
 762 0 l 1,2,-1
 582 0 l 1,3,-1
 1037 1678 l 1,0,-1
193 816 m 1,4,-1
 319 816 l 1,5,-1
 319 1410 l 1,6,-1
 188 1301 l 1,7,-1
 100 1429 l 1,8,-1
 363 1678 l 1,9,-1
 539 1678 l 1,10,-1
 539 816 l 1,11,-1
 672 816 l 1,12,-1
 672 658 l 1,13,-1
 193 658 l 1,14,-1
 193 816 l 1,4,-1
987 273 m 1,15,-1
 1356 1039 l 1,16,-1
 1611 1039 l 1,17,-1
 1611 330 l 1,18,-1
 1697 330 l 1,19,-1
 1697 180 l 1,20,-1
 1611 180 l 1,21,-1
 1611 1 l 1,22,-1
 1391 1 l 1,23,-1
 1391 180 l 1,24,-1
 987 180 l 1,25,-1
 987 273 l 1,15,-1
1391 330 m 1,26,-1
 1391 366 l 1,27,-1
 1417 774 l 1,28,-1
 1405 774 l 1,29,-1
 1206 330 l 1,30,-1
 1391 330 l 1,26,-1
EndSplineSet
EndChar

StartChar: onehalf
Encoding: 189 189 257
Width: 1833
Flags: W
LayerCount: 2
Fore
SplineSet
1037 1678 m 1,0,-1
 1217 1678 l 1,1,-1
 762 0 l 1,2,-1
 582 0 l 1,3,-1
 1037 1678 l 1,0,-1
193 816 m 1,4,-1
 319 816 l 1,5,-1
 319 1410 l 1,6,-1
 188 1301 l 1,7,-1
 100 1429 l 1,8,-1
 363 1678 l 1,9,-1
 539 1678 l 1,10,-1
 539 816 l 1,11,-1
 672 816 l 1,12,-1
 672 658 l 1,13,-1
 193 658 l 1,14,-1
 193 816 l 1,4,-1
1107 115 m 1,15,-1
 1370 502 l 1,16,17
 1409 557 1409 557 1432 600 c 128,-1,18
 1455 643 1455 643 1466.5 677 c 128,-1,19
 1478 711 1478 711 1481.5 738 c 128,-1,20
 1485 765 1485 765 1485 789 c 0,21,22
 1485 844 1485 844 1462.5 869 c 128,-1,23
 1440 894 1440 894 1395 894 c 0,24,25
 1351 894 1351 894 1323.5 856.5 c 128,-1,26
 1296 819 1296 819 1296 747 c 2,27,-1
 1296 695 l 1,28,-1
 1114 695 l 1,29,30
 1111 714 1111 714 1108 728.5 c 128,-1,31
 1105 743 1105 743 1103.5 755 c 128,-1,32
 1102 767 1102 767 1101 778.5 c 128,-1,33
 1100 790 1100 790 1100 804 c 0,34,35
 1100 859 1100 859 1120.5 905 c 128,-1,36
 1141 951 1141 951 1180 984 c 128,-1,37
 1219 1017 1219 1017 1276 1035.5 c 128,-1,38
 1333 1054 1333 1054 1406 1054 c 0,39,40
 1455 1054 1455 1054 1510.5 1044.5 c 128,-1,41
 1566 1035 1566 1035 1613 1006.5 c 128,-1,42
 1660 978 1660 978 1691 926 c 128,-1,43
 1722 874 1722 874 1722 789 c 0,44,45
 1722 752 1722 752 1715.5 716 c 128,-1,46
 1709 680 1709 680 1692.5 639.5 c 128,-1,47
 1676 599 1676 599 1648.5 551.5 c 128,-1,48
 1621 504 1621 504 1578 445 c 1,49,-1
 1382 168 l 1,50,-1
 1723 168 l 1,51,-1
 1723 0 l 1,52,-1
 1107 0 l 1,53,-1
 1107 115 l 1,15,-1
EndSplineSet
EndChar

StartChar: threequarters
Encoding: 190 190 258
Width: 1841
Flags: W
LayerCount: 2
Fore
SplineSet
422 648 m 0,0,1
 338 648 338 648 278.5 669 c 128,-1,2
 219 690 219 690 181.5 723.5 c 128,-1,3
 144 757 144 757 127 800 c 128,-1,4
 110 843 110 843 110 888 c 0,5,6
 110 918 110 918 113 947 c 128,-1,7
 116 976 116 976 124 1017 c 1,8,-1
 308 1017 l 1,9,-1
 308 972 l 2,10,11
 308 926 308 926 317 894.5 c 128,-1,12
 326 863 326 863 341 843.5 c 128,-1,13
 356 824 356 824 377 815.5 c 128,-1,14
 398 807 398 807 422 807 c 0,15,16
 483 807 483 807 508 839.5 c 128,-1,17
 533 872 533 872 533 920 c 2,18,-1
 533 991 l 2,19,20
 533 1063 533 1063 499.5 1094.5 c 128,-1,21
 466 1126 466 1126 418 1126 c 2,22,-1
 339 1126 l 1,23,-1
 339 1257 l 1,24,-1
 418 1257 l 2,25,26
 440 1257 440 1257 459 1263.5 c 128,-1,27
 478 1270 478 1270 492 1284.5 c 128,-1,28
 506 1299 506 1299 514.5 1322.5 c 128,-1,29
 523 1346 523 1346 523 1379 c 2,30,-1
 523 1448 l 2,31,32
 523 1493 523 1493 500 1523 c 128,-1,33
 477 1553 477 1553 422 1553 c 0,34,35
 400 1553 400 1553 381 1545 c 128,-1,36
 362 1537 362 1537 348 1519 c 128,-1,37
 334 1501 334 1501 326 1471 c 128,-1,38
 318 1441 318 1441 318 1398 c 2,39,-1
 318 1353 l 1,40,-1
 138 1353 l 1,41,42
 130 1391 130 1391 127 1417.5 c 128,-1,43
 124 1444 124 1444 124 1472 c 0,44,45
 124 1517 124 1517 141.5 1560 c 128,-1,46
 159 1603 159 1603 196 1636.5 c 128,-1,47
 233 1670 233 1670 291 1691 c 128,-1,48
 349 1712 349 1712 430 1712 c 0,49,50
 482 1712 482 1712 537.5 1701.5 c 128,-1,51
 593 1691 593 1691 638.5 1663 c 128,-1,52
 684 1635 684 1635 713.5 1585.5 c 128,-1,53
 743 1536 743 1536 743 1458 c 2,54,-1
 743 1397 l 1,55,56
 735 1329 735 1329 705.5 1276 c 128,-1,57
 676 1223 676 1223 612 1196 c 1,58,-1
 612 1188 l 1,59,60
 679 1161 679 1161 716 1106.5 c 128,-1,61
 753 1052 753 1052 753 983 c 2,62,-1
 753 920 l 2,63,64
 753 835 753 835 721.5 782 c 128,-1,65
 690 729 690 729 641 699 c 128,-1,66
 592 669 592 669 534 658.5 c 128,-1,67
 476 648 476 648 422 648 c 0,0,1
1081 1678 m 1,68,-1
 1261 1678 l 1,69,-1
 806 0 l 1,70,-1
 626 0 l 1,71,-1
 1081 1678 l 1,68,-1
1031 273 m 1,72,-1
 1400 1039 l 1,73,-1
 1655 1039 l 1,74,-1
 1655 330 l 1,75,-1
 1741 330 l 1,76,-1
 1741 180 l 1,77,-1
 1655 180 l 1,78,-1
 1655 1 l 1,79,-1
 1435 1 l 1,80,-1
 1435 180 l 1,81,-1
 1031 180 l 1,82,-1
 1031 273 l 1,72,-1
1435 330 m 1,83,-1
 1435 366 l 1,84,-1
 1461 774 l 1,85,-1
 1449 774 l 1,86,-1
 1250 330 l 1,87,-1
 1435 330 l 1,83,-1
EndSplineSet
EndChar

StartChar: germandbls
Encoding: 223 223 259
Width: 1016
Flags: W
LayerCount: 2
Fore
SplineSet
128 1369 m 2,0,1
 128 1472 128 1472 156 1548.5 c 128,-1,2
 184 1625 184 1625 235.5 1676 c 128,-1,3
 287 1727 287 1727 360 1752 c 128,-1,4
 433 1777 433 1777 524 1777 c 0,5,6
 624 1777 624 1777 696.5 1751.5 c 128,-1,7
 769 1726 769 1726 816.5 1680 c 128,-1,8
 864 1634 864 1634 887 1571 c 128,-1,9
 910 1508 910 1508 910 1433 c 0,10,11
 910 1392 910 1392 904 1354 c 128,-1,12
 898 1316 898 1316 886 1276.5 c 128,-1,13
 874 1237 874 1237 855.5 1194.5 c 128,-1,14
 837 1152 837 1152 812 1103 c 1,15,16
 788 1064 788 1064 774 1036.5 c 128,-1,17
 760 1009 760 1009 752.5 988.5 c 128,-1,18
 745 968 745 968 742.5 952.5 c 128,-1,19
 740 937 740 937 740 922 c 0,20,21
 740 888 740 888 752 853.5 c 128,-1,22
 764 819 764 819 788 768 c 2,23,-1
 879 577 l 1,24,25
 896 531 896 531 909.5 493.5 c 128,-1,26
 923 456 923 456 932.5 422 c 128,-1,27
 942 388 942 388 947 355.5 c 128,-1,28
 952 323 952 323 952 289 c 0,29,30
 952 230 952 230 937.5 174.5 c 128,-1,31
 923 119 923 119 891 76.5 c 128,-1,32
 859 34 859 34 808.5 8 c 128,-1,33
 758 -18 758 -18 686 -18 c 0,34,35
 641 -18 641 -18 603 -10.5 c 128,-1,36
 565 -3 565 -3 532 11 c 1,37,-1
 532 172 l 1,38,39
 543 169 543 169 550 168 c 128,-1,40
 557 167 557 167 564 166 c 128,-1,41
 571 165 571 165 578 165 c 128,-1,42
 585 165 585 165 596 165 c 0,43,44
 614 165 614 165 632 172 c 128,-1,45
 650 179 650 179 665 194 c 128,-1,46
 680 209 680 209 689 232.5 c 128,-1,47
 698 256 698 256 698 288 c 0,48,49
 698 337 698 337 676 389 c 128,-1,50
 654 441 654 441 627 495 c 1,51,-1
 569 651 l 1,52,53
 540 710 540 710 520 765.5 c 128,-1,54
 500 821 500 821 500 882 c 0,55,56
 500 909 500 909 504.5 933 c 128,-1,57
 509 957 509 957 519.5 983 c 128,-1,58
 530 1009 530 1009 546.5 1039 c 128,-1,59
 563 1069 563 1069 587 1108 c 1,60,61
 612 1159 612 1159 629 1198.5 c 128,-1,62
 646 1238 646 1238 656 1271.5 c 128,-1,63
 666 1305 666 1305 670 1334.5 c 128,-1,64
 674 1364 674 1364 674 1396 c 0,65,66
 674 1436 674 1436 664 1470.5 c 128,-1,67
 654 1505 654 1505 634.5 1530 c 128,-1,68
 615 1555 615 1555 586 1569.5 c 128,-1,69
 557 1584 557 1584 519 1584 c 0,70,71
 490 1584 490 1584 464 1576.5 c 128,-1,72
 438 1569 438 1569 419 1552.5 c 128,-1,73
 400 1536 400 1536 389 1509.5 c 128,-1,74
 378 1483 378 1483 378 1444 c 2,75,-1
 378 -431 l 1,76,-1
 128 -431 l 1,77,-1
 128 1369 l 2,0,1
EndSplineSet
EndChar

StartChar: at
Encoding: 64 64 260
Width: 1623
Flags: W
LayerCount: 2
Fore
SplineSet
84 919 m 2,0,1
 84 1096 84 1096 115.5 1227.5 c 128,-1,2
 147 1359 147 1359 201 1453.5 c 128,-1,3
 255 1548 255 1548 327 1609.5 c 128,-1,4
 399 1671 399 1671 480 1706.5 c 128,-1,5
 561 1742 561 1742 645.5 1756 c 128,-1,6
 730 1770 730 1770 810 1770 c 0,7,8
 892 1770 892 1770 978 1758.5 c 128,-1,9
 1064 1747 1064 1747 1145 1714.5 c 128,-1,10
 1226 1682 1226 1682 1298 1625 c 128,-1,11
 1370 1568 1370 1568 1423.5 1477 c 128,-1,12
 1477 1386 1477 1386 1508 1256.5 c 128,-1,13
 1539 1127 1539 1127 1539 950 c 2,14,-1
 1539 744 l 2,15,16
 1539 607 1539 607 1526.5 491.5 c 128,-1,17
 1514 376 1514 376 1479.5 291.5 c 128,-1,18
 1445 207 1445 207 1384.5 159.5 c 128,-1,19
 1324 112 1324 112 1228 112 c 0,20,21
 1125 112 1125 112 1065 157 c 128,-1,22
 1005 202 1005 202 977 299 c 1,23,24
 942 208 942 208 883 160.5 c 128,-1,25
 824 113 824 113 751 113 c 0,26,27
 725 113 725 113 693.5 116.5 c 128,-1,28
 662 120 662 120 629.5 134.5 c 128,-1,29
 597 149 597 149 566.5 178.5 c 128,-1,30
 536 208 536 208 512 259.5 c 128,-1,31
 488 311 488 311 473.5 389 c 128,-1,32
 459 467 459 467 459 578 c 2,33,-1
 459 814 l 2,34,35
 459 914 459 914 472.5 986 c 128,-1,36
 486 1058 486 1058 508.5 1108 c 128,-1,37
 531 1158 531 1158 560 1188.5 c 128,-1,38
 589 1219 589 1219 620 1235.5 c 128,-1,39
 651 1252 651 1252 681 1257.5 c 128,-1,40
 711 1263 711 1263 736 1263 c 0,41,42
 805 1263 805 1263 853.5 1228.5 c 128,-1,43
 902 1194 902 1194 934 1142 c 1,44,-1
 952 1248 l 1,45,-1
 1147 1248 l 1,46,-1
 1147 438 l 2,47,48
 1147 395 1147 395 1154.5 366.5 c 128,-1,49
 1162 338 1162 338 1174.5 321.5 c 128,-1,50
 1187 305 1187 305 1203.5 298 c 128,-1,51
 1220 291 1220 291 1237 291 c 0,52,53
 1259 291 1259 291 1278.5 304 c 128,-1,54
 1298 317 1298 317 1312 358 c 128,-1,55
 1326 399 1326 399 1334.5 475.5 c 128,-1,56
 1343 552 1343 552 1343 678 c 2,57,-1
 1343 950 l 2,58,59
 1343 1105 1343 1105 1318 1213 c 128,-1,60
 1293 1321 1293 1321 1251 1393.5 c 128,-1,61
 1209 1466 1209 1466 1154.5 1507 c 128,-1,62
 1100 1548 1100 1548 1041 1569 c 128,-1,63
 982 1590 982 1590 922.5 1595 c 128,-1,64
 863 1600 863 1600 812 1600 c 0,65,66
 760 1600 760 1600 700.5 1592.5 c 128,-1,67
 641 1585 641 1585 581.5 1561 c 128,-1,68
 522 1537 522 1537 467.5 1491.5 c 128,-1,69
 413 1446 413 1446 371 1370.5 c 128,-1,70
 329 1295 329 1295 304 1184.5 c 128,-1,71
 279 1074 279 1074 279 919 c 2,72,-1
 279 461 l 2,73,74
 279 303 279 303 306 191 c 128,-1,75
 333 79 333 79 378 4.5 c 128,-1,76
 423 -70 423 -70 482.5 -113.5 c 128,-1,77
 542 -157 542 -157 608 -179 c 128,-1,78
 674 -201 674 -201 741.5 -207 c 128,-1,79
 809 -213 809 -213 870 -213 c 0,80,81
 899 -213 899 -213 934.5 -210.5 c 128,-1,82
 970 -208 970 -208 1006.5 -202.5 c 128,-1,83
 1043 -197 1043 -197 1077 -189.5 c 128,-1,84
 1111 -182 1111 -182 1138 -171 c 1,85,-1
 1138 -327 l 1,86,87
 1118 -341 1118 -341 1082 -352.5 c 128,-1,88
 1046 -364 1046 -364 1001.5 -373 c 128,-1,89
 957 -382 957 -382 908 -387 c 128,-1,90
 859 -392 859 -392 814 -392 c 0,91,92
 766 -392 766 -392 709.5 -386.5 c 128,-1,93
 653 -381 653 -381 593 -365 c 128,-1,94
 533 -349 533 -349 471.5 -320 c 128,-1,95
 410 -291 410 -291 353.5 -244.5 c 128,-1,96
 297 -198 297 -198 248 -132 c 128,-1,97
 199 -66 199 -66 162.5 24.5 c 128,-1,98
 126 115 126 115 105 232.5 c 128,-1,99
 84 350 84 350 84 499 c 2,100,-1
 84 919 l 2,0,1
808 303 m 0,101,102
 845 303 845 303 869.5 327 c 128,-1,103
 894 351 894 351 909 384 c 1,104,-1
 909 989 l 1,105,106
 893 1026 893 1026 868.5 1050.5 c 128,-1,107
 844 1075 844 1075 809 1075 c 0,108,109
 787 1075 787 1075 767 1066.5 c 128,-1,110
 747 1058 747 1058 731.5 1032.5 c 128,-1,111
 716 1007 716 1007 706.5 961 c 128,-1,112
 697 915 697 915 697 840 c 2,113,-1
 697 531 l 2,114,115
 697 459 697 459 705 414.5 c 128,-1,116
 713 370 713 370 728 345 c 128,-1,117
 743 320 743 320 763.5 311.5 c 128,-1,118
 784 303 784 303 808 303 c 0,101,102
EndSplineSet
EndChar

StartChar: a
Encoding: 97 97 261
Width: 905
Flags: W
LayerCount: 2
Fore
SplineSet
52 305 m 0,0,1
 52 387 52 387 72 451 c 128,-1,2
 92 515 92 515 132 567 c 128,-1,3
 172 619 172 619 231 660.5 c 128,-1,4
 290 702 290 702 368 740 c 0,5,6
 406 758 406 758 449.5 777 c 128,-1,7
 493 796 493 796 530 810 c 1,8,-1
 530 971 l 2,9,10
 530 1008 530 1008 528 1043 c 128,-1,11
 526 1078 526 1078 516 1105 c 128,-1,12
 506 1132 506 1132 484.5 1148 c 128,-1,13
 463 1164 463 1164 423 1164 c 0,14,15
 396 1164 396 1164 371 1154 c 128,-1,16
 346 1144 346 1144 326.5 1121 c 128,-1,17
 307 1098 307 1098 295.5 1059.5 c 128,-1,18
 284 1021 284 1021 284 964 c 2,19,-1
 284 910 l 1,20,-1
 93 910 l 1,21,22
 84 948 84 948 79.5 979 c 128,-1,23
 75 1010 75 1010 75 1042 c 0,24,25
 75 1117 75 1117 101.5 1174 c 128,-1,26
 128 1231 128 1231 175 1269.5 c 128,-1,27
 222 1308 222 1308 287.5 1327.5 c 128,-1,28
 353 1347 353 1347 431 1347 c 0,29,30
 533 1347 533 1347 600 1326 c 128,-1,31
 667 1305 667 1305 707 1263 c 128,-1,32
 747 1221 747 1221 763.5 1157 c 128,-1,33
 780 1093 780 1093 780 1007 c 2,34,-1
 780 0 l 1,35,-1
 587 0 l 1,36,-1
 569 114 l 1,37,38
 529 57 529 57 464.5 20.5 c 128,-1,39
 400 -16 400 -16 313 -16 c 0,40,41
 246 -16 246 -16 197 10 c 128,-1,42
 148 36 148 36 115.5 80 c 128,-1,43
 83 124 83 124 67.5 182 c 128,-1,44
 52 240 52 240 52 305 c 0,0,1
295 343 m 0,45,46
 295 305 295 305 302.5 273.5 c 128,-1,47
 310 242 310 242 325.5 219 c 128,-1,48
 341 196 341 196 365.5 183.5 c 128,-1,49
 390 171 390 171 424 171 c 0,50,51
 455 171 455 171 482 187 c 128,-1,52
 509 203 509 203 530 227 c 1,53,-1
 530 647 l 1,54,55
 510 639 510 639 488.5 628 c 128,-1,56
 467 617 467 617 439 600 c 0,57,58
 412 584 412 584 386.5 560 c 128,-1,59
 361 536 361 536 340.5 504.5 c 128,-1,60
 320 473 320 473 307.5 432.5 c 128,-1,61
 295 392 295 392 295 343 c 0,45,46
EndSplineSet
EndChar

StartChar: copyright
Encoding: 169 169 263
Width: 1434
Flags: W
LayerCount: 2
Fore
SplineSet
98 1001 m 2,0,1
 98 1152 98 1152 127.5 1262 c 128,-1,2
 157 1372 157 1372 206.5 1448.5 c 128,-1,3
 256 1525 256 1525 320 1573 c 128,-1,4
 384 1621 384 1621 453 1647.5 c 128,-1,5
 522 1674 522 1674 591 1683 c 128,-1,6
 660 1692 660 1692 720 1692 c 0,7,8
 777 1692 777 1692 845 1683.5 c 128,-1,9
 913 1675 913 1675 981.5 1649 c 128,-1,10
 1050 1623 1050 1623 1114 1576 c 128,-1,11
 1178 1529 1178 1529 1227.5 1452.5 c 128,-1,12
 1277 1376 1277 1376 1306.5 1265 c 128,-1,13
 1336 1154 1336 1154 1336 1001 c 2,14,-1
 1336 675 l 2,15,16
 1336 522 1336 522 1306 411 c 128,-1,17
 1276 300 1276 300 1226.5 223.5 c 128,-1,18
 1177 147 1177 147 1113 100 c 128,-1,19
 1049 53 1049 53 980.5 27.5 c 128,-1,20
 912 2 912 2 843.5 -6.5 c 128,-1,21
 775 -15 775 -15 718 -15 c 0,22,23
 658 -15 658 -15 589 -6 c 128,-1,24
 520 3 520 3 451.5 29.5 c 128,-1,25
 383 56 383 56 319 103.5 c 128,-1,26
 255 151 255 151 206 227.5 c 128,-1,27
 157 304 157 304 127.5 414 c 128,-1,28
 98 524 98 524 98 675 c 2,29,-1
 98 1001 l 2,0,1
252 651 m 2,30,31
 252 531 252 531 274 445 c 128,-1,32
 296 359 296 359 332.5 300 c 128,-1,33
 369 241 369 241 417 205 c 128,-1,34
 465 169 465 169 516.5 149.5 c 128,-1,35
 568 130 568 130 620 123.5 c 128,-1,36
 672 117 672 117 718 117 c 0,37,38
 762 117 762 117 813.5 123 c 128,-1,39
 865 129 865 129 916.5 148 c 128,-1,40
 968 167 968 167 1016 202.5 c 128,-1,41
 1064 238 1064 238 1101 297 c 128,-1,42
 1138 356 1138 356 1160 443 c 128,-1,43
 1182 530 1182 530 1183 651 c 1,44,-1
 1183 1025 l 2,45,46
 1183 1146 1183 1146 1161 1233 c 128,-1,47
 1139 1320 1139 1320 1102 1379.5 c 128,-1,48
 1065 1439 1065 1439 1017.5 1474.5 c 128,-1,49
 970 1510 970 1510 918.5 1529 c 128,-1,50
 867 1548 867 1548 815.5 1554 c 128,-1,51
 764 1560 764 1560 720 1560 c 0,52,53
 674 1560 674 1560 622 1553.5 c 128,-1,54
 570 1547 570 1547 518 1527.5 c 128,-1,55
 466 1508 466 1508 418 1472 c 128,-1,56
 370 1436 370 1436 333 1376.5 c 128,-1,57
 296 1317 296 1317 274 1230.5 c 128,-1,58
 252 1144 252 1144 252 1025 c 2,59,-1
 252 651 l 2,30,31
744 284 m 0,60,61
 712 284 712 284 675 289 c 128,-1,62
 638 294 638 294 601.5 309.5 c 128,-1,63
 565 325 565 325 530.5 354.5 c 128,-1,64
 496 384 496 384 470 432 c 128,-1,65
 444 480 444 480 428 549.5 c 128,-1,66
 412 619 412 619 412 716 c 2,67,-1
 412 965 l 2,68,69
 412 1062 412 1062 428 1131.5 c 128,-1,70
 444 1201 444 1201 471 1248 c 128,-1,71
 498 1295 498 1295 532.5 1323 c 128,-1,72
 567 1351 567 1351 603.5 1366 c 128,-1,73
 640 1381 640 1381 676.5 1385.5 c 128,-1,74
 713 1390 713 1390 743 1390 c 0,75,76
 821 1390 821 1390 874 1367.5 c 128,-1,77
 927 1345 927 1345 959 1309.5 c 128,-1,78
 991 1274 991 1274 1005 1230.5 c 128,-1,79
 1019 1187 1019 1187 1019 1146 c 0,80,81
 1019 1104 1019 1104 1014 1069 c 128,-1,82
 1009 1034 1009 1034 1001 992 c 1,83,-1
 839 992 l 1,84,-1
 839 1046 l 2,85,86
 839 1137 839 1137 813 1182.5 c 128,-1,87
 787 1228 787 1228 738 1228 c 0,88,89
 711 1228 711 1228 690 1217.5 c 128,-1,90
 669 1207 669 1207 654.5 1182 c 128,-1,91
 640 1157 640 1157 633 1115 c 128,-1,92
 626 1073 626 1073 626 1011 c 2,93,-1
 626 654 l 2,94,95
 626 594 626 594 633 554 c 128,-1,96
 640 514 640 514 655 490 c 128,-1,97
 670 466 670 466 692 456 c 128,-1,98
 714 446 714 446 744 446 c 0,99,100
 785 446 785 446 812.5 481.5 c 128,-1,101
 840 517 840 517 840 594 c 2,102,-1
 840 677 l 1,103,-1
 1023 677 l 1,104,-1
 1023 605 l 2,105,106
 1023 449 1023 449 951.5 367 c 128,-1,107
 880 285 880 285 744 284 c 0,60,61
EndSplineSet
EndChar

StartChar: registered
Encoding: 174 174 264
Width: 1454
Flags: W
LayerCount: 2
Fore
SplineSet
728 179 m 0,0,1
 671 179 671 179 602.5 188 c 128,-1,2
 534 197 534 197 464 223 c 128,-1,3
 394 249 394 249 328 296 c 128,-1,4
 262 343 262 343 211 418 c 128,-1,5
 160 493 160 493 129 600.5 c 128,-1,6
 98 708 98 708 98 855 c 2,7,-1
 98 1016 l 2,8,9
 98 1163 98 1163 129 1270.5 c 128,-1,10
 160 1378 160 1378 211.5 1453 c 128,-1,11
 263 1528 263 1528 329 1575 c 128,-1,12
 395 1622 395 1622 465.5 1648 c 128,-1,13
 536 1674 536 1674 604.5 1683 c 128,-1,14
 673 1692 673 1692 730 1692 c 0,15,16
 784 1692 784 1692 851.5 1683.5 c 128,-1,17
 919 1675 919 1675 988.5 1649.5 c 128,-1,18
 1058 1624 1058 1624 1124 1578 c 128,-1,19
 1190 1532 1190 1532 1241.5 1457 c 128,-1,20
 1293 1382 1293 1382 1324.5 1273.5 c 128,-1,21
 1356 1165 1356 1165 1356 1016 c 2,22,-1
 1356 855 l 2,23,24
 1356 706 1356 706 1324.5 597.5 c 128,-1,25
 1293 489 1293 489 1241.5 414 c 128,-1,26
 1190 339 1190 339 1123.5 293 c 128,-1,27
 1057 247 1057 247 987 221.5 c 128,-1,28
 917 196 917 196 849.5 187.5 c 128,-1,29
 782 179 782 179 728 179 c 0,0,1
728 321 m 0,30,31
 775 321 775 321 828.5 327.5 c 128,-1,32
 882 334 882 334 934.5 353.5 c 128,-1,33
 987 373 987 373 1035.5 408.5 c 128,-1,34
 1084 444 1084 444 1121 502.5 c 128,-1,35
 1158 561 1158 561 1180 645.5 c 128,-1,36
 1202 730 1202 730 1203 847 c 1,37,-1
 1203 1024 l 2,38,39
 1203 1141 1203 1141 1181 1225.5 c 128,-1,40
 1159 1310 1159 1310 1122 1368.5 c 128,-1,41
 1085 1427 1085 1427 1037 1462.5 c 128,-1,42
 989 1498 989 1498 936.5 1517.5 c 128,-1,43
 884 1537 884 1537 830.5 1543.5 c 128,-1,44
 777 1550 777 1550 730 1550 c 0,45,46
 682 1550 682 1550 627.5 1543 c 128,-1,47
 573 1536 573 1536 520 1516 c 128,-1,48
 467 1496 467 1496 418.5 1460 c 128,-1,49
 370 1424 370 1424 333 1365.5 c 128,-1,50
 296 1307 296 1307 274 1223 c 128,-1,51
 252 1139 252 1139 252 1024 c 2,52,-1
 252 847 l 2,53,54
 252 732 252 732 274 648 c 128,-1,55
 296 564 296 564 332.5 505.5 c 128,-1,56
 369 447 369 447 417 411 c 128,-1,57
 465 375 465 375 518 355 c 128,-1,58
 571 335 571 335 625 328 c 128,-1,59
 679 321 679 321 728 321 c 0,30,31
468 1349 m 1,60,-1
 650 1349 l 2,61,62
 687 1349 687 1349 729 1347 c 128,-1,63
 771 1345 771 1345 812 1337 c 128,-1,64
 853 1329 853 1329 890 1313.5 c 128,-1,65
 927 1298 927 1298 955.5 1271 c 128,-1,66
 984 1244 984 1244 1001 1203 c 128,-1,67
 1018 1162 1018 1162 1018 1104 c 2,68,-1
 1018 1074 l 2,69,70
 1018 1002 1018 1002 985.5 948.5 c 128,-1,71
 953 895 953 895 890 868 c 1,72,-1
 1075 546 l 1,73,-1
 870 546 l 1,74,-1
 743 819 l 1,75,-1
 650 819 l 1,76,-1
 650 546 l 1,77,-1
 468 546 l 1,78,-1
 468 1349 l 1,60,-1
680 941 m 2,79,80
 757 941 757 941 788.5 972.5 c 128,-1,81
 820 1004 820 1004 820 1071 c 2,82,-1
 820 1112 l 2,83,84
 820 1138 820 1138 813 1159 c 128,-1,85
 806 1180 806 1180 790 1195 c 128,-1,86
 774 1210 774 1210 747 1218 c 128,-1,87
 720 1226 720 1226 680 1226 c 2,88,-1
 650 1226 l 1,89,-1
 650 941 l 1,90,-1
 680 941 l 2,79,80
EndSplineSet
EndChar

StartChar: ampersand
Encoding: 38 38 265
Width: 1189
Flags: W
LayerCount: 2
Fore
SplineSet
50 403 m 0,0,1
 50 486 50 486 77.5 559.5 c 128,-1,2
 105 633 105 633 145 695.5 c 128,-1,3
 185 758 185 758 228.5 808.5 c 128,-1,4
 272 859 272 859 305 896 c 1,5,-1
 332 924 l 1,6,-1
 298 985 l 2,7,8
 272 1031 272 1031 248 1082 c 128,-1,9
 224 1133 224 1133 206 1186.5 c 128,-1,10
 188 1240 188 1240 177 1295.5 c 128,-1,11
 166 1351 166 1351 166 1406 c 0,12,13
 166 1491 166 1491 195.5 1560 c 128,-1,14
 225 1629 225 1629 276 1677 c 128,-1,15
 327 1725 327 1725 395.5 1751 c 128,-1,16
 464 1777 464 1777 541 1777 c 0,17,18
 608 1777 608 1777 659.5 1763 c 128,-1,19
 711 1749 711 1749 748.5 1725.5 c 128,-1,20
 786 1702 786 1702 811.5 1671 c 128,-1,21
 837 1640 837 1640 852.5 1606.5 c 128,-1,22
 868 1573 868 1573 874.5 1539 c 128,-1,23
 881 1505 881 1505 881 1475 c 0,24,25
 881 1415 881 1415 867 1360 c 128,-1,26
 853 1305 853 1305 830.5 1256 c 128,-1,27
 808 1207 808 1207 779 1164 c 128,-1,28
 750 1121 750 1121 720.5 1084 c 128,-1,29
 691 1047 691 1047 663 1017 c 128,-1,30
 635 987 635 987 615 963 c 1,31,-1
 593 939 l 1,32,-1
 849 478 l 1,33,34
 884 588 884 588 884 711 c 0,35,36
 884 743 884 743 883 771 c 128,-1,37
 882 799 882 799 880 825 c 1,38,-1
 1087 825 l 1,39,40
 1092 799 1092 799 1094.5 770 c 128,-1,41
 1097 741 1097 741 1097 711 c 0,42,43
 1097 594 1097 594 1060 483.5 c 128,-1,44
 1023 373 1023 373 959 279 c 1,45,-1
 1114 1 l 1,46,-1
 849 1 l 1,47,-1
 793 99 l 1,48,49
 722 45 722 45 642.5 14.5 c 128,-1,50
 563 -16 563 -16 481 -16 c 0,51,52
 386 -16 386 -16 307 12 c 128,-1,53
 228 40 228 40 171 93 c 128,-1,54
 114 146 114 146 82 224 c 128,-1,55
 50 302 50 302 50 403 c 0,0,1
518 1123 m 1,56,57
 537 1145 537 1145 562.5 1175.5 c 128,-1,58
 588 1206 588 1206 611 1244.5 c 128,-1,59
 634 1283 634 1283 649.5 1329.5 c 128,-1,60
 665 1376 665 1376 665 1432 c 0,61,62
 665 1469 665 1469 655 1496.5 c 128,-1,63
 645 1524 645 1524 627.5 1542 c 128,-1,64
 610 1560 610 1560 587.5 1568.5 c 128,-1,65
 565 1577 565 1577 541 1577 c 0,66,67
 518 1577 518 1577 493 1568.5 c 128,-1,68
 468 1560 468 1560 447.5 1540.5 c 128,-1,69
 427 1521 427 1521 414 1488 c 128,-1,70
 401 1455 401 1455 401 1406 c 0,71,72
 401 1373 401 1373 406.5 1341 c 128,-1,73
 412 1309 412 1309 424 1273.5 c 128,-1,74
 436 1238 436 1238 455 1197 c 128,-1,75
 474 1156 474 1156 501 1105 c 1,76,-1
 518 1123 l 1,56,57
304 437 m 0,77,78
 304 392 304 392 317.5 347 c 128,-1,79
 331 302 331 302 359.5 266 c 128,-1,80
 388 230 388 230 431.5 208 c 128,-1,81
 475 186 475 186 536 186 c 0,82,83
 585 186 585 186 628 203 c 128,-1,84
 671 220 671 220 708 251 c 1,85,-1
 427 754 l 1,86,87
 368 681 368 681 336 599.5 c 128,-1,88
 304 518 304 518 304 437 c 0,77,78
EndSplineSet
EndChar

StartChar: ordfeminine
Encoding: 170 170 266
Width: 818
Flags: W
LayerCount: 2
Fore
SplineSet
301 631 m 0,0,1
 237 631 237 631 191.5 652.5 c 128,-1,2
 146 674 146 674 117.5 709 c 128,-1,3
 89 744 89 744 76 788.5 c 128,-1,4
 63 833 63 833 63 880 c 0,5,6
 63 961 63 961 95 1020.5 c 128,-1,7
 127 1080 127 1080 174 1123 c 128,-1,8
 221 1166 221 1166 275.5 1194.5 c 128,-1,9
 330 1223 330 1223 374 1241 c 0,10,11
 393 1249 393 1249 425 1262 c 128,-1,12
 457 1275 457 1275 489 1283 c 1,13,-1
 489 1438 l 2,14,15
 489 1491 489 1491 470 1522 c 128,-1,16
 451 1553 451 1553 399 1553 c 0,17,18
 372 1553 372 1553 350 1545 c 128,-1,19
 328 1537 328 1537 312 1519 c 128,-1,20
 296 1501 296 1501 287 1471 c 128,-1,21
 278 1441 278 1441 278 1398 c 2,22,-1
 278 1353 l 1,23,-1
 98 1353 l 1,24,25
 90 1391 90 1391 87 1417.5 c 128,-1,26
 84 1444 84 1444 84 1472 c 0,27,28
 84 1517 84 1517 102 1560 c 128,-1,29
 120 1603 120 1603 158 1636.5 c 128,-1,30
 196 1670 196 1670 256 1691 c 128,-1,31
 316 1712 316 1712 400 1712 c 0,32,33
 500 1712 500 1712 561.5 1687.5 c 128,-1,34
 623 1663 623 1663 657 1623.5 c 128,-1,35
 691 1584 691 1584 703 1533.5 c 128,-1,36
 715 1483 715 1483 715 1431 c 2,37,-1
 715 649 l 1,38,-1
 545 649 l 1,39,-1
 528 719 l 1,40,41
 510 702 510 702 484.5 686 c 128,-1,42
 459 670 459 670 429 658 c 128,-1,43
 399 646 399 646 366.5 638.5 c 128,-1,44
 334 631 334 631 301 631 c 0,0,1
391 791 m 0,45,46
 422 791 422 791 446 802 c 128,-1,47
 470 813 470 813 489 828 c 1,48,-1
 489 1142 l 1,49,50
 480 1139 480 1139 473.5 1137 c 128,-1,51
 467 1135 467 1135 460 1133 c 128,-1,52
 453 1131 453 1131 444.5 1127.5 c 128,-1,53
 436 1124 436 1124 424 1118 c 1,54,55
 401 1109 401 1109 375.5 1092 c 128,-1,56
 350 1075 350 1075 328.5 1050.5 c 128,-1,57
 307 1026 307 1026 293 994 c 128,-1,58
 279 962 279 962 279 923 c 0,59,60
 279 864 279 864 308 827.5 c 128,-1,61
 337 791 337 791 391 791 c 0,45,46
EndSplineSet
EndChar

StartChar: ordmasculine
Encoding: 186 186 267
Width: 900
Flags: W
LayerCount: 2
Fore
SplineSet
461 648 m 256,0,1
 425 648 425 648 386 654.5 c 128,-1,2
 347 661 347 661 309 676.5 c 128,-1,3
 271 692 271 692 237 718.5 c 128,-1,4
 203 745 203 745 177 785.5 c 128,-1,5
 151 826 151 826 136 881 c 128,-1,6
 121 936 121 936 121 1010 c 2,7,-1
 121 1350 l 2,8,9
 121 1424 121 1424 136 1479 c 128,-1,10
 151 1534 151 1534 177 1574.5 c 128,-1,11
 203 1615 203 1615 237 1641.5 c 128,-1,12
 271 1668 271 1668 309 1683.5 c 128,-1,13
 347 1699 347 1699 386 1705.5 c 128,-1,14
 425 1712 425 1712 461 1712 c 256,15,16
 497 1712 497 1712 536 1705.5 c 128,-1,17
 575 1699 575 1699 613 1683 c 128,-1,18
 651 1667 651 1667 685 1640.5 c 128,-1,19
 719 1614 719 1614 745 1573.5 c 128,-1,20
 771 1533 771 1533 786 1477.5 c 128,-1,21
 801 1422 801 1422 801 1349 c 2,22,-1
 801 1011 l 2,23,24
 801 937 801 937 786 882 c 128,-1,25
 771 827 771 827 745 786.5 c 128,-1,26
 719 746 719 746 685 719.5 c 128,-1,27
 651 693 651 693 613 677 c 128,-1,28
 575 661 575 661 536 654.5 c 128,-1,29
 497 648 497 648 461 648 c 256,0,1
461 807 m 0,30,31
 531 807 531 807 556.5 857.5 c 128,-1,32
 582 908 582 908 582 1010 c 2,33,-1
 582 1349 l 2,34,35
 582 1452 582 1452 556.5 1502.5 c 128,-1,36
 531 1553 531 1553 461 1553 c 0,37,38
 426 1553 426 1553 402.5 1540.5 c 128,-1,39
 379 1528 379 1528 365 1503 c 128,-1,40
 351 1478 351 1478 345.5 1439.5 c 128,-1,41
 340 1401 340 1401 340 1350 c 2,42,-1
 340 1011 l 2,43,44
 340 959 340 959 345.5 921 c 128,-1,45
 351 883 351 883 365 857.5 c 128,-1,46
 379 832 379 832 402.5 819.5 c 128,-1,47
 426 807 426 807 461 807 c 0,30,31
EndSplineSet
EndChar

StartChar: trademark
Encoding: 8482 8482 268
Width: 1571
Flags: W
LayerCount: 2
Fore
SplineSet
674 1677 m 1,0,-1
 899 1677 l 1,1,-1
 1024 1324 l 1,2,-1
 1057 1214 l 1,3,-1
 1073 1214 l 1,4,-1
 1108 1324 l 1,5,-1
 1244 1677 l 1,6,-1
 1446 1677 l 1,7,-1
 1446 849 l 1,8,-1
 1270 849 l 1,9,-1
 1270 932 l 2,10,11
 1270 1046 1270 1046 1272 1122 c 128,-1,12
 1274 1198 1274 1198 1277.5 1252 c 128,-1,13
 1281 1306 1281 1306 1284.5 1345 c 128,-1,14
 1288 1384 1288 1384 1291 1423 c 1,15,-1
 1285 1423 l 1,16,-1
 1121 969 l 1,17,-1
 1009 969 l 1,18,-1
 836 1423 l 1,19,-1
 829 1423 l 1,20,21
 832 1384 832 1384 835.5 1345 c 128,-1,22
 839 1306 839 1306 842.5 1252 c 128,-1,23
 846 1198 846 1198 848 1122 c 128,-1,24
 850 1046 850 1046 850 932 c 2,25,-1
 850 849 l 1,26,-1
 674 849 l 1,27,-1
 674 1677 l 1,0,-1
211 1523 m 1,28,-1
 35 1523 l 1,29,-1
 36 1677 l 1,30,-1
 563 1677 l 1,31,-1
 563 1523 l 1,32,-1
 387 1523 l 1,33,-1
 387 849 l 1,34,-1
 211 849 l 1,35,-1
 211 1523 l 1,28,-1
EndSplineSet
EndChar

StartChar: guilsinglleft
Encoding: 8249 8249 269
Width: 816
Flags: W
LayerCount: 2
Fore
SplineSet
138 697 m 1,0,-1
 138 843 l 1,1,-1
 523 1238 l 1,2,-1
 658 1117 l 1,3,-1
 378 768 l 1,4,-1
 654 418 l 1,5,-1
 519 297 l 1,6,-1
 138 697 l 1,0,-1
EndSplineSet
EndChar

StartChar: .ttfautohint
Encoding: 65545 -1 273
Width: 1345
Flags: W
LayerCount: 2
Fore
SplineSet
0 0 m 0,0,-1
EndSplineSet
EndChar
